<svg xmlns="http://www.w3.org/2000/svg" xml:space="preserve" xmlns:xlink="http://www.w3.org/1999/xlink" style="max-width: 100%;height: auto;" width="990" height="990" viewBox="0 0 990 990">
<defs><mask id="qrmask"><g fill="#ffffff"><g>
<g transform="translate(220,44) scale(3.7766666666667)"><circle cx="3" cy="3" r="2.5"/></g>
<g transform="translate(286,44) scale(3.7766666666667)"><circle cx="3" cy="3" r="2.5"/></g>
<g transform="translate(330,44) scale(3.7766666666667)"><path d="M6,5.5H3C1.6,5.5,0.5,4.4,0.5,3v0c0-1.4,1.1-2.5,2.5-2.5h3V5.5z"/></g>
<g transform="translate(352,44) scale(3.7766666666667)"><path d="M3,5.5H0v-5h3c1.4,0,2.5,1.1,2.5,2.5v0C5.5,4.4,4.4,5.5,3,5.5z"/></g>
<g transform="translate(396,44) scale(3.7766666666667)"><path d="M6,5.5H3C1.6,5.5,0.5,4.4,0.5,3v0c0-1.4,1.1-2.5,2.5-2.5h3V5.5z"/></g>
<g transform="translate(418,44) scale(3.7766666666667)"><path d="M3,5.5H0v-5h3c1.4,0,2.5,1.1,2.5,2.5v0C5.5,4.4,4.4,5.5,3,5.5z"/></g>
<g transform="translate(462,44) scale(3.7766666666667)"><circle cx="3" cy="3" r="2.5"/></g>
<g transform="translate(506,44) scale(3.7766666666667)"><circle cx="3" cy="3" r="2.5"/></g>
<g transform="translate(550,44) scale(3.7766666666667)"><path d="M6,5.5H3C1.6,5.5,0.5,4.4,0.5,3v0c0-1.4,1.1-2.5,2.5-2.5h3V5.5z"/></g>
<g transform="translate(572,44) scale(3.7766666666667)"><path d="M3,5.5H0v-5h3c1.4,0,2.5,1.1,2.5,2.5v0C5.5,4.4,4.4,5.5,3,5.5z"/></g>
<g transform="translate(660,44) scale(3.7766666666667)"><path d="M6,5.5H3C1.6,5.5,0.5,4.4,0.5,3v0c0-1.4,1.1-2.5,2.5-2.5h3V5.5z"/></g>
<g transform="translate(682,44) scale(3.7766666666667)"><rect y="0.5" width="6" height="5"/></g>
<g transform="translate(704,44) scale(3.7766666666667)"><rect y="0.5" width="6" height="5"/></g>
<g transform="translate(726,44) scale(3.7766666666667)"><rect y="0.5" width="6" height="5"/></g>
<g transform="translate(748,44) scale(3.7766666666667)"><path d="M3,5.5H0v-5h3c1.4,0,2.5,1.1,2.5,2.5v0C5.5,4.4,4.4,5.5,3,5.5z"/></g>
<g transform="translate(220,66) scale(3.7766666666667)"><path d="M6,5.5H3C1.6,5.5,0.5,4.4,0.5,3v0c0-1.4,1.1-2.5,2.5-2.5h3V5.5z"/></g>
<g transform="translate(242,66) scale(3.7766666666667)"><rect y="0.5" width="6" height="5"/></g>
<g transform="translate(264,66) scale(3.7766666666667)"><path d="M3,5.5H0v-5h3c1.4,0,2.5,1.1,2.5,2.5v0C5.5,4.4,4.4,5.5,3,5.5z"/></g>
<g transform="translate(308,66) scale(3.7766666666667)"><path d="M6,5.5H3C1.6,5.5,0.5,4.4,0.5,3v0c0-1.4,1.1-2.5,2.5-2.5h3V5.5z"/></g>
<g transform="translate(330,66) scale(3.7766666666667)"><path d="M3,5.5H0v-5h3c1.4,0,2.5,1.1,2.5,2.5v0C5.5,4.4,4.4,5.5,3,5.5z"/></g>
<g transform="translate(374,66) scale(3.7766666666667)"><circle cx="3" cy="3" r="2.5"/></g>
<g transform="translate(418,66) scale(3.7766666666667)"><path d="M6,5.5H3C1.6,5.5,0.5,4.4,0.5,3v0c0-1.4,1.1-2.5,2.5-2.5h3V5.5z"/></g>
<g transform="translate(440,66) scale(3.7766666666667)"><path d="M3,5.5H0v-5h3c1.4,0,2.5,1.1,2.5,2.5v0C5.5,4.4,4.4,5.5,3,5.5z"/></g>
<g transform="translate(528,66) scale(3.7766666666667)"><circle cx="3" cy="3" r="2.5"/></g>
<g transform="translate(638,66) scale(3.7766666666667)"><path d="M6,5.5H3C1.6,5.5,0.5,4.4,0.5,3v0c0-1.4,1.1-2.5,2.5-2.5h3V5.5z"/></g>
<g transform="translate(660,66) scale(3.7766666666667)"><rect y="0.5" width="6" height="5"/></g>
<g transform="translate(682,66) scale(3.7766666666667)"><path d="M3,5.5H0v-5h3c1.4,0,2.5,1.1,2.5,2.5v0C5.5,4.4,4.4,5.5,3,5.5z"/></g>
<g transform="translate(748,66) scale(3.7766666666667)"><circle cx="3" cy="3" r="2.5"/></g>
<g transform="translate(220,88) scale(3.7766666666667)"><circle cx="3" cy="3" r="2.5"/></g>
<g transform="translate(352,88) scale(3.7766666666667)"><circle cx="3" cy="3" r="2.5"/></g>
<g transform="translate(440,88) scale(3.7766666666667)"><path d="M6,5.5H3C1.6,5.5,0.5,4.4,0.5,3v0c0-1.4,1.1-2.5,2.5-2.5h3V5.5z"/></g>
<g transform="translate(462,88) scale(3.7766666666667)"><rect y="0.5" width="6" height="5"/></g>
<g transform="translate(484,88) scale(3.7766666666667)"><path d="M3,5.5H0v-5h3c1.4,0,2.5,1.1,2.5,2.5v0C5.5,4.4,4.4,5.5,3,5.5z"/></g>
<g transform="translate(550,88) scale(3.7766666666667)"><path d="M6,5.5H3C1.6,5.5,0.5,4.4,0.5,3v0c0-1.4,1.1-2.5,2.5-2.5h3V5.5z"/></g>
<g transform="translate(572,88) scale(3.7766666666667)"><path d="M3,5.5H0v-5h3c1.4,0,2.5,1.1,2.5,2.5v0C5.5,4.4,4.4,5.5,3,5.5z"/></g>
<g transform="translate(616,88) scale(3.7766666666667)"><path d="M6,5.5H3C1.6,5.5,0.5,4.4,0.5,3v0c0-1.4,1.1-2.5,2.5-2.5h3V5.5z"/></g>
<g transform="translate(638,88) scale(3.7766666666667)"><path d="M3,5.5H0v-5h3c1.4,0,2.5,1.1,2.5,2.5v0C5.5,4.4,4.4,5.5,3,5.5z"/></g>
<g transform="translate(682,88) scale(3.7766666666667)"><path d="M6,5.5H3C1.6,5.5,0.5,4.4,0.5,3v0c0-1.4,1.1-2.5,2.5-2.5h3V5.5z"/></g>
<g transform="translate(704,88) scale(3.7766666666667)"><path d="M3,5.5H0v-5h3c1.4,0,2.5,1.1,2.5,2.5v0C5.5,4.4,4.4,5.5,3,5.5z"/></g>
<g transform="translate(748,88) scale(3.7766666666667)"><circle cx="3" cy="3" r="2.5"/></g>
<g transform="translate(286,110) scale(3.7766666666667)"><circle cx="3" cy="3" r="2.5"/></g>
<g transform="translate(330,110) scale(3.7766666666667)"><path d="M6,5.5H3C1.6,5.5,0.5,4.4,0.5,3v0c0-1.4,1.1-2.5,2.5-2.5h3V5.5z"/></g>
<g transform="translate(352,110) scale(3.7766666666667)"><rect y="0.5" width="6" height="5"/></g>
<g transform="translate(374,110) scale(3.7766666666667)"><path d="M3,5.5H0v-5h3c1.4,0,2.5,1.1,2.5,2.5v0C5.5,4.4,4.4,5.5,3,5.5z"/></g>
<g transform="translate(418,110) scale(3.7766666666667)"><path d="M6,5.5H3C1.6,5.5,0.5,4.4,0.5,3v0c0-1.4,1.1-2.5,2.5-2.5h3V5.5z"/></g>
<g transform="translate(440,110) scale(3.7766666666667)"><path d="M3,5.5H0v-5h3c1.4,0,2.5,1.1,2.5,2.5v0C5.5,4.4,4.4,5.5,3,5.5z"/></g>
<g transform="translate(506,110) scale(3.7766666666667)"><path d="M6,5.5H3C1.6,5.5,0.5,4.4,0.5,3v0c0-1.4,1.1-2.5,2.5-2.5h3V5.5z"/></g>
<g transform="translate(528,110) scale(3.7766666666667)"><path d="M3,5.5H0v-5h3c1.4,0,2.5,1.1,2.5,2.5v0C5.5,4.4,4.4,5.5,3,5.5z"/></g>
<g transform="translate(726,110) scale(3.7766666666667)"><circle cx="3" cy="3" r="2.5"/></g>
<g transform="translate(242,132) scale(3.7766666666667)"><circle cx="3" cy="3" r="2.5"/></g>
<g transform="translate(330,132) scale(3.7766666666667)"><path d="M6,5.5H3C1.6,5.5,0.5,4.4,0.5,3v0c0-1.4,1.1-2.5,2.5-2.5h3V5.5z"/></g>
<g transform="translate(352,132) scale(3.7766666666667)"><rect y="0.5" width="6" height="5"/></g>
<g transform="translate(374,132) scale(3.7766666666667)"><rect y="0.5" width="6" height="5"/></g>
<g transform="translate(396,132) scale(3.7766666666667)"><path d="M3,5.5H0v-5h3c1.4,0,2.5,1.1,2.5,2.5v0C5.5,4.4,4.4,5.5,3,5.5z"/></g>
<g transform="translate(528,132) scale(3.7766666666667)"><path d="M6,5.5H3C1.6,5.5,0.5,4.4,0.5,3v0c0-1.4,1.1-2.5,2.5-2.5h3V5.5z"/></g>
<g transform="translate(550,132) scale(3.7766666666667)"><path d="M3,5.5H0v-5h3c1.4,0,2.5,1.1,2.5,2.5v0C5.5,4.4,4.4,5.5,3,5.5z"/></g>
<g transform="translate(616,132) scale(3.7766666666667)"><circle cx="3" cy="3" r="2.5"/></g>
<g transform="translate(704,132) scale(3.7766666666667)"><path d="M6,5.5H3C1.6,5.5,0.5,4.4,0.5,3v0c0-1.4,1.1-2.5,2.5-2.5h3V5.5z"/></g>
<g transform="translate(726,132) scale(3.7766666666667)"><rect y="0.5" width="6" height="5"/></g>
<g transform="translate(748,132) scale(3.7766666666667)"><path d="M3,5.5H0v-5h3c1.4,0,2.5,1.1,2.5,2.5v0C5.5,4.4,4.4,5.5,3,5.5z"/></g>
<g transform="translate(220,154) scale(3.7766666666667)"><circle cx="3" cy="3" r="2.5"/></g>
<g transform="translate(264,154) scale(3.7766666666667)"><circle cx="3" cy="3" r="2.5"/></g>
<g transform="translate(308,154) scale(3.7766666666667)"><path d="M6,5.5H3C1.6,5.5,0.5,4.4,0.5,3v0c0-1.4,1.1-2.5,2.5-2.5h3V5.5z"/></g>
<g transform="translate(330,154) scale(3.7766666666667)"><rect y="0.5" width="6" height="5"/></g>
<g transform="translate(352,154) scale(3.7766666666667)"><rect y="0.5" width="6" height="5"/></g>
<g transform="translate(374,154) scale(3.7766666666667)"><path d="M3,5.5H0v-5h3c1.4,0,2.5,1.1,2.5,2.5v0C5.5,4.4,4.4,5.5,3,5.5z"/></g>
<g transform="translate(418,154) scale(3.7766666666667)"><path d="M6,5.5H3C1.6,5.5,0.5,4.4,0.5,3v0c0-1.4,1.1-2.5,2.5-2.5h3V5.5z"/></g>
<g transform="translate(440,154) scale(3.7766666666667)"><rect y="0.5" width="6" height="5"/></g>
<g transform="translate(462,154) scale(3.7766666666667)"><rect y="0.5" width="6" height="5"/></g>
<g transform="translate(484,154) scale(3.7766666666667)"><rect y="0.5" width="6" height="5"/></g>
<g transform="translate(506,154) scale(3.7766666666667)"><path d="M3,5.5H0v-5h3c1.4,0,2.5,1.1,2.5,2.5v0C5.5,4.4,4.4,5.5,3,5.5z"/></g>
<g transform="translate(572,154) scale(3.7766666666667)"><path d="M6,5.5H3C1.6,5.5,0.5,4.4,0.5,3v0c0-1.4,1.1-2.5,2.5-2.5h3V5.5z"/></g>
<g transform="translate(594,154) scale(3.7766666666667)"><rect y="0.5" width="6" height="5"/></g>
<g transform="translate(616,154) scale(3.7766666666667)"><rect y="0.5" width="6" height="5"/></g>
<g transform="translate(638,154) scale(3.7766666666667)"><path d="M3,5.5H0v-5h3c1.4,0,2.5,1.1,2.5,2.5v0C5.5,4.4,4.4,5.5,3,5.5z"/></g>
<g transform="translate(682,154) scale(3.7766666666667)"><path d="M6,5.5H3C1.6,5.5,0.5,4.4,0.5,3v0c0-1.4,1.1-2.5,2.5-2.5h3V5.5z"/></g>
<g transform="translate(704,154) scale(3.7766666666667)"><path d="M3,5.5H0v-5h3c1.4,0,2.5,1.1,2.5,2.5v0C5.5,4.4,4.4,5.5,3,5.5z"/></g>
<g transform="translate(748,154) scale(3.7766666666667)"><circle cx="3" cy="3" r="2.5"/></g>
<g transform="translate(220,176) scale(3.7766666666667)"><circle cx="3" cy="3" r="2.5"/></g>
<g transform="translate(264,176) scale(3.7766666666667)"><circle cx="3" cy="3" r="2.5"/></g>
<g transform="translate(308,176) scale(3.7766666666667)"><circle cx="3" cy="3" r="2.5"/></g>
<g transform="translate(352,176) scale(3.7766666666667)"><circle cx="3" cy="3" r="2.5"/></g>
<g transform="translate(396,176) scale(3.7766666666667)"><circle cx="3" cy="3" r="2.5"/></g>
<g transform="translate(440,176) scale(3.7766666666667)"><circle cx="3" cy="3" r="2.5"/></g>
<g transform="translate(484,176) scale(3.7766666666667)"><circle cx="3" cy="3" r="2.5"/></g>
<g transform="translate(528,176) scale(3.7766666666667)"><circle cx="3" cy="3" r="2.5"/></g>
<g transform="translate(572,176) scale(3.7766666666667)"><circle cx="3" cy="3" r="2.5"/></g>
<g transform="translate(616,176) scale(3.7766666666667)"><circle cx="3" cy="3" r="2.5"/></g>
<g transform="translate(660,176) scale(3.7766666666667)"><circle cx="3" cy="3" r="2.5"/></g>
<g transform="translate(704,176) scale(3.7766666666667)"><circle cx="3" cy="3" r="2.5"/></g>
<g transform="translate(748,176) scale(3.7766666666667)"><circle cx="3" cy="3" r="2.5"/></g>
<g transform="translate(220,198) scale(3.7766666666667)"><path d="M6,5.5H3C1.6,5.5,0.5,4.4,0.5,3v0c0-1.4,1.1-2.5,2.5-2.5h3V5.5z"/></g>
<g transform="translate(242,198) scale(3.7766666666667)"><path d="M3,5.5H0v-5h3c1.4,0,2.5,1.1,2.5,2.5v0C5.5,4.4,4.4,5.5,3,5.5z"/></g>
<g transform="translate(308,198) scale(3.7766666666667)"><circle cx="3" cy="3" r="2.5"/></g>
<g transform="translate(396,198) scale(3.7766666666667)"><path d="M6,5.5H3C1.6,5.5,0.5,4.4,0.5,3v0c0-1.4,1.1-2.5,2.5-2.5h3V5.5z"/></g>
<g transform="translate(418,198) scale(3.7766666666667)"><path d="M3,5.5H0v-5h3c1.4,0,2.5,1.1,2.5,2.5v0C5.5,4.4,4.4,5.5,3,5.5z"/></g>
<g transform="translate(462,198) scale(3.7766666666667)"><path d="M6,5.5H3C1.6,5.5,0.5,4.4,0.5,3v0c0-1.4,1.1-2.5,2.5-2.5h3V5.5z"/></g>
<g transform="translate(484,198) scale(3.7766666666667)"><rect y="0.5" width="6" height="5"/></g>
<g transform="translate(506,198) scale(3.7766666666667)"><rect y="0.5" width="6" height="5"/></g>
<g transform="translate(528,198) scale(3.7766666666667)"><path d="M3,5.5H0v-5h3c1.4,0,2.5,1.1,2.5,2.5v0C5.5,4.4,4.4,5.5,3,5.5z"/></g>
<g transform="translate(726,198) scale(3.7766666666667)"><path d="M6,5.5H3C1.6,5.5,0.5,4.4,0.5,3v0c0-1.4,1.1-2.5,2.5-2.5h3V5.5z"/></g>
<g transform="translate(748,198) scale(3.7766666666667)"><path d="M3,5.5H0v-5h3c1.4,0,2.5,1.1,2.5,2.5v0C5.5,4.4,4.4,5.5,3,5.5z"/></g>
<g transform="translate(88,220) scale(3.7766666666667)"><path d="M6,5.5H3C1.6,5.5,0.5,4.4,0.5,3v0c0-1.4,1.1-2.5,2.5-2.5h3V5.5z"/></g>
<g transform="translate(110,220) scale(3.7766666666667)"><rect y="0.5" width="6" height="5"/></g>
<g transform="translate(132,220) scale(3.7766666666667)"><path d="M3,5.5H0v-5h3c1.4,0,2.5,1.1,2.5,2.5v0C5.5,4.4,4.4,5.5,3,5.5z"/></g>
<g transform="translate(176,220) scale(3.7766666666667)"><circle cx="3" cy="3" r="2.5"/></g>
<g transform="translate(220,220) scale(3.7766666666667)"><path d="M6,5.5H3C1.6,5.5,0.5,4.4,0.5,3v0c0-1.4,1.1-2.5,2.5-2.5h3V5.5z"/></g>
<g transform="translate(242,220) scale(3.7766666666667)"><path d="M3,5.5H0v-5h3c1.4,0,2.5,1.1,2.5,2.5v0C5.5,4.4,4.4,5.5,3,5.5z"/></g>
<g transform="translate(374,220) scale(3.7766666666667)"><path d="M6,5.5H3C1.6,5.5,0.5,4.4,0.5,3v0c0-1.4,1.1-2.5,2.5-2.5h3V5.5z"/></g>
<g transform="translate(396,220) scale(3.7766666666667)"><rect y="0.5" width="6" height="5"/></g>
<g transform="translate(418,220) scale(3.7766666666667)"><rect y="0.5" width="6" height="5"/></g>
<g transform="translate(440,220) scale(3.7766666666667)"><rect y="0.5" width="6" height="5"/></g>
<g transform="translate(462,220) scale(3.7766666666667)"><rect y="0.5" width="6" height="5"/></g>
<g transform="translate(484,220) scale(3.7766666666667)"><rect y="0.5" width="6" height="5"/></g>
<g transform="translate(506,220) scale(3.7766666666667)"><path d="M3,5.5H0v-5h3c1.4,0,2.5,1.1,2.5,2.5v0C5.5,4.4,4.4,5.5,3,5.5z"/></g>
<g transform="translate(550,220) scale(3.7766666666667)"><circle cx="3" cy="3" r="2.5"/></g>
<g transform="translate(594,220) scale(3.7766666666667)"><circle cx="3" cy="3" r="2.5"/></g>
<g transform="translate(638,220) scale(3.7766666666667)"><circle cx="3" cy="3" r="2.5"/></g>
<g transform="translate(682,220) scale(3.7766666666667)"><circle cx="3" cy="3" r="2.5"/></g>
<g transform="translate(748,220) scale(3.7766666666667)"><path d="M6,5.5H3C1.6,5.5,0.5,4.4,0.5,3v0c0-1.4,1.1-2.5,2.5-2.5h3V5.5z"/></g>
<g transform="translate(770,220) scale(3.7766666666667)"><rect y="0.5" width="6" height="5"/></g>
<g transform="translate(792,220) scale(3.7766666666667)"><rect y="0.5" width="6" height="5"/></g>
<g transform="translate(814,220) scale(3.7766666666667)"><path d="M3,5.5H0v-5h3c1.4,0,2.5,1.1,2.5,2.5v0C5.5,4.4,4.4,5.5,3,5.5z"/></g>
<g transform="translate(880,220) scale(3.7766666666667)"><path d="M6,5.5H3C1.6,5.5,0.5,4.4,0.5,3v0c0-1.4,1.1-2.5,2.5-2.5h3V5.5z"/></g>
<g transform="translate(902,220) scale(3.7766666666667)"><rect y="0.5" width="6" height="5"/></g>
<g transform="translate(924,220) scale(3.7766666666667)"><path d="M3,5.5H0v-5h3c1.4,0,2.5,1.1,2.5,2.5v0C5.5,4.4,4.4,5.5,3,5.5z"/></g>
<g transform="translate(44,242) scale(3.7766666666667)"><path d="M6,5.5H3C1.6,5.5,0.5,4.4,0.5,3v0c0-1.4,1.1-2.5,2.5-2.5h3V5.5z"/></g>
<g transform="translate(66,242) scale(3.7766666666667)"><rect y="0.5" width="6" height="5"/></g>
<g transform="translate(88,242) scale(3.7766666666667)"><rect y="0.5" width="6" height="5"/></g>
<g transform="translate(110,242) scale(3.7766666666667)"><path d="M3,5.5H0v-5h3c1.4,0,2.5,1.1,2.5,2.5v0C5.5,4.4,4.4,5.5,3,5.5z"/></g>
<g transform="translate(154,242) scale(3.7766666666667)"><circle cx="3" cy="3" r="2.5"/></g>
<g transform="translate(220,242) scale(3.7766666666667)"><path d="M6,5.5H3C1.6,5.5,0.5,4.4,0.5,3v0c0-1.4,1.1-2.5,2.5-2.5h3V5.5z"/></g>
<g transform="translate(242,242) scale(3.7766666666667)"><path d="M3,5.5H0v-5h3c1.4,0,2.5,1.1,2.5,2.5v0C5.5,4.4,4.4,5.5,3,5.5z"/></g>
<g transform="translate(286,242) scale(3.7766666666667)"><circle cx="3" cy="3" r="2.5"/></g>
<g transform="translate(352,242) scale(3.7766666666667)"><circle cx="3" cy="3" r="2.5"/></g>
<g transform="translate(440,242) scale(3.7766666666667)"><circle cx="3" cy="3" r="2.5"/></g>
<g transform="translate(484,242) scale(3.7766666666667)"><circle cx="3" cy="3" r="2.5"/></g>
<g transform="translate(528,242) scale(3.7766666666667)"><circle cx="3" cy="3" r="2.5"/></g>
<g transform="translate(594,242) scale(3.7766666666667)"><path d="M6,5.5H3C1.6,5.5,0.5,4.4,0.5,3v0c0-1.4,1.1-2.5,2.5-2.5h3V5.5z"/></g>
<g transform="translate(616,242) scale(3.7766666666667)"><path d="M3,5.5H0v-5h3c1.4,0,2.5,1.1,2.5,2.5v0C5.5,4.4,4.4,5.5,3,5.5z"/></g>
<g transform="translate(660,242) scale(3.7766666666667)"><path d="M6,5.5H3C1.6,5.5,0.5,4.4,0.5,3v0c0-1.4,1.1-2.5,2.5-2.5h3V5.5z"/></g>
<g transform="translate(682,242) scale(3.7766666666667)"><path d="M3,5.5H0v-5h3c1.4,0,2.5,1.1,2.5,2.5v0C5.5,4.4,4.4,5.5,3,5.5z"/></g>
<g transform="translate(726,242) scale(3.7766666666667)"><path d="M6,5.5H3C1.6,5.5,0.5,4.4,0.5,3v0c0-1.4,1.1-2.5,2.5-2.5h3V5.5z"/></g>
<g transform="translate(748,242) scale(3.7766666666667)"><rect y="0.5" width="6" height="5"/></g>
<g transform="translate(770,242) scale(3.7766666666667)"><rect y="0.5" width="6" height="5"/></g>
<g transform="translate(792,242) scale(3.7766666666667)"><rect y="0.5" width="6" height="5"/></g>
<g transform="translate(814,242) scale(3.7766666666667)"><rect y="0.5" width="6" height="5"/></g>
<g transform="translate(836,242) scale(3.7766666666667)"><path d="M3,5.5H0v-5h3c1.4,0,2.5,1.1,2.5,2.5v0C5.5,4.4,4.4,5.5,3,5.5z"/></g>
<g transform="translate(880,242) scale(3.7766666666667)"><circle cx="3" cy="3" r="2.5"/></g>
<g transform="translate(924,242) scale(3.7766666666667)"><circle cx="3" cy="3" r="2.5"/></g>
<g transform="translate(66,264) scale(3.7766666666667)"><path d="M6,5.5H3C1.6,5.5,0.5,4.4,0.5,3v0c0-1.4,1.1-2.5,2.5-2.5h3V5.5z"/></g>
<g transform="translate(88,264) scale(3.7766666666667)"><path d="M3,5.5H0v-5h3c1.4,0,2.5,1.1,2.5,2.5v0C5.5,4.4,4.4,5.5,3,5.5z"/></g>
<g transform="translate(176,264) scale(3.7766666666667)"><path d="M6,5.5H3C1.6,5.5,0.5,4.4,0.5,3v0c0-1.4,1.1-2.5,2.5-2.5h3V5.5z"/></g>
<g transform="translate(198,264) scale(3.7766666666667)"><path d="M3,5.5H0v-5h3c1.4,0,2.5,1.1,2.5,2.5v0C5.5,4.4,4.4,5.5,3,5.5z"/></g>
<g transform="translate(242,264) scale(3.7766666666667)"><circle cx="3" cy="3" r="2.5"/></g>
<g transform="translate(308,264) scale(3.7766666666667)"><circle cx="3" cy="3" r="2.5"/></g>
<g transform="translate(374,264) scale(3.7766666666667)"><path d="M6,5.5H3C1.6,5.5,0.5,4.4,0.5,3v0c0-1.4,1.1-2.5,2.5-2.5h3V5.5z"/></g>
<g transform="translate(396,264) scale(3.7766666666667)"><rect y="0.5" width="6" height="5"/></g>
<g transform="translate(418,264) scale(3.7766666666667)"><path d="M3,5.5H0v-5h3c1.4,0,2.5,1.1,2.5,2.5v0C5.5,4.4,4.4,5.5,3,5.5z"/></g>
<g transform="translate(462,264) scale(3.7766666666667)"><path d="M6,5.5H3C1.6,5.5,0.5,4.4,0.5,3v0c0-1.4,1.1-2.5,2.5-2.5h3V5.5z"/></g>
<g transform="translate(484,264) scale(3.7766666666667)"><rect y="0.5" width="6" height="5"/></g>
<g transform="translate(506,264) scale(3.7766666666667)"><rect y="0.5" width="6" height="5"/></g>
<g transform="translate(528,264) scale(3.7766666666667)"><path d="M3,5.5H0v-5h3c1.4,0,2.5,1.1,2.5,2.5v0C5.5,4.4,4.4,5.5,3,5.5z"/></g>
<g transform="translate(572,264) scale(3.7766666666667)"><circle cx="3" cy="3" r="2.5"/></g>
<g transform="translate(616,264) scale(3.7766666666667)"><path d="M6,5.5H3C1.6,5.5,0.5,4.4,0.5,3v0c0-1.4,1.1-2.5,2.5-2.5h3V5.5z"/></g>
<g transform="translate(638,264) scale(3.7766666666667)"><rect y="0.5" width="6" height="5"/></g>
<g transform="translate(660,264) scale(3.7766666666667)"><path d="M3,5.5H0v-5h3c1.4,0,2.5,1.1,2.5,2.5v0C5.5,4.4,4.4,5.5,3,5.5z"/></g>
<g transform="translate(704,264) scale(3.7766666666667)"><circle cx="3" cy="3" r="2.5"/></g>
<g transform="translate(748,264) scale(3.7766666666667)"><circle cx="3" cy="3" r="2.5"/></g>
<g transform="translate(814,264) scale(3.7766666666667)"><path d="M6,5.5H3C1.6,5.5,0.5,4.4,0.5,3v0c0-1.4,1.1-2.5,2.5-2.5h3V5.5z"/></g>
<g transform="translate(836,264) scale(3.7766666666667)"><path d="M3,5.5H0v-5h3c1.4,0,2.5,1.1,2.5,2.5v0C5.5,4.4,4.4,5.5,3,5.5z"/></g>
<g transform="translate(66,286) scale(3.7766666666667)"><circle cx="3" cy="3" r="2.5"/></g>
<g transform="translate(198,286) scale(3.7766666666667)"><circle cx="3" cy="3" r="2.5"/></g>
<g transform="translate(352,286) scale(3.7766666666667)"><path d="M6,5.5H3C1.6,5.5,0.5,4.4,0.5,3v0c0-1.4,1.1-2.5,2.5-2.5h3V5.5z"/></g>
<g transform="translate(374,286) scale(3.7766666666667)"><path d="M3,5.5H0v-5h3c1.4,0,2.5,1.1,2.5,2.5v0C5.5,4.4,4.4,5.5,3,5.5z"/></g>
<g transform="translate(418,286) scale(3.7766666666667)"><path d="M6,5.5H3C1.6,5.5,0.5,4.4,0.5,3v0c0-1.4,1.1-2.5,2.5-2.5h3V5.5z"/></g>
<g transform="translate(440,286) scale(3.7766666666667)"><rect y="0.5" width="6" height="5"/></g>
<g transform="translate(462,286) scale(3.7766666666667)"><path d="M3,5.5H0v-5h3c1.4,0,2.5,1.1,2.5,2.5v0C5.5,4.4,4.4,5.5,3,5.5z"/></g>
<g transform="translate(506,286) scale(3.7766666666667)"><path d="M6,5.5H3C1.6,5.5,0.5,4.4,0.5,3v0c0-1.4,1.1-2.5,2.5-2.5h3V5.5z"/></g>
<g transform="translate(528,286) scale(3.7766666666667)"><path d="M3,5.5H0v-5h3c1.4,0,2.5,1.1,2.5,2.5v0C5.5,4.4,4.4,5.5,3,5.5z"/></g>
<g transform="translate(572,286) scale(3.7766666666667)"><circle cx="3" cy="3" r="2.5"/></g>
<g transform="translate(616,286) scale(3.7766666666667)"><path d="M6,5.5H3C1.6,5.5,0.5,4.4,0.5,3v0c0-1.4,1.1-2.5,2.5-2.5h3V5.5z"/></g>
<g transform="translate(638,286) scale(3.7766666666667)"><path d="M3,5.5H0v-5h3c1.4,0,2.5,1.1,2.5,2.5v0C5.5,4.4,4.4,5.5,3,5.5z"/></g>
<g transform="translate(726,286) scale(3.7766666666667)"><path d="M6,5.5H3C1.6,5.5,0.5,4.4,0.5,3v0c0-1.4,1.1-2.5,2.5-2.5h3V5.5z"/></g>
<g transform="translate(748,286) scale(3.7766666666667)"><path d="M3,5.5H0v-5h3c1.4,0,2.5,1.1,2.5,2.5v0C5.5,4.4,4.4,5.5,3,5.5z"/></g>
<g transform="translate(814,286) scale(3.7766666666667)"><path d="M6,5.5H3C1.6,5.5,0.5,4.4,0.5,3v0c0-1.4,1.1-2.5,2.5-2.5h3V5.5z"/></g>
<g transform="translate(836,286) scale(3.7766666666667)"><rect y="0.5" width="6" height="5"/></g>
<g transform="translate(858,286) scale(3.7766666666667)"><path d="M3,5.5H0v-5h3c1.4,0,2.5,1.1,2.5,2.5v0C5.5,4.4,4.4,5.5,3,5.5z"/></g>
<g transform="translate(44,308) scale(3.7766666666667)"><circle cx="3" cy="3" r="2.5"/></g>
<g transform="translate(88,308) scale(3.7766666666667)"><circle cx="3" cy="3" r="2.5"/></g>
<g transform="translate(154,308) scale(3.7766666666667)"><path d="M6,5.5H3C1.6,5.5,0.5,4.4,0.5,3v0c0-1.4,1.1-2.5,2.5-2.5h3V5.5z"/></g>
<g transform="translate(176,308) scale(3.7766666666667)"><path d="M3,5.5H0v-5h3c1.4,0,2.5,1.1,2.5,2.5v0C5.5,4.4,4.4,5.5,3,5.5z"/></g>
<g transform="translate(242,308) scale(3.7766666666667)"><circle cx="3" cy="3" r="2.5"/></g>
<g transform="translate(308,308) scale(3.7766666666667)"><circle cx="3" cy="3" r="2.5"/></g>
<g transform="translate(352,308) scale(3.7766666666667)"><circle cx="3" cy="3" r="2.5"/></g>
<g transform="translate(506,308) scale(3.7766666666667)"><circle cx="3" cy="3" r="2.5"/></g>
<g transform="translate(572,308) scale(3.7766666666667)"><circle cx="3" cy="3" r="2.5"/></g>
<g transform="translate(616,308) scale(3.7766666666667)"><path d="M6,5.5H3C1.6,5.5,0.5,4.4,0.5,3v0c0-1.4,1.1-2.5,2.5-2.5h3V5.5z"/></g>
<g transform="translate(638,308) scale(3.7766666666667)"><path d="M3,5.5H0v-5h3c1.4,0,2.5,1.1,2.5,2.5v0C5.5,4.4,4.4,5.5,3,5.5z"/></g>
<g transform="translate(682,308) scale(3.7766666666667)"><circle cx="3" cy="3" r="2.5"/></g>
<g transform="translate(726,308) scale(3.7766666666667)"><path d="M6,5.5H3C1.6,5.5,0.5,4.4,0.5,3v0c0-1.4,1.1-2.5,2.5-2.5h3V5.5z"/></g>
<g transform="translate(748,308) scale(3.7766666666667)"><rect y="0.5" width="6" height="5"/></g>
<g transform="translate(770,308) scale(3.7766666666667)"><path d="M3,5.5H0v-5h3c1.4,0,2.5,1.1,2.5,2.5v0C5.5,4.4,4.4,5.5,3,5.5z"/></g>
<g transform="translate(858,308) scale(3.7766666666667)"><path d="M6,5.5H3C1.6,5.5,0.5,4.4,0.5,3v0c0-1.4,1.1-2.5,2.5-2.5h3V5.5z"/></g>
<g transform="translate(880,308) scale(3.7766666666667)"><path d="M3,5.5H0v-5h3c1.4,0,2.5,1.1,2.5,2.5v0C5.5,4.4,4.4,5.5,3,5.5z"/></g>
<g transform="translate(924,308) scale(3.7766666666667)"><circle cx="3" cy="3" r="2.5"/></g>
<g transform="translate(88,330) scale(3.7766666666667)"><path d="M6,5.5H3C1.6,5.5,0.5,4.4,0.5,3v0c0-1.4,1.1-2.5,2.5-2.5h3V5.5z"/></g>
<g transform="translate(110,330) scale(3.7766666666667)"><rect y="0.5" width="6" height="5"/></g>
<g transform="translate(132,330) scale(3.7766666666667)"><rect y="0.5" width="6" height="5"/></g>
<g transform="translate(154,330) scale(3.7766666666667)"><path d="M3,5.5H0v-5h3c1.4,0,2.5,1.1,2.5,2.5v0C5.5,4.4,4.4,5.5,3,5.5z"/></g>
<g transform="translate(198,330) scale(3.7766666666667)"><circle cx="3" cy="3" r="2.5"/></g>
<g transform="translate(396,330) scale(3.7766666666667)"><path d="M6,5.5H3C1.6,5.5,0.5,4.4,0.5,3v0c0-1.4,1.1-2.5,2.5-2.5h3V5.5z"/></g>
<g transform="translate(418,330) scale(3.7766666666667)"><path d="M3,5.5H0v-5h3c1.4,0,2.5,1.1,2.5,2.5v0C5.5,4.4,4.4,5.5,3,5.5z"/></g>
<g transform="translate(484,330) scale(3.7766666666667)"><circle cx="3" cy="3" r="2.5"/></g>
<g transform="translate(528,330) scale(3.7766666666667)"><path d="M6,5.5H3C1.6,5.5,0.5,4.4,0.5,3v0c0-1.4,1.1-2.5,2.5-2.5h3V5.5z"/></g>
<g transform="translate(550,330) scale(3.7766666666667)"><rect y="0.5" width="6" height="5"/></g>
<g transform="translate(572,330) scale(3.7766666666667)"><path d="M3,5.5H0v-5h3c1.4,0,2.5,1.1,2.5,2.5v0C5.5,4.4,4.4,5.5,3,5.5z"/></g>
<g transform="translate(616,330) scale(3.7766666666667)"><path d="M6,5.5H3C1.6,5.5,0.5,4.4,0.5,3v0c0-1.4,1.1-2.5,2.5-2.5h3V5.5z"/></g>
<g transform="translate(638,330) scale(3.7766666666667)"><rect y="0.5" width="6" height="5"/></g>
<g transform="translate(660,330) scale(3.7766666666667)"><path d="M3,5.5H0v-5h3c1.4,0,2.5,1.1,2.5,2.5v0C5.5,4.4,4.4,5.5,3,5.5z"/></g>
<g transform="translate(770,330) scale(3.7766666666667)"><path d="M6,5.5H3C1.6,5.5,0.5,4.4,0.5,3v0c0-1.4,1.1-2.5,2.5-2.5h3V5.5z"/></g>
<g transform="translate(792,330) scale(3.7766666666667)"><rect y="0.5" width="6" height="5"/></g>
<g transform="translate(814,330) scale(3.7766666666667)"><rect y="0.5" width="6" height="5"/></g>
<g transform="translate(836,330) scale(3.7766666666667)"><rect y="0.5" width="6" height="5"/></g>
<g transform="translate(858,330) scale(3.7766666666667)"><path d="M3,5.5H0v-5h3c1.4,0,2.5,1.1,2.5,2.5v0C5.5,4.4,4.4,5.5,3,5.5z"/></g>
<g transform="translate(902,330) scale(3.7766666666667)"><path d="M6,5.5H3C1.6,5.5,0.5,4.4,0.5,3v0c0-1.4,1.1-2.5,2.5-2.5h3V5.5z"/></g>
<g transform="translate(924,330) scale(3.7766666666667)"><path d="M3,5.5H0v-5h3c1.4,0,2.5,1.1,2.5,2.5v0C5.5,4.4,4.4,5.5,3,5.5z"/></g>
<g transform="translate(66,352) scale(3.7766666666667)"><circle cx="3" cy="3" r="2.5"/></g>
<g transform="translate(154,352) scale(3.7766666666667)"><path d="M6,5.5H3C1.6,5.5,0.5,4.4,0.5,3v0c0-1.4,1.1-2.5,2.5-2.5h3V5.5z"/></g>
<g transform="translate(176,352) scale(3.7766666666667)"><rect y="0.5" width="6" height="5"/></g>
<g transform="translate(198,352) scale(3.7766666666667)"><rect y="0.5" width="6" height="5"/></g>
<g transform="translate(220,352) scale(3.7766666666667)"><rect y="0.5" width="6" height="5"/></g>
<g transform="translate(242,352) scale(3.7766666666667)"><path d="M3,5.5H0v-5h3c1.4,0,2.5,1.1,2.5,2.5v0C5.5,4.4,4.4,5.5,3,5.5z"/></g>
<g transform="translate(286,352) scale(3.7766666666667)"><circle cx="3" cy="3" r="2.5"/></g>
<g transform="translate(330,352) scale(3.7766666666667)"><path d="M6,5.5H3C1.6,5.5,0.5,4.4,0.5,3v0c0-1.4,1.1-2.5,2.5-2.5h3V5.5z"/></g>
<g transform="translate(352,352) scale(3.7766666666667)"><rect y="0.5" width="6" height="5"/></g>
<g transform="translate(374,352) scale(3.7766666666667)"><path d="M3,5.5H0v-5h3c1.4,0,2.5,1.1,2.5,2.5v0C5.5,4.4,4.4,5.5,3,5.5z"/></g>
<g transform="translate(418,352) scale(3.7766666666667)"><circle cx="3" cy="3" r="2.5"/></g>
<g transform="translate(484,352) scale(3.7766666666667)"><circle cx="3" cy="3" r="2.5"/></g>
<g transform="translate(572,352) scale(3.7766666666667)"><circle cx="3" cy="3" r="2.5"/></g>
<g transform="translate(616,352) scale(3.7766666666667)"><circle cx="3" cy="3" r="2.5"/></g>
<g transform="translate(748,352) scale(3.7766666666667)"><path d="M6,5.5H3C1.6,5.5,0.5,4.4,0.5,3v0c0-1.4,1.1-2.5,2.5-2.5h3V5.5z"/></g>
<g transform="translate(770,352) scale(3.7766666666667)"><path d="M3,5.5H0v-5h3c1.4,0,2.5,1.1,2.5,2.5v0C5.5,4.4,4.4,5.5,3,5.5z"/></g>
<g transform="translate(814,352) scale(3.7766666666667)"><path d="M6,5.5H3C1.6,5.5,0.5,4.4,0.5,3v0c0-1.4,1.1-2.5,2.5-2.5h3V5.5z"/></g>
<g transform="translate(836,352) scale(3.7766666666667)"><rect y="0.5" width="6" height="5"/></g>
<g transform="translate(858,352) scale(3.7766666666667)"><path d="M3,5.5H0v-5h3c1.4,0,2.5,1.1,2.5,2.5v0C5.5,4.4,4.4,5.5,3,5.5z"/></g>
<g transform="translate(44,374) scale(3.7766666666667)"><circle cx="3" cy="3" r="2.5"/></g>
<g transform="translate(88,374) scale(3.7766666666667)"><circle cx="3" cy="3" r="2.5"/></g>
<g transform="translate(154,374) scale(3.7766666666667)"><circle cx="3" cy="3" r="2.5"/></g>
<g transform="translate(198,374) scale(3.7766666666667)"><path d="M6,5.5H3C1.6,5.5,0.5,4.4,0.5,3v0c0-1.4,1.1-2.5,2.5-2.5h3V5.5z"/></g>
<g transform="translate(220,374) scale(3.7766666666667)"><rect y="0.5" width="6" height="5"/></g>
<g transform="translate(242,374) scale(3.7766666666667)"><rect y="0.5" width="6" height="5"/></g>
<g transform="translate(264,374) scale(3.7766666666667)"><path d="M3,5.5H0v-5h3c1.4,0,2.5,1.1,2.5,2.5v0C5.5,4.4,4.4,5.5,3,5.5z"/></g>
<g transform="translate(440,374) scale(3.7766666666667)"><path d="M6,5.5H3C1.6,5.5,0.5,4.4,0.5,3v0c0-1.4,1.1-2.5,2.5-2.5h3V5.5z"/></g>
<g transform="translate(462,374) scale(3.7766666666667)"><rect y="0.5" width="6" height="5"/></g>
<g transform="translate(484,374) scale(3.7766666666667)"><rect y="0.5" width="6" height="5"/></g>
<g transform="translate(506,374) scale(3.7766666666667)"><rect y="0.5" width="6" height="5"/></g>
<g transform="translate(528,374) scale(3.7766666666667)"><path d="M3,5.5H0v-5h3c1.4,0,2.5,1.1,2.5,2.5v0C5.5,4.4,4.4,5.5,3,5.5z"/></g>
<g transform="translate(572,374) scale(3.7766666666667)"><path d="M6,5.5H3C1.6,5.5,0.5,4.4,0.5,3v0c0-1.4,1.1-2.5,2.5-2.5h3V5.5z"/></g>
<g transform="translate(594,374) scale(3.7766666666667)"><rect y="0.5" width="6" height="5"/></g>
<g transform="translate(616,374) scale(3.7766666666667)"><path d="M3,5.5H0v-5h3c1.4,0,2.5,1.1,2.5,2.5v0C5.5,4.4,4.4,5.5,3,5.5z"/></g>
<g transform="translate(660,374) scale(3.7766666666667)"><circle cx="3" cy="3" r="2.5"/></g>
<g transform="translate(704,374) scale(3.7766666666667)"><circle cx="3" cy="3" r="2.5"/></g>
<g transform="translate(792,374) scale(3.7766666666667)"><circle cx="3" cy="3" r="2.5"/></g>
<g transform="translate(836,374) scale(3.7766666666667)"><path d="M6,5.5H3C1.6,5.5,0.5,4.4,0.5,3v0c0-1.4,1.1-2.5,2.5-2.5h3V5.5z"/></g>
<g transform="translate(858,374) scale(3.7766666666667)"><path d="M3,5.5H0v-5h3c1.4,0,2.5,1.1,2.5,2.5v0C5.5,4.4,4.4,5.5,3,5.5z"/></g>
<g transform="translate(44,396) scale(3.7766666666667)"><circle cx="3" cy="3" r="2.5"/></g>
<g transform="translate(110,396) scale(3.7766666666667)"><path d="M6,5.5H3C1.6,5.5,0.5,4.4,0.5,3v0c0-1.4,1.1-2.5,2.5-2.5h3V5.5z"/></g>
<g transform="translate(132,396) scale(3.7766666666667)"><path d="M3,5.5H0v-5h3c1.4,0,2.5,1.1,2.5,2.5v0C5.5,4.4,4.4,5.5,3,5.5z"/></g>
<g transform="translate(176,396) scale(3.7766666666667)"><path d="M6,5.5H3C1.6,5.5,0.5,4.4,0.5,3v0c0-1.4,1.1-2.5,2.5-2.5h3V5.5z"/></g>
<g transform="translate(198,396) scale(3.7766666666667)"><path d="M3,5.5H0v-5h3c1.4,0,2.5,1.1,2.5,2.5v0C5.5,4.4,4.4,5.5,3,5.5z"/></g>
<g transform="translate(264,396) scale(3.7766666666667)"><path d="M6,5.5H3C1.6,5.5,0.5,4.4,0.5,3v0c0-1.4,1.1-2.5,2.5-2.5h3V5.5z"/></g>
<g transform="translate(286,396) scale(3.7766666666667)"><rect y="0.5" width="6" height="5"/></g>
<g transform="translate(308,396) scale(3.7766666666667)"><rect y="0.5" width="6" height="5"/></g>
<g transform="translate(330,396) scale(3.7766666666667)"><path d="M3,5.5H0v-5h3c1.4,0,2.5,1.1,2.5,2.5v0C5.5,4.4,4.4,5.5,3,5.5z"/></g>
<g transform="translate(374,396) scale(3.7766666666667)"><circle cx="3" cy="3" r="2.5"/></g>
<g transform="translate(440,396) scale(3.7766666666667)"><circle cx="3" cy="3" r="2.5"/></g>
<g transform="translate(506,396) scale(3.7766666666667)"><circle cx="3" cy="3" r="2.5"/></g>
<g transform="translate(572,396) scale(3.7766666666667)"><path d="M6,5.5H3C1.6,5.5,0.5,4.4,0.5,3v0c0-1.4,1.1-2.5,2.5-2.5h3V5.5z"/></g>
<g transform="translate(594,396) scale(3.7766666666667)"><path d="M3,5.5H0v-5h3c1.4,0,2.5,1.1,2.5,2.5v0C5.5,4.4,4.4,5.5,3,5.5z"/></g>
<g transform="translate(682,396) scale(3.7766666666667)"><circle cx="3" cy="3" r="2.5"/></g>
<g transform="translate(770,396) scale(3.7766666666667)"><circle cx="3" cy="3" r="2.5"/></g>
<g transform="translate(814,396) scale(3.7766666666667)"><circle cx="3" cy="3" r="2.5"/></g>
<g transform="translate(858,396) scale(3.7766666666667)"><path d="M6,5.5H3C1.6,5.5,0.5,4.4,0.5,3v0c0-1.4,1.1-2.5,2.5-2.5h3V5.5z"/></g>
<g transform="translate(880,396) scale(3.7766666666667)"><rect y="0.5" width="6" height="5"/></g>
<g transform="translate(902,396) scale(3.7766666666667)"><rect y="0.5" width="6" height="5"/></g>
<g transform="translate(924,396) scale(3.7766666666667)"><path d="M3,5.5H0v-5h3c1.4,0,2.5,1.1,2.5,2.5v0C5.5,4.4,4.4,5.5,3,5.5z"/></g>
<g transform="translate(44,418) scale(3.7766666666667)"><circle cx="3" cy="3" r="2.5"/></g>
<g transform="translate(132,418) scale(3.7766666666667)"><circle cx="3" cy="3" r="2.5"/></g>
<g transform="translate(198,418) scale(3.7766666666667)"><path d="M6,5.5H3C1.6,5.5,0.5,4.4,0.5,3v0c0-1.4,1.1-2.5,2.5-2.5h3V5.5z"/></g>
<g transform="translate(220,418) scale(3.7766666666667)"><path d="M3,5.5H0v-5h3c1.4,0,2.5,1.1,2.5,2.5v0C5.5,4.4,4.4,5.5,3,5.5z"/></g>
<g transform="translate(286,418) scale(3.7766666666667)"><circle cx="3" cy="3" r="2.5"/></g>
<g transform="translate(352,418) scale(3.7766666666667)"><circle cx="3" cy="3" r="2.5"/></g>
<g transform="translate(440,418) scale(3.7766666666667)"><circle cx="3" cy="3" r="2.5"/></g>
<g transform="translate(594,418) scale(3.7766666666667)"><path d="M6,5.5H3C1.6,5.5,0.5,4.4,0.5,3v0c0-1.4,1.1-2.5,2.5-2.5h3V5.5z"/></g>
<g transform="translate(616,418) scale(3.7766666666667)"><path d="M3,5.5H0v-5h3c1.4,0,2.5,1.1,2.5,2.5v0C5.5,4.4,4.4,5.5,3,5.5z"/></g>
<g transform="translate(660,418) scale(3.7766666666667)"><circle cx="3" cy="3" r="2.5"/></g>
<g transform="translate(704,418) scale(3.7766666666667)"><path d="M6,5.5H3C1.6,5.5,0.5,4.4,0.5,3v0c0-1.4,1.1-2.5,2.5-2.5h3V5.5z"/></g>
<g transform="translate(726,418) scale(3.7766666666667)"><path d="M3,5.5H0v-5h3c1.4,0,2.5,1.1,2.5,2.5v0C5.5,4.4,4.4,5.5,3,5.5z"/></g>
<g transform="translate(792,418) scale(3.7766666666667)"><path d="M6,5.5H3C1.6,5.5,0.5,4.4,0.5,3v0c0-1.4,1.1-2.5,2.5-2.5h3V5.5z"/></g>
<g transform="translate(814,418) scale(3.7766666666667)"><rect y="0.5" width="6" height="5"/></g>
<g transform="translate(836,418) scale(3.7766666666667)"><rect y="0.5" width="6" height="5"/></g>
<g transform="translate(858,418) scale(3.7766666666667)"><rect y="0.5" width="6" height="5"/></g>
<g transform="translate(880,418) scale(3.7766666666667)"><rect y="0.5" width="6" height="5"/></g>
<g transform="translate(902,418) scale(3.7766666666667)"><rect y="0.5" width="6" height="5"/></g>
<g transform="translate(924,418) scale(3.7766666666667)"><path d="M3,5.5H0v-5h3c1.4,0,2.5,1.1,2.5,2.5v0C5.5,4.4,4.4,5.5,3,5.5z"/></g>
<g transform="translate(44,440) scale(3.7766666666667)"><circle cx="3" cy="3" r="2.5"/></g>
<g transform="translate(110,440) scale(3.7766666666667)"><circle cx="3" cy="3" r="2.5"/></g>
<g transform="translate(154,440) scale(3.7766666666667)"><path d="M6,5.5H3C1.6,5.5,0.5,4.4,0.5,3v0c0-1.4,1.1-2.5,2.5-2.5h3V5.5z"/></g>
<g transform="translate(176,440) scale(3.7766666666667)"><rect y="0.5" width="6" height="5"/></g>
<g transform="translate(198,440) scale(3.7766666666667)"><rect y="0.5" width="6" height="5"/></g>
<g transform="translate(220,440) scale(3.7766666666667)"><rect y="0.5" width="6" height="5"/></g>
<g transform="translate(242,440) scale(3.7766666666667)"><path d="M3,5.5H0v-5h3c1.4,0,2.5,1.1,2.5,2.5v0C5.5,4.4,4.4,5.5,3,5.5z"/></g>
<g transform="translate(308,440) scale(3.7766666666667)"><path d="M6,5.5H3C1.6,5.5,0.5,4.4,0.5,3v0c0-1.4,1.1-2.5,2.5-2.5h3V5.5z"/></g>
<g transform="translate(330,440) scale(3.7766666666667)"><path d="M3,5.5H0v-5h3c1.4,0,2.5,1.1,2.5,2.5v0C5.5,4.4,4.4,5.5,3,5.5z"/></g>
<g transform="translate(374,440) scale(3.7766666666667)"><circle cx="3" cy="3" r="2.5"/></g>
<g transform="translate(418,440) scale(3.7766666666667)"><circle cx="3" cy="3" r="2.5"/></g>
<g transform="translate(462,440) scale(3.7766666666667)"><path d="M6,5.5H3C1.6,5.5,0.5,4.4,0.5,3v0c0-1.4,1.1-2.5,2.5-2.5h3V5.5z"/></g>
<g transform="translate(484,440) scale(3.7766666666667)"><rect y="0.5" width="6" height="5"/></g>
<g transform="translate(506,440) scale(3.7766666666667)"><path d="M3,5.5H0v-5h3c1.4,0,2.5,1.1,2.5,2.5v0C5.5,4.4,4.4,5.5,3,5.5z"/></g>
<g transform="translate(550,440) scale(3.7766666666667)"><path d="M6,5.5H3C1.6,5.5,0.5,4.4,0.5,3v0c0-1.4,1.1-2.5,2.5-2.5h3V5.5z"/></g>
<g transform="translate(572,440) scale(3.7766666666667)"><rect y="0.5" width="6" height="5"/></g>
<g transform="translate(594,440) scale(3.7766666666667)"><path d="M3,5.5H0v-5h3c1.4,0,2.5,1.1,2.5,2.5v0C5.5,4.4,4.4,5.5,3,5.5z"/></g>
<g transform="translate(638,440) scale(3.7766666666667)"><path d="M6,5.5H3C1.6,5.5,0.5,4.4,0.5,3v0c0-1.4,1.1-2.5,2.5-2.5h3V5.5z"/></g>
<g transform="translate(660,440) scale(3.7766666666667)"><path d="M3,5.5H0v-5h3c1.4,0,2.5,1.1,2.5,2.5v0C5.5,4.4,4.4,5.5,3,5.5z"/></g>
<g transform="translate(704,440) scale(3.7766666666667)"><circle cx="3" cy="3" r="2.5"/></g>
<g transform="translate(748,440) scale(3.7766666666667)"><circle cx="3" cy="3" r="2.5"/></g>
<g transform="translate(792,440) scale(3.7766666666667)"><circle cx="3" cy="3" r="2.5"/></g>
<g transform="translate(836,440) scale(3.7766666666667)"><path d="M6,5.5H3C1.6,5.5,0.5,4.4,0.5,3v0c0-1.4,1.1-2.5,2.5-2.5h3V5.5z"/></g>
<g transform="translate(858,440) scale(3.7766666666667)"><rect y="0.5" width="6" height="5"/></g>
<g transform="translate(880,440) scale(3.7766666666667)"><path d="M3,5.5H0v-5h3c1.4,0,2.5,1.1,2.5,2.5v0C5.5,4.4,4.4,5.5,3,5.5z"/></g>
<g transform="translate(88,462) scale(3.7766666666667)"><circle cx="3" cy="3" r="2.5"/></g>
<g transform="translate(132,462) scale(3.7766666666667)"><path d="M6,5.5H3C1.6,5.5,0.5,4.4,0.5,3v0c0-1.4,1.1-2.5,2.5-2.5h3V5.5z"/></g>
<g transform="translate(154,462) scale(3.7766666666667)"><path d="M3,5.5H0v-5h3c1.4,0,2.5,1.1,2.5,2.5v0C5.5,4.4,4.4,5.5,3,5.5z"/></g>
<g transform="translate(198,462) scale(3.7766666666667)"><path d="M6,5.5H3C1.6,5.5,0.5,4.4,0.5,3v0c0-1.4,1.1-2.5,2.5-2.5h3V5.5z"/></g>
<g transform="translate(220,462) scale(3.7766666666667)"><path d="M3,5.5H0v-5h3c1.4,0,2.5,1.1,2.5,2.5v0C5.5,4.4,4.4,5.5,3,5.5z"/></g>
<g transform="translate(264,462) scale(3.7766666666667)"><path d="M6,5.5H3C1.6,5.5,0.5,4.4,0.5,3v0c0-1.4,1.1-2.5,2.5-2.5h3V5.5z"/></g>
<g transform="translate(286,462) scale(3.7766666666667)"><path d="M3,5.5H0v-5h3c1.4,0,2.5,1.1,2.5,2.5v0C5.5,4.4,4.4,5.5,3,5.5z"/></g>
<g transform="translate(330,462) scale(3.7766666666667)"><circle cx="3" cy="3" r="2.5"/></g>
<g transform="translate(374,462) scale(3.7766666666667)"><circle cx="3" cy="3" r="2.5"/></g>
<g transform="translate(462,462) scale(3.7766666666667)"><circle cx="3" cy="3" r="2.5"/></g>
<g transform="translate(506,462) scale(3.7766666666667)"><circle cx="3" cy="3" r="2.5"/></g>
<g transform="translate(550,462) scale(3.7766666666667)"><circle cx="3" cy="3" r="2.5"/></g>
<g transform="translate(594,462) scale(3.7766666666667)"><circle cx="3" cy="3" r="2.5"/></g>
<g transform="translate(638,462) scale(3.7766666666667)"><circle cx="3" cy="3" r="2.5"/></g>
<g transform="translate(770,462) scale(3.7766666666667)"><path d="M6,5.5H3C1.6,5.5,0.5,4.4,0.5,3v0c0-1.4,1.1-2.5,2.5-2.5h3V5.5z"/></g>
<g transform="translate(792,462) scale(3.7766666666667)"><path d="M3,5.5H0v-5h3c1.4,0,2.5,1.1,2.5,2.5v0C5.5,4.4,4.4,5.5,3,5.5z"/></g>
<g transform="translate(836,462) scale(3.7766666666667)"><circle cx="3" cy="3" r="2.5"/></g>
<g transform="translate(66,484) scale(3.7766666666667)"><circle cx="3" cy="3" r="2.5"/></g>
<g transform="translate(132,484) scale(3.7766666666667)"><path d="M6,5.5H3C1.6,5.5,0.5,4.4,0.5,3v0c0-1.4,1.1-2.5,2.5-2.5h3V5.5z"/></g>
<g transform="translate(154,484) scale(3.7766666666667)"><rect y="0.5" width="6" height="5"/></g>
<g transform="translate(176,484) scale(3.7766666666667)"><path d="M3,5.5H0v-5h3c1.4,0,2.5,1.1,2.5,2.5v0C5.5,4.4,4.4,5.5,3,5.5z"/></g>
<g transform="translate(220,484) scale(3.7766666666667)"><circle cx="3" cy="3" r="2.5"/></g>
<g transform="translate(308,484) scale(3.7766666666667)"><path d="M6,5.5H3C1.6,5.5,0.5,4.4,0.5,3v0c0-1.4,1.1-2.5,2.5-2.5h3V5.5z"/></g>
<g transform="translate(330,484) scale(3.7766666666667)"><rect y="0.5" width="6" height="5"/></g>
<g transform="translate(352,484) scale(3.7766666666667)"><rect y="0.5" width="6" height="5"/></g>
<g transform="translate(374,484) scale(3.7766666666667)"><rect y="0.5" width="6" height="5"/></g>
<g transform="translate(396,484) scale(3.7766666666667)"><path d="M3,5.5H0v-5h3c1.4,0,2.5,1.1,2.5,2.5v0C5.5,4.4,4.4,5.5,3,5.5z"/></g>
<g transform="translate(462,484) scale(3.7766666666667)"><circle cx="3" cy="3" r="2.5"/></g>
<g transform="translate(506,484) scale(3.7766666666667)"><circle cx="3" cy="3" r="2.5"/></g>
<g transform="translate(550,484) scale(3.7766666666667)"><path d="M6,5.5H3C1.6,5.5,0.5,4.4,0.5,3v0c0-1.4,1.1-2.5,2.5-2.5h3V5.5z"/></g>
<g transform="translate(572,484) scale(3.7766666666667)"><path d="M3,5.5H0v-5h3c1.4,0,2.5,1.1,2.5,2.5v0C5.5,4.4,4.4,5.5,3,5.5z"/></g>
<g transform="translate(616,484) scale(3.7766666666667)"><path d="M6,5.5H3C1.6,5.5,0.5,4.4,0.5,3v0c0-1.4,1.1-2.5,2.5-2.5h3V5.5z"/></g>
<g transform="translate(638,484) scale(3.7766666666667)"><path d="M3,5.5H0v-5h3c1.4,0,2.5,1.1,2.5,2.5v0C5.5,4.4,4.4,5.5,3,5.5z"/></g>
<g transform="translate(704,484) scale(3.7766666666667)"><circle cx="3" cy="3" r="2.5"/></g>
<g transform="translate(880,484) scale(3.7766666666667)"><circle cx="3" cy="3" r="2.5"/></g>
<g transform="translate(924,484) scale(3.7766666666667)"><circle cx="3" cy="3" r="2.5"/></g>
<g transform="translate(66,506) scale(3.7766666666667)"><path d="M6,5.5H3C1.6,5.5,0.5,4.4,0.5,3v0c0-1.4,1.1-2.5,2.5-2.5h3V5.5z"/></g>
<g transform="translate(88,506) scale(3.7766666666667)"><path d="M3,5.5H0v-5h3c1.4,0,2.5,1.1,2.5,2.5v0C5.5,4.4,4.4,5.5,3,5.5z"/></g>
<g transform="translate(132,506) scale(3.7766666666667)"><circle cx="3" cy="3" r="2.5"/></g>
<g transform="translate(198,506) scale(3.7766666666667)"><circle cx="3" cy="3" r="2.5"/></g>
<g transform="translate(330,506) scale(3.7766666666667)"><circle cx="3" cy="3" r="2.5"/></g>
<g transform="translate(374,506) scale(3.7766666666667)"><circle cx="3" cy="3" r="2.5"/></g>
<g transform="translate(418,506) scale(3.7766666666667)"><circle cx="3" cy="3" r="2.5"/></g>
<g transform="translate(462,506) scale(3.7766666666667)"><circle cx="3" cy="3" r="2.5"/></g>
<g transform="translate(506,506) scale(3.7766666666667)"><circle cx="3" cy="3" r="2.5"/></g>
<g transform="translate(550,506) scale(3.7766666666667)"><path d="M6,5.5H3C1.6,5.5,0.5,4.4,0.5,3v0c0-1.4,1.1-2.5,2.5-2.5h3V5.5z"/></g>
<g transform="translate(572,506) scale(3.7766666666667)"><path d="M3,5.5H0v-5h3c1.4,0,2.5,1.1,2.5,2.5v0C5.5,4.4,4.4,5.5,3,5.5z"/></g>
<g transform="translate(660,506) scale(3.7766666666667)"><circle cx="3" cy="3" r="2.5"/></g>
<g transform="translate(726,506) scale(3.7766666666667)"><path d="M6,5.5H3C1.6,5.5,0.5,4.4,0.5,3v0c0-1.4,1.1-2.5,2.5-2.5h3V5.5z"/></g>
<g transform="translate(748,506) scale(3.7766666666667)"><path d="M3,5.5H0v-5h3c1.4,0,2.5,1.1,2.5,2.5v0C5.5,4.4,4.4,5.5,3,5.5z"/></g>
<g transform="translate(792,506) scale(3.7766666666667)"><path d="M6,5.5H3C1.6,5.5,0.5,4.4,0.5,3v0c0-1.4,1.1-2.5,2.5-2.5h3V5.5z"/></g>
<g transform="translate(814,506) scale(3.7766666666667)"><rect y="0.5" width="6" height="5"/></g>
<g transform="translate(836,506) scale(3.7766666666667)"><path d="M3,5.5H0v-5h3c1.4,0,2.5,1.1,2.5,2.5v0C5.5,4.4,4.4,5.5,3,5.5z"/></g>
<g transform="translate(902,506) scale(3.7766666666667)"><path d="M6,5.5H3C1.6,5.5,0.5,4.4,0.5,3v0c0-1.4,1.1-2.5,2.5-2.5h3V5.5z"/></g>
<g transform="translate(924,506) scale(3.7766666666667)"><path d="M3,5.5H0v-5h3c1.4,0,2.5,1.1,2.5,2.5v0C5.5,4.4,4.4,5.5,3,5.5z"/></g>
<g transform="translate(44,528) scale(3.7766666666667)"><path d="M6,5.5H3C1.6,5.5,0.5,4.4,0.5,3v0c0-1.4,1.1-2.5,2.5-2.5h3V5.5z"/></g>
<g transform="translate(66,528) scale(3.7766666666667)"><path d="M3,5.5H0v-5h3c1.4,0,2.5,1.1,2.5,2.5v0C5.5,4.4,4.4,5.5,3,5.5z"/></g>
<g transform="translate(110,528) scale(3.7766666666667)"><path d="M6,5.5H3C1.6,5.5,0.5,4.4,0.5,3v0c0-1.4,1.1-2.5,2.5-2.5h3V5.5z"/></g>
<g transform="translate(132,528) scale(3.7766666666667)"><path d="M3,5.5H0v-5h3c1.4,0,2.5,1.1,2.5,2.5v0C5.5,4.4,4.4,5.5,3,5.5z"/></g>
<g transform="translate(176,528) scale(3.7766666666667)"><path d="M6,5.5H3C1.6,5.5,0.5,4.4,0.5,3v0c0-1.4,1.1-2.5,2.5-2.5h3V5.5z"/></g>
<g transform="translate(198,528) scale(3.7766666666667)"><path d="M3,5.5H0v-5h3c1.4,0,2.5,1.1,2.5,2.5v0C5.5,4.4,4.4,5.5,3,5.5z"/></g>
<g transform="translate(242,528) scale(3.7766666666667)"><circle cx="3" cy="3" r="2.5"/></g>
<g transform="translate(330,528) scale(3.7766666666667)"><circle cx="3" cy="3" r="2.5"/></g>
<g transform="translate(462,528) scale(3.7766666666667)"><circle cx="3" cy="3" r="2.5"/></g>
<g transform="translate(506,528) scale(3.7766666666667)"><circle cx="3" cy="3" r="2.5"/></g>
<g transform="translate(572,528) scale(3.7766666666667)"><path d="M6,5.5H3C1.6,5.5,0.5,4.4,0.5,3v0c0-1.4,1.1-2.5,2.5-2.5h3V5.5z"/></g>
<g transform="translate(594,528) scale(3.7766666666667)"><path d="M3,5.5H0v-5h3c1.4,0,2.5,1.1,2.5,2.5v0C5.5,4.4,4.4,5.5,3,5.5z"/></g>
<g transform="translate(638,528) scale(3.7766666666667)"><path d="M6,5.5H3C1.6,5.5,0.5,4.4,0.5,3v0c0-1.4,1.1-2.5,2.5-2.5h3V5.5z"/></g>
<g transform="translate(660,528) scale(3.7766666666667)"><path d="M3,5.5H0v-5h3c1.4,0,2.5,1.1,2.5,2.5v0C5.5,4.4,4.4,5.5,3,5.5z"/></g>
<g transform="translate(792,528) scale(3.7766666666667)"><path d="M6,5.5H3C1.6,5.5,0.5,4.4,0.5,3v0c0-1.4,1.1-2.5,2.5-2.5h3V5.5z"/></g>
<g transform="translate(814,528) scale(3.7766666666667)"><path d="M3,5.5H0v-5h3c1.4,0,2.5,1.1,2.5,2.5v0C5.5,4.4,4.4,5.5,3,5.5z"/></g>
<g transform="translate(44,550) scale(3.7766666666667)"><circle cx="3" cy="3" r="2.5"/></g>
<g transform="translate(132,550) scale(3.7766666666667)"><path d="M6,5.5H3C1.6,5.5,0.5,4.4,0.5,3v0c0-1.4,1.1-2.5,2.5-2.5h3V5.5z"/></g>
<g transform="translate(154,550) scale(3.7766666666667)"><path d="M3,5.5H0v-5h3c1.4,0,2.5,1.1,2.5,2.5v0C5.5,4.4,4.4,5.5,3,5.5z"/></g>
<g transform="translate(220,550) scale(3.7766666666667)"><path d="M6,5.5H3C1.6,5.5,0.5,4.4,0.5,3v0c0-1.4,1.1-2.5,2.5-2.5h3V5.5z"/></g>
<g transform="translate(242,550) scale(3.7766666666667)"><rect y="0.5" width="6" height="5"/></g>
<g transform="translate(264,550) scale(3.7766666666667)"><rect y="0.5" width="6" height="5"/></g>
<g transform="translate(286,550) scale(3.7766666666667)"><path d="M3,5.5H0v-5h3c1.4,0,2.5,1.1,2.5,2.5v0C5.5,4.4,4.4,5.5,3,5.5z"/></g>
<g transform="translate(352,550) scale(3.7766666666667)"><circle cx="3" cy="3" r="2.5"/></g>
<g transform="translate(418,550) scale(3.7766666666667)"><path d="M6,5.5H3C1.6,5.5,0.5,4.4,0.5,3v0c0-1.4,1.1-2.5,2.5-2.5h3V5.5z"/></g>
<g transform="translate(440,550) scale(3.7766666666667)"><path d="M3,5.5H0v-5h3c1.4,0,2.5,1.1,2.5,2.5v0C5.5,4.4,4.4,5.5,3,5.5z"/></g>
<g transform="translate(506,550) scale(3.7766666666667)"><path d="M6,5.5H3C1.6,5.5,0.5,4.4,0.5,3v0c0-1.4,1.1-2.5,2.5-2.5h3V5.5z"/></g>
<g transform="translate(528,550) scale(3.7766666666667)"><rect y="0.5" width="6" height="5"/></g>
<g transform="translate(550,550) scale(3.7766666666667)"><rect y="0.5" width="6" height="5"/></g>
<g transform="translate(572,550) scale(3.7766666666667)"><rect y="0.5" width="6" height="5"/></g>
<g transform="translate(594,550) scale(3.7766666666667)"><path d="M3,5.5H0v-5h3c1.4,0,2.5,1.1,2.5,2.5v0C5.5,4.4,4.4,5.5,3,5.5z"/></g>
<g transform="translate(638,550) scale(3.7766666666667)"><path d="M6,5.5H3C1.6,5.5,0.5,4.4,0.5,3v0c0-1.4,1.1-2.5,2.5-2.5h3V5.5z"/></g>
<g transform="translate(660,550) scale(3.7766666666667)"><path d="M3,5.5H0v-5h3c1.4,0,2.5,1.1,2.5,2.5v0C5.5,4.4,4.4,5.5,3,5.5z"/></g>
<g transform="translate(704,550) scale(3.7766666666667)"><path d="M6,5.5H3C1.6,5.5,0.5,4.4,0.5,3v0c0-1.4,1.1-2.5,2.5-2.5h3V5.5z"/></g>
<g transform="translate(726,550) scale(3.7766666666667)"><rect y="0.5" width="6" height="5"/></g>
<g transform="translate(748,550) scale(3.7766666666667)"><rect y="0.5" width="6" height="5"/></g>
<g transform="translate(770,550) scale(3.7766666666667)"><rect y="0.5" width="6" height="5"/></g>
<g transform="translate(792,550) scale(3.7766666666667)"><rect y="0.5" width="6" height="5"/></g>
<g transform="translate(814,550) scale(3.7766666666667)"><rect y="0.5" width="6" height="5"/></g>
<g transform="translate(836,550) scale(3.7766666666667)"><rect y="0.5" width="6" height="5"/></g>
<g transform="translate(858,550) scale(3.7766666666667)"><path d="M3,5.5H0v-5h3c1.4,0,2.5,1.1,2.5,2.5v0C5.5,4.4,4.4,5.5,3,5.5z"/></g>
<g transform="translate(902,550) scale(3.7766666666667)"><path d="M6,5.5H3C1.6,5.5,0.5,4.4,0.5,3v0c0-1.4,1.1-2.5,2.5-2.5h3V5.5z"/></g>
<g transform="translate(924,550) scale(3.7766666666667)"><path d="M3,5.5H0v-5h3c1.4,0,2.5,1.1,2.5,2.5v0C5.5,4.4,4.4,5.5,3,5.5z"/></g>
<g transform="translate(66,572) scale(3.7766666666667)"><circle cx="3" cy="3" r="2.5"/></g>
<g transform="translate(110,572) scale(3.7766666666667)"><path d="M6,5.5H3C1.6,5.5,0.5,4.4,0.5,3v0c0-1.4,1.1-2.5,2.5-2.5h3V5.5z"/></g>
<g transform="translate(132,572) scale(3.7766666666667)"><path d="M3,5.5H0v-5h3c1.4,0,2.5,1.1,2.5,2.5v0C5.5,4.4,4.4,5.5,3,5.5z"/></g>
<g transform="translate(176,572) scale(3.7766666666667)"><path d="M6,5.5H3C1.6,5.5,0.5,4.4,0.5,3v0c0-1.4,1.1-2.5,2.5-2.5h3V5.5z"/></g>
<g transform="translate(198,572) scale(3.7766666666667)"><path d="M3,5.5H0v-5h3c1.4,0,2.5,1.1,2.5,2.5v0C5.5,4.4,4.4,5.5,3,5.5z"/></g>
<g transform="translate(352,572) scale(3.7766666666667)"><circle cx="3" cy="3" r="2.5"/></g>
<g transform="translate(396,572) scale(3.7766666666667)"><path d="M6,5.5H3C1.6,5.5,0.5,4.4,0.5,3v0c0-1.4,1.1-2.5,2.5-2.5h3V5.5z"/></g>
<g transform="translate(418,572) scale(3.7766666666667)"><path d="M3,5.5H0v-5h3c1.4,0,2.5,1.1,2.5,2.5v0C5.5,4.4,4.4,5.5,3,5.5z"/></g>
<g transform="translate(462,572) scale(3.7766666666667)"><circle cx="3" cy="3" r="2.5"/></g>
<g transform="translate(528,572) scale(3.7766666666667)"><circle cx="3" cy="3" r="2.5"/></g>
<g transform="translate(572,572) scale(3.7766666666667)"><path d="M6,5.5H3C1.6,5.5,0.5,4.4,0.5,3v0c0-1.4,1.1-2.5,2.5-2.5h3V5.5z"/></g>
<g transform="translate(594,572) scale(3.7766666666667)"><rect y="0.5" width="6" height="5"/></g>
<g transform="translate(616,572) scale(3.7766666666667)"><rect y="0.5" width="6" height="5"/></g>
<g transform="translate(638,572) scale(3.7766666666667)"><path d="M3,5.5H0v-5h3c1.4,0,2.5,1.1,2.5,2.5v0C5.5,4.4,4.4,5.5,3,5.5z"/></g>
<g transform="translate(682,572) scale(3.7766666666667)"><circle cx="3" cy="3" r="2.5"/></g>
<g transform="translate(726,572) scale(3.7766666666667)"><circle cx="3" cy="3" r="2.5"/></g>
<g transform="translate(814,572) scale(3.7766666666667)"><circle cx="3" cy="3" r="2.5"/></g>
<g transform="translate(880,572) scale(3.7766666666667)"><path d="M6,5.5H3C1.6,5.5,0.5,4.4,0.5,3v0c0-1.4,1.1-2.5,2.5-2.5h3V5.5z"/></g>
<g transform="translate(902,572) scale(3.7766666666667)"><path d="M3,5.5H0v-5h3c1.4,0,2.5,1.1,2.5,2.5v0C5.5,4.4,4.4,5.5,3,5.5z"/></g>
<g transform="translate(66,594) scale(3.7766666666667)"><path d="M6,5.5H3C1.6,5.5,0.5,4.4,0.5,3v0c0-1.4,1.1-2.5,2.5-2.5h3V5.5z"/></g>
<g transform="translate(88,594) scale(3.7766666666667)"><rect y="0.5" width="6" height="5"/></g>
<g transform="translate(110,594) scale(3.7766666666667)"><rect y="0.5" width="6" height="5"/></g>
<g transform="translate(132,594) scale(3.7766666666667)"><rect y="0.5" width="6" height="5"/></g>
<g transform="translate(154,594) scale(3.7766666666667)"><path d="M3,5.5H0v-5h3c1.4,0,2.5,1.1,2.5,2.5v0C5.5,4.4,4.4,5.5,3,5.5z"/></g>
<g transform="translate(198,594) scale(3.7766666666667)"><circle cx="3" cy="3" r="2.5"/></g>
<g transform="translate(264,594) scale(3.7766666666667)"><path d="M6,5.5H3C1.6,5.5,0.5,4.4,0.5,3v0c0-1.4,1.1-2.5,2.5-2.5h3V5.5z"/></g>
<g transform="translate(286,594) scale(3.7766666666667)"><path d="M3,5.5H0v-5h3c1.4,0,2.5,1.1,2.5,2.5v0C5.5,4.4,4.4,5.5,3,5.5z"/></g>
<g transform="translate(396,594) scale(3.7766666666667)"><path d="M6,5.5H3C1.6,5.5,0.5,4.4,0.5,3v0c0-1.4,1.1-2.5,2.5-2.5h3V5.5z"/></g>
<g transform="translate(418,594) scale(3.7766666666667)"><path d="M3,5.5H0v-5h3c1.4,0,2.5,1.1,2.5,2.5v0C5.5,4.4,4.4,5.5,3,5.5z"/></g>
<g transform="translate(484,594) scale(3.7766666666667)"><path d="M6,5.5H3C1.6,5.5,0.5,4.4,0.5,3v0c0-1.4,1.1-2.5,2.5-2.5h3V5.5z"/></g>
<g transform="translate(506,594) scale(3.7766666666667)"><rect y="0.5" width="6" height="5"/></g>
<g transform="translate(528,594) scale(3.7766666666667)"><rect y="0.5" width="6" height="5"/></g>
<g transform="translate(550,594) scale(3.7766666666667)"><path d="M3,5.5H0v-5h3c1.4,0,2.5,1.1,2.5,2.5v0C5.5,4.4,4.4,5.5,3,5.5z"/></g>
<g transform="translate(594,594) scale(3.7766666666667)"><circle cx="3" cy="3" r="2.5"/></g>
<g transform="translate(660,594) scale(3.7766666666667)"><circle cx="3" cy="3" r="2.5"/></g>
<g transform="translate(704,594) scale(3.7766666666667)"><path d="M6,5.5H3C1.6,5.5,0.5,4.4,0.5,3v0c0-1.4,1.1-2.5,2.5-2.5h3V5.5z"/></g>
<g transform="translate(726,594) scale(3.7766666666667)"><path d="M3,5.5H0v-5h3c1.4,0,2.5,1.1,2.5,2.5v0C5.5,4.4,4.4,5.5,3,5.5z"/></g>
<g transform="translate(770,594) scale(3.7766666666667)"><path d="M6,5.5H3C1.6,5.5,0.5,4.4,0.5,3v0c0-1.4,1.1-2.5,2.5-2.5h3V5.5z"/></g>
<g transform="translate(792,594) scale(3.7766666666667)"><rect y="0.5" width="6" height="5"/></g>
<g transform="translate(814,594) scale(3.7766666666667)"><rect y="0.5" width="6" height="5"/></g>
<g transform="translate(836,594) scale(3.7766666666667)"><rect y="0.5" width="6" height="5"/></g>
<g transform="translate(858,594) scale(3.7766666666667)"><path d="M3,5.5H0v-5h3c1.4,0,2.5,1.1,2.5,2.5v0C5.5,4.4,4.4,5.5,3,5.5z"/></g>
<g transform="translate(902,594) scale(3.7766666666667)"><path d="M6,5.5H3C1.6,5.5,0.5,4.4,0.5,3v0c0-1.4,1.1-2.5,2.5-2.5h3V5.5z"/></g>
<g transform="translate(924,594) scale(3.7766666666667)"><path d="M3,5.5H0v-5h3c1.4,0,2.5,1.1,2.5,2.5v0C5.5,4.4,4.4,5.5,3,5.5z"/></g>
<g transform="translate(44,616) scale(3.7766666666667)"><path d="M6,5.5H3C1.6,5.5,0.5,4.4,0.5,3v0c0-1.4,1.1-2.5,2.5-2.5h3V5.5z"/></g>
<g transform="translate(66,616) scale(3.7766666666667)"><rect y="0.5" width="6" height="5"/></g>
<g transform="translate(88,616) scale(3.7766666666667)"><rect y="0.5" width="6" height="5"/></g>
<g transform="translate(110,616) scale(3.7766666666667)"><path d="M3,5.5H0v-5h3c1.4,0,2.5,1.1,2.5,2.5v0C5.5,4.4,4.4,5.5,3,5.5z"/></g>
<g transform="translate(176,616) scale(3.7766666666667)"><path d="M6,5.5H3C1.6,5.5,0.5,4.4,0.5,3v0c0-1.4,1.1-2.5,2.5-2.5h3V5.5z"/></g>
<g transform="translate(198,616) scale(3.7766666666667)"><rect y="0.5" width="6" height="5"/></g>
<g transform="translate(220,616) scale(3.7766666666667)"><rect y="0.5" width="6" height="5"/></g>
<g transform="translate(242,616) scale(3.7766666666667)"><path d="M3,5.5H0v-5h3c1.4,0,2.5,1.1,2.5,2.5v0C5.5,4.4,4.4,5.5,3,5.5z"/></g>
<g transform="translate(286,616) scale(3.7766666666667)"><circle cx="3" cy="3" r="2.5"/></g>
<g transform="translate(330,616) scale(3.7766666666667)"><circle cx="3" cy="3" r="2.5"/></g>
<g transform="translate(374,616) scale(3.7766666666667)"><path d="M6,5.5H3C1.6,5.5,0.5,4.4,0.5,3v0c0-1.4,1.1-2.5,2.5-2.5h3V5.5z"/></g>
<g transform="translate(396,616) scale(3.7766666666667)"><path d="M3,5.5H0v-5h3c1.4,0,2.5,1.1,2.5,2.5v0C5.5,4.4,4.4,5.5,3,5.5z"/></g>
<g transform="translate(440,616) scale(3.7766666666667)"><path d="M6,5.5H3C1.6,5.5,0.5,4.4,0.5,3v0c0-1.4,1.1-2.5,2.5-2.5h3V5.5z"/></g>
<g transform="translate(462,616) scale(3.7766666666667)"><rect y="0.5" width="6" height="5"/></g>
<g transform="translate(484,616) scale(3.7766666666667)"><path d="M3,5.5H0v-5h3c1.4,0,2.5,1.1,2.5,2.5v0C5.5,4.4,4.4,5.5,3,5.5z"/></g>
<g transform="translate(638,616) scale(3.7766666666667)"><circle cx="3" cy="3" r="2.5"/></g>
<g transform="translate(748,616) scale(3.7766666666667)"><circle cx="3" cy="3" r="2.5"/></g>
<g transform="translate(792,616) scale(3.7766666666667)"><circle cx="3" cy="3" r="2.5"/></g>
<g transform="translate(902,616) scale(3.7766666666667)"><circle cx="3" cy="3" r="2.5"/></g>
<g transform="translate(66,638) scale(3.7766666666667)"><circle cx="3" cy="3" r="2.5"/></g>
<g transform="translate(110,638) scale(3.7766666666667)"><path d="M6,5.5H3C1.6,5.5,0.5,4.4,0.5,3v0c0-1.4,1.1-2.5,2.5-2.5h3V5.5z"/></g>
<g transform="translate(132,638) scale(3.7766666666667)"><rect y="0.5" width="6" height="5"/></g>
<g transform="translate(154,638) scale(3.7766666666667)"><path d="M3,5.5H0v-5h3c1.4,0,2.5,1.1,2.5,2.5v0C5.5,4.4,4.4,5.5,3,5.5z"/></g>
<g transform="translate(308,638) scale(3.7766666666667)"><path d="M6,5.5H3C1.6,5.5,0.5,4.4,0.5,3v0c0-1.4,1.1-2.5,2.5-2.5h3V5.5z"/></g>
<g transform="translate(330,638) scale(3.7766666666667)"><path d="M3,5.5H0v-5h3c1.4,0,2.5,1.1,2.5,2.5v0C5.5,4.4,4.4,5.5,3,5.5z"/></g>
<g transform="translate(374,638) scale(3.7766666666667)"><circle cx="3" cy="3" r="2.5"/></g>
<g transform="translate(440,638) scale(3.7766666666667)"><path d="M6,5.5H3C1.6,5.5,0.5,4.4,0.5,3v0c0-1.4,1.1-2.5,2.5-2.5h3V5.5z"/></g>
<g transform="translate(462,638) scale(3.7766666666667)"><path d="M3,5.5H0v-5h3c1.4,0,2.5,1.1,2.5,2.5v0C5.5,4.4,4.4,5.5,3,5.5z"/></g>
<g transform="translate(550,638) scale(3.7766666666667)"><circle cx="3" cy="3" r="2.5"/></g>
<g transform="translate(616,638) scale(3.7766666666667)"><circle cx="3" cy="3" r="2.5"/></g>
<g transform="translate(660,638) scale(3.7766666666667)"><circle cx="3" cy="3" r="2.5"/></g>
<g transform="translate(704,638) scale(3.7766666666667)"><path d="M6,5.5H3C1.6,5.5,0.5,4.4,0.5,3v0c0-1.4,1.1-2.5,2.5-2.5h3V5.5z"/></g>
<g transform="translate(726,638) scale(3.7766666666667)"><rect y="0.5" width="6" height="5"/></g>
<g transform="translate(748,638) scale(3.7766666666667)"><path d="M3,5.5H0v-5h3c1.4,0,2.5,1.1,2.5,2.5v0C5.5,4.4,4.4,5.5,3,5.5z"/></g>
<g transform="translate(792,638) scale(3.7766666666667)"><path d="M6,5.5H3C1.6,5.5,0.5,4.4,0.5,3v0c0-1.4,1.1-2.5,2.5-2.5h3V5.5z"/></g>
<g transform="translate(814,638) scale(3.7766666666667)"><rect y="0.5" width="6" height="5"/></g>
<g transform="translate(836,638) scale(3.7766666666667)"><rect y="0.5" width="6" height="5"/></g>
<g transform="translate(858,638) scale(3.7766666666667)"><path d="M3,5.5H0v-5h3c1.4,0,2.5,1.1,2.5,2.5v0C5.5,4.4,4.4,5.5,3,5.5z"/></g>
<g transform="translate(902,638) scale(3.7766666666667)"><circle cx="3" cy="3" r="2.5"/></g>
<g transform="translate(44,660) scale(3.7766666666667)"><path d="M6,5.5H3C1.6,5.5,0.5,4.4,0.5,3v0c0-1.4,1.1-2.5,2.5-2.5h3V5.5z"/></g>
<g transform="translate(66,660) scale(3.7766666666667)"><path d="M3,5.5H0v-5h3c1.4,0,2.5,1.1,2.5,2.5v0C5.5,4.4,4.4,5.5,3,5.5z"/></g>
<g transform="translate(154,660) scale(3.7766666666667)"><path d="M6,5.5H3C1.6,5.5,0.5,4.4,0.5,3v0c0-1.4,1.1-2.5,2.5-2.5h3V5.5z"/></g>
<g transform="translate(176,660) scale(3.7766666666667)"><path d="M3,5.5H0v-5h3c1.4,0,2.5,1.1,2.5,2.5v0C5.5,4.4,4.4,5.5,3,5.5z"/></g>
<g transform="translate(242,660) scale(3.7766666666667)"><path d="M6,5.5H3C1.6,5.5,0.5,4.4,0.5,3v0c0-1.4,1.1-2.5,2.5-2.5h3V5.5z"/></g>
<g transform="translate(264,660) scale(3.7766666666667)"><path d="M3,5.5H0v-5h3c1.4,0,2.5,1.1,2.5,2.5v0C5.5,4.4,4.4,5.5,3,5.5z"/></g>
<g transform="translate(330,660) scale(3.7766666666667)"><circle cx="3" cy="3" r="2.5"/></g>
<g transform="translate(374,660) scale(3.7766666666667)"><circle cx="3" cy="3" r="2.5"/></g>
<g transform="translate(418,660) scale(3.7766666666667)"><circle cx="3" cy="3" r="2.5"/></g>
<g transform="translate(506,660) scale(3.7766666666667)"><circle cx="3" cy="3" r="2.5"/></g>
<g transform="translate(550,660) scale(3.7766666666667)"><path d="M6,5.5H3C1.6,5.5,0.5,4.4,0.5,3v0c0-1.4,1.1-2.5,2.5-2.5h3V5.5z"/></g>
<g transform="translate(572,660) scale(3.7766666666667)"><path d="M3,5.5H0v-5h3c1.4,0,2.5,1.1,2.5,2.5v0C5.5,4.4,4.4,5.5,3,5.5z"/></g>
<g transform="translate(616,660) scale(3.7766666666667)"><path d="M6,5.5H3C1.6,5.5,0.5,4.4,0.5,3v0c0-1.4,1.1-2.5,2.5-2.5h3V5.5z"/></g>
<g transform="translate(638,660) scale(3.7766666666667)"><rect y="0.5" width="6" height="5"/></g>
<g transform="translate(660,660) scale(3.7766666666667)"><rect y="0.5" width="6" height="5"/></g>
<g transform="translate(682,660) scale(3.7766666666667)"><path d="M3,5.5H0v-5h3c1.4,0,2.5,1.1,2.5,2.5v0C5.5,4.4,4.4,5.5,3,5.5z"/></g>
<g transform="translate(726,660) scale(3.7766666666667)"><circle cx="3" cy="3" r="2.5"/></g>
<g transform="translate(770,660) scale(3.7766666666667)"><circle cx="3" cy="3" r="2.5"/></g>
<g transform="translate(858,660) scale(3.7766666666667)"><path d="M6,5.5H3C1.6,5.5,0.5,4.4,0.5,3v0c0-1.4,1.1-2.5,2.5-2.5h3V5.5z"/></g>
<g transform="translate(880,660) scale(3.7766666666667)"><path d="M3,5.5H0v-5h3c1.4,0,2.5,1.1,2.5,2.5v0C5.5,4.4,4.4,5.5,3,5.5z"/></g>
<g transform="translate(924,660) scale(3.7766666666667)"><circle cx="3" cy="3" r="2.5"/></g>
<g transform="translate(44,682) scale(3.7766666666667)"><path d="M6,5.5H3C1.6,5.5,0.5,4.4,0.5,3v0c0-1.4,1.1-2.5,2.5-2.5h3V5.5z"/></g>
<g transform="translate(66,682) scale(3.7766666666667)"><path d="M3,5.5H0v-5h3c1.4,0,2.5,1.1,2.5,2.5v0C5.5,4.4,4.4,5.5,3,5.5z"/></g>
<g transform="translate(154,682) scale(3.7766666666667)"><circle cx="3" cy="3" r="2.5"/></g>
<g transform="translate(198,682) scale(3.7766666666667)"><circle cx="3" cy="3" r="2.5"/></g>
<g transform="translate(264,682) scale(3.7766666666667)"><circle cx="3" cy="3" r="2.5"/></g>
<g transform="translate(330,682) scale(3.7766666666667)"><path d="M6,5.5H3C1.6,5.5,0.5,4.4,0.5,3v0c0-1.4,1.1-2.5,2.5-2.5h3V5.5z"/></g>
<g transform="translate(352,682) scale(3.7766666666667)"><path d="M3,5.5H0v-5h3c1.4,0,2.5,1.1,2.5,2.5v0C5.5,4.4,4.4,5.5,3,5.5z"/></g>
<g transform="translate(396,682) scale(3.7766666666667)"><circle cx="3" cy="3" r="2.5"/></g>
<g transform="translate(462,682) scale(3.7766666666667)"><path d="M6,5.5H3C1.6,5.5,0.5,4.4,0.5,3v0c0-1.4,1.1-2.5,2.5-2.5h3V5.5z"/></g>
<g transform="translate(484,682) scale(3.7766666666667)"><path d="M3,5.5H0v-5h3c1.4,0,2.5,1.1,2.5,2.5v0C5.5,4.4,4.4,5.5,3,5.5z"/></g>
<g transform="translate(528,682) scale(3.7766666666667)"><path d="M6,5.5H3C1.6,5.5,0.5,4.4,0.5,3v0c0-1.4,1.1-2.5,2.5-2.5h3V5.5z"/></g>
<g transform="translate(550,682) scale(3.7766666666667)"><path d="M3,5.5H0v-5h3c1.4,0,2.5,1.1,2.5,2.5v0C5.5,4.4,4.4,5.5,3,5.5z"/></g>
<g transform="translate(594,682) scale(3.7766666666667)"><path d="M6,5.5H3C1.6,5.5,0.5,4.4,0.5,3v0c0-1.4,1.1-2.5,2.5-2.5h3V5.5z"/></g>
<g transform="translate(616,682) scale(3.7766666666667)"><rect y="0.5" width="6" height="5"/></g>
<g transform="translate(638,682) scale(3.7766666666667)"><path d="M3,5.5H0v-5h3c1.4,0,2.5,1.1,2.5,2.5v0C5.5,4.4,4.4,5.5,3,5.5z"/></g>
<g transform="translate(704,682) scale(3.7766666666667)"><circle cx="3" cy="3" r="2.5"/></g>
<g transform="translate(748,682) scale(3.7766666666667)"><path d="M6,5.5H3C1.6,5.5,0.5,4.4,0.5,3v0c0-1.4,1.1-2.5,2.5-2.5h3V5.5z"/></g>
<g transform="translate(770,682) scale(3.7766666666667)"><path d="M3,5.5H0v-5h3c1.4,0,2.5,1.1,2.5,2.5v0C5.5,4.4,4.4,5.5,3,5.5z"/></g>
<g transform="translate(814,682) scale(3.7766666666667)"><path d="M6,5.5H3C1.6,5.5,0.5,4.4,0.5,3v0c0-1.4,1.1-2.5,2.5-2.5h3V5.5z"/></g>
<g transform="translate(836,682) scale(3.7766666666667)"><path d="M3,5.5H0v-5h3c1.4,0,2.5,1.1,2.5,2.5v0C5.5,4.4,4.4,5.5,3,5.5z"/></g>
<g transform="translate(902,682) scale(3.7766666666667)"><path d="M6,5.5H3C1.6,5.5,0.5,4.4,0.5,3v0c0-1.4,1.1-2.5,2.5-2.5h3V5.5z"/></g>
<g transform="translate(924,682) scale(3.7766666666667)"><path d="M3,5.5H0v-5h3c1.4,0,2.5,1.1,2.5,2.5v0C5.5,4.4,4.4,5.5,3,5.5z"/></g>
<g transform="translate(44,704) scale(3.7766666666667)"><circle cx="3" cy="3" r="2.5"/></g>
<g transform="translate(154,704) scale(3.7766666666667)"><path d="M6,5.5H3C1.6,5.5,0.5,4.4,0.5,3v0c0-1.4,1.1-2.5,2.5-2.5h3V5.5z"/></g>
<g transform="translate(176,704) scale(3.7766666666667)"><path d="M3,5.5H0v-5h3c1.4,0,2.5,1.1,2.5,2.5v0C5.5,4.4,4.4,5.5,3,5.5z"/></g>
<g transform="translate(220,704) scale(3.7766666666667)"><circle cx="3" cy="3" r="2.5"/></g>
<g transform="translate(286,704) scale(3.7766666666667)"><path d="M6,5.5H3C1.6,5.5,0.5,4.4,0.5,3v0c0-1.4,1.1-2.5,2.5-2.5h3V5.5z"/></g>
<g transform="translate(308,704) scale(3.7766666666667)"><rect y="0.5" width="6" height="5"/></g>
<g transform="translate(330,704) scale(3.7766666666667)"><rect y="0.5" width="6" height="5"/></g>
<g transform="translate(352,704) scale(3.7766666666667)"><rect y="0.5" width="6" height="5"/></g>
<g transform="translate(374,704) scale(3.7766666666667)"><path d="M3,5.5H0v-5h3c1.4,0,2.5,1.1,2.5,2.5v0C5.5,4.4,4.4,5.5,3,5.5z"/></g>
<g transform="translate(418,704) scale(3.7766666666667)"><circle cx="3" cy="3" r="2.5"/></g>
<g transform="translate(462,704) scale(3.7766666666667)"><path d="M6,5.5H3C1.6,5.5,0.5,4.4,0.5,3v0c0-1.4,1.1-2.5,2.5-2.5h3V5.5z"/></g>
<g transform="translate(484,704) scale(3.7766666666667)"><rect y="0.5" width="6" height="5"/></g>
<g transform="translate(506,704) scale(3.7766666666667)"><rect y="0.5" width="6" height="5"/></g>
<g transform="translate(528,704) scale(3.7766666666667)"><path d="M3,5.5H0v-5h3c1.4,0,2.5,1.1,2.5,2.5v0C5.5,4.4,4.4,5.5,3,5.5z"/></g>
<g transform="translate(594,704) scale(3.7766666666667)"><circle cx="3" cy="3" r="2.5"/></g>
<g transform="translate(638,704) scale(3.7766666666667)"><path d="M6,5.5H3C1.6,5.5,0.5,4.4,0.5,3v0c0-1.4,1.1-2.5,2.5-2.5h3V5.5z"/></g>
<g transform="translate(660,704) scale(3.7766666666667)"><path d="M3,5.5H0v-5h3c1.4,0,2.5,1.1,2.5,2.5v0C5.5,4.4,4.4,5.5,3,5.5z"/></g>
<g transform="translate(726,704) scale(3.7766666666667)"><circle cx="3" cy="3" r="2.5"/></g>
<g transform="translate(770,704) scale(3.7766666666667)"><path d="M6,5.5H3C1.6,5.5,0.5,4.4,0.5,3v0c0-1.4,1.1-2.5,2.5-2.5h3V5.5z"/></g>
<g transform="translate(792,704) scale(3.7766666666667)"><path d="M3,5.5H0v-5h3c1.4,0,2.5,1.1,2.5,2.5v0C5.5,4.4,4.4,5.5,3,5.5z"/></g>
<g transform="translate(836,704) scale(3.7766666666667)"><path d="M6,5.5H3C1.6,5.5,0.5,4.4,0.5,3v0c0-1.4,1.1-2.5,2.5-2.5h3V5.5z"/></g>
<g transform="translate(858,704) scale(3.7766666666667)"><rect y="0.5" width="6" height="5"/></g>
<g transform="translate(880,704) scale(3.7766666666667)"><path d="M3,5.5H0v-5h3c1.4,0,2.5,1.1,2.5,2.5v0C5.5,4.4,4.4,5.5,3,5.5z"/></g>
<g transform="translate(44,726) scale(3.7766666666667)"><circle cx="3" cy="3" r="2.5"/></g>
<g transform="translate(88,726) scale(3.7766666666667)"><circle cx="3" cy="3" r="2.5"/></g>
<g transform="translate(132,726) scale(3.7766666666667)"><path d="M6,5.5H3C1.6,5.5,0.5,4.4,0.5,3v0c0-1.4,1.1-2.5,2.5-2.5h3V5.5z"/></g>
<g transform="translate(154,726) scale(3.7766666666667)"><path d="M3,5.5H0v-5h3c1.4,0,2.5,1.1,2.5,2.5v0C5.5,4.4,4.4,5.5,3,5.5z"/></g>
<g transform="translate(198,726) scale(3.7766666666667)"><path d="M6,5.5H3C1.6,5.5,0.5,4.4,0.5,3v0c0-1.4,1.1-2.5,2.5-2.5h3V5.5z"/></g>
<g transform="translate(220,726) scale(3.7766666666667)"><rect y="0.5" width="6" height="5"/></g>
<g transform="translate(242,726) scale(3.7766666666667)"><path d="M3,5.5H0v-5h3c1.4,0,2.5,1.1,2.5,2.5v0C5.5,4.4,4.4,5.5,3,5.5z"/></g>
<g transform="translate(286,726) scale(3.7766666666667)"><path d="M6,5.5H3C1.6,5.5,0.5,4.4,0.5,3v0c0-1.4,1.1-2.5,2.5-2.5h3V5.5z"/></g>
<g transform="translate(308,726) scale(3.7766666666667)"><path d="M3,5.5H0v-5h3c1.4,0,2.5,1.1,2.5,2.5v0C5.5,4.4,4.4,5.5,3,5.5z"/></g>
<g transform="translate(352,726) scale(3.7766666666667)"><path d="M6,5.5H3C1.6,5.5,0.5,4.4,0.5,3v0c0-1.4,1.1-2.5,2.5-2.5h3V5.5z"/></g>
<g transform="translate(374,726) scale(3.7766666666667)"><path d="M3,5.5H0v-5h3c1.4,0,2.5,1.1,2.5,2.5v0C5.5,4.4,4.4,5.5,3,5.5z"/></g>
<g transform="translate(418,726) scale(3.7766666666667)"><circle cx="3" cy="3" r="2.5"/></g>
<g transform="translate(506,726) scale(3.7766666666667)"><path d="M6,5.5H3C1.6,5.5,0.5,4.4,0.5,3v0c0-1.4,1.1-2.5,2.5-2.5h3V5.5z"/></g>
<g transform="translate(528,726) scale(3.7766666666667)"><rect y="0.5" width="6" height="5"/></g>
<g transform="translate(550,726) scale(3.7766666666667)"><path d="M3,5.5H0v-5h3c1.4,0,2.5,1.1,2.5,2.5v0C5.5,4.4,4.4,5.5,3,5.5z"/></g>
<g transform="translate(638,726) scale(3.7766666666667)"><circle cx="3" cy="3" r="2.5"/></g>
<g transform="translate(726,726) scale(3.7766666666667)"><path d="M6,5.5H3C1.6,5.5,0.5,4.4,0.5,3v0c0-1.4,1.1-2.5,2.5-2.5h3V5.5z"/></g>
<g transform="translate(748,726) scale(3.7766666666667)"><rect y="0.5" width="6" height="5"/></g>
<g transform="translate(770,726) scale(3.7766666666667)"><rect y="0.5" width="6" height="5"/></g>
<g transform="translate(792,726) scale(3.7766666666667)"><path d="M3,5.5H0v-5h3c1.4,0,2.5,1.1,2.5,2.5v0C5.5,4.4,4.4,5.5,3,5.5z"/></g>
<g transform="translate(836,726) scale(3.7766666666667)"><path d="M6,5.5H3C1.6,5.5,0.5,4.4,0.5,3v0c0-1.4,1.1-2.5,2.5-2.5h3V5.5z"/></g>
<g transform="translate(858,726) scale(3.7766666666667)"><path d="M3,5.5H0v-5h3c1.4,0,2.5,1.1,2.5,2.5v0C5.5,4.4,4.4,5.5,3,5.5z"/></g>
<g transform="translate(902,726) scale(3.7766666666667)"><path d="M6,5.5H3C1.6,5.5,0.5,4.4,0.5,3v0c0-1.4,1.1-2.5,2.5-2.5h3V5.5z"/></g>
<g transform="translate(924,726) scale(3.7766666666667)"><path d="M3,5.5H0v-5h3c1.4,0,2.5,1.1,2.5,2.5v0C5.5,4.4,4.4,5.5,3,5.5z"/></g>
<g transform="translate(44,748) scale(3.7766666666667)"><circle cx="3" cy="3" r="2.5"/></g>
<g transform="translate(88,748) scale(3.7766666666667)"><path d="M6,5.5H3C1.6,5.5,0.5,4.4,0.5,3v0c0-1.4,1.1-2.5,2.5-2.5h3V5.5z"/></g>
<g transform="translate(110,748) scale(3.7766666666667)"><rect y="0.5" width="6" height="5"/></g>
<g transform="translate(132,748) scale(3.7766666666667)"><rect y="0.5" width="6" height="5"/></g>
<g transform="translate(154,748) scale(3.7766666666667)"><rect y="0.5" width="6" height="5"/></g>
<g transform="translate(176,748) scale(3.7766666666667)"><rect y="0.5" width="6" height="5"/></g>
<g transform="translate(198,748) scale(3.7766666666667)"><path d="M3,5.5H0v-5h3c1.4,0,2.5,1.1,2.5,2.5v0C5.5,4.4,4.4,5.5,3,5.5z"/></g>
<g transform="translate(242,748) scale(3.7766666666667)"><path d="M6,5.5H3C1.6,5.5,0.5,4.4,0.5,3v0c0-1.4,1.1-2.5,2.5-2.5h3V5.5z"/></g>
<g transform="translate(264,748) scale(3.7766666666667)"><path d="M3,5.5H0v-5h3c1.4,0,2.5,1.1,2.5,2.5v0C5.5,4.4,4.4,5.5,3,5.5z"/></g>
<g transform="translate(308,748) scale(3.7766666666667)"><circle cx="3" cy="3" r="2.5"/></g>
<g transform="translate(418,748) scale(3.7766666666667)"><path d="M6,5.5H3C1.6,5.5,0.5,4.4,0.5,3v0c0-1.4,1.1-2.5,2.5-2.5h3V5.5z"/></g>
<g transform="translate(440,748) scale(3.7766666666667)"><rect y="0.5" width="6" height="5"/></g>
<g transform="translate(462,748) scale(3.7766666666667)"><rect y="0.5" width="6" height="5"/></g>
<g transform="translate(484,748) scale(3.7766666666667)"><rect y="0.5" width="6" height="5"/></g>
<g transform="translate(506,748) scale(3.7766666666667)"><rect y="0.5" width="6" height="5"/></g>
<g transform="translate(528,748) scale(3.7766666666667)"><rect y="0.5" width="6" height="5"/></g>
<g transform="translate(550,748) scale(3.7766666666667)"><path d="M3,5.5H0v-5h3c1.4,0,2.5,1.1,2.5,2.5v0C5.5,4.4,4.4,5.5,3,5.5z"/></g>
<g transform="translate(638,748) scale(3.7766666666667)"><circle cx="3" cy="3" r="2.5"/></g>
<g transform="translate(682,748) scale(3.7766666666667)"><circle cx="3" cy="3" r="2.5"/></g>
<g transform="translate(726,748) scale(3.7766666666667)"><path d="M6,5.5H3C1.6,5.5,0.5,4.4,0.5,3v0c0-1.4,1.1-2.5,2.5-2.5h3V5.5z"/></g>
<g transform="translate(748,748) scale(3.7766666666667)"><rect y="0.5" width="6" height="5"/></g>
<g transform="translate(770,748) scale(3.7766666666667)"><rect y="0.5" width="6" height="5"/></g>
<g transform="translate(792,748) scale(3.7766666666667)"><rect y="0.5" width="6" height="5"/></g>
<g transform="translate(814,748) scale(3.7766666666667)"><rect y="0.5" width="6" height="5"/></g>
<g transform="translate(836,748) scale(3.7766666666667)"><rect y="0.5" width="6" height="5"/></g>
<g transform="translate(858,748) scale(3.7766666666667)"><rect y="0.5" width="6" height="5"/></g>
<g transform="translate(880,748) scale(3.7766666666667)"><path d="M3,5.5H0v-5h3c1.4,0,2.5,1.1,2.5,2.5v0C5.5,4.4,4.4,5.5,3,5.5z"/></g>
<g transform="translate(924,748) scale(3.7766666666667)"><circle cx="3" cy="3" r="2.5"/></g>
<g transform="translate(220,770) scale(3.7766666666667)"><path d="M6,5.5H3C1.6,5.5,0.5,4.4,0.5,3v0c0-1.4,1.1-2.5,2.5-2.5h3V5.5z"/></g>
<g transform="translate(242,770) scale(3.7766666666667)"><rect y="0.5" width="6" height="5"/></g>
<g transform="translate(264,770) scale(3.7766666666667)"><rect y="0.5" width="6" height="5"/></g>
<g transform="translate(286,770) scale(3.7766666666667)"><rect y="0.5" width="6" height="5"/></g>
<g transform="translate(308,770) scale(3.7766666666667)"><path d="M3,5.5H0v-5h3c1.4,0,2.5,1.1,2.5,2.5v0C5.5,4.4,4.4,5.5,3,5.5z"/></g>
<g transform="translate(352,770) scale(3.7766666666667)"><path d="M6,5.5H3C1.6,5.5,0.5,4.4,0.5,3v0c0-1.4,1.1-2.5,2.5-2.5h3V5.5z"/></g>
<g transform="translate(374,770) scale(3.7766666666667)"><rect y="0.5" width="6" height="5"/></g>
<g transform="translate(396,770) scale(3.7766666666667)"><rect y="0.5" width="6" height="5"/></g>
<g transform="translate(418,770) scale(3.7766666666667)"><path d="M3,5.5H0v-5h3c1.4,0,2.5,1.1,2.5,2.5v0C5.5,4.4,4.4,5.5,3,5.5z"/></g>
<g transform="translate(528,770) scale(3.7766666666667)"><path d="M6,5.5H3C1.6,5.5,0.5,4.4,0.5,3v0c0-1.4,1.1-2.5,2.5-2.5h3V5.5z"/></g>
<g transform="translate(550,770) scale(3.7766666666667)"><path d="M3,5.5H0v-5h3c1.4,0,2.5,1.1,2.5,2.5v0C5.5,4.4,4.4,5.5,3,5.5z"/></g>
<g transform="translate(660,770) scale(3.7766666666667)"><path d="M6,5.5H3C1.6,5.5,0.5,4.4,0.5,3v0c0-1.4,1.1-2.5,2.5-2.5h3V5.5z"/></g>
<g transform="translate(682,770) scale(3.7766666666667)"><path d="M3,5.5H0v-5h3c1.4,0,2.5,1.1,2.5,2.5v0C5.5,4.4,4.4,5.5,3,5.5z"/></g>
<g transform="translate(748,770) scale(3.7766666666667)"><circle cx="3" cy="3" r="2.5"/></g>
<g transform="translate(836,770) scale(3.7766666666667)"><path d="M6,5.5H3C1.6,5.5,0.5,4.4,0.5,3v0c0-1.4,1.1-2.5,2.5-2.5h3V5.5z"/></g>
<g transform="translate(858,770) scale(3.7766666666667)"><rect y="0.5" width="6" height="5"/></g>
<g transform="translate(880,770) scale(3.7766666666667)"><rect y="0.5" width="6" height="5"/></g>
<g transform="translate(902,770) scale(3.7766666666667)"><rect y="0.5" width="6" height="5"/></g>
<g transform="translate(924,770) scale(3.7766666666667)"><path d="M3,5.5H0v-5h3c1.4,0,2.5,1.1,2.5,2.5v0C5.5,4.4,4.4,5.5,3,5.5z"/></g>
<g transform="translate(352,792) scale(3.7766666666667)"><path d="M6,5.5H3C1.6,5.5,0.5,4.4,0.5,3v0c0-1.4,1.1-2.5,2.5-2.5h3V5.5z"/></g>
<g transform="translate(374,792) scale(3.7766666666667)"><rect y="0.5" width="6" height="5"/></g>
<g transform="translate(396,792) scale(3.7766666666667)"><rect y="0.5" width="6" height="5"/></g>
<g transform="translate(418,792) scale(3.7766666666667)"><path d="M3,5.5H0v-5h3c1.4,0,2.5,1.1,2.5,2.5v0C5.5,4.4,4.4,5.5,3,5.5z"/></g>
<g transform="translate(484,792) scale(3.7766666666667)"><path d="M6,5.5H3C1.6,5.5,0.5,4.4,0.5,3v0c0-1.4,1.1-2.5,2.5-2.5h3V5.5z"/></g>
<g transform="translate(506,792) scale(3.7766666666667)"><path d="M3,5.5H0v-5h3c1.4,0,2.5,1.1,2.5,2.5v0C5.5,4.4,4.4,5.5,3,5.5z"/></g>
<g transform="translate(550,792) scale(3.7766666666667)"><circle cx="3" cy="3" r="2.5"/></g>
<g transform="translate(594,792) scale(3.7766666666667)"><path d="M6,5.5H3C1.6,5.5,0.5,4.4,0.5,3v0c0-1.4,1.1-2.5,2.5-2.5h3V5.5z"/></g>
<g transform="translate(616,792) scale(3.7766666666667)"><rect y="0.5" width="6" height="5"/></g>
<g transform="translate(638,792) scale(3.7766666666667)"><path d="M3,5.5H0v-5h3c1.4,0,2.5,1.1,2.5,2.5v0C5.5,4.4,4.4,5.5,3,5.5z"/></g>
<g transform="translate(682,792) scale(3.7766666666667)"><circle cx="3" cy="3" r="2.5"/></g>
<g transform="translate(726,792) scale(3.7766666666667)"><path d="M6,5.5H3C1.6,5.5,0.5,4.4,0.5,3v0c0-1.4,1.1-2.5,2.5-2.5h3V5.5z"/></g>
<g transform="translate(748,792) scale(3.7766666666667)"><path d="M3,5.5H0v-5h3c1.4,0,2.5,1.1,2.5,2.5v0C5.5,4.4,4.4,5.5,3,5.5z"/></g>
<g transform="translate(792,792) scale(3.7766666666667)"><circle cx="3" cy="3" r="2.5"/></g>
<g transform="translate(836,792) scale(3.7766666666667)"><path d="M6,5.5H3C1.6,5.5,0.5,4.4,0.5,3v0c0-1.4,1.1-2.5,2.5-2.5h3V5.5z"/></g>
<g transform="translate(858,792) scale(3.7766666666667)"><rect y="0.5" width="6" height="5"/></g>
<g transform="translate(880,792) scale(3.7766666666667)"><rect y="0.5" width="6" height="5"/></g>
<g transform="translate(902,792) scale(3.7766666666667)"><path d="M3,5.5H0v-5h3c1.4,0,2.5,1.1,2.5,2.5v0C5.5,4.4,4.4,5.5,3,5.5z"/></g>
<g transform="translate(242,814) scale(3.7766666666667)"><path d="M6,5.5H3C1.6,5.5,0.5,4.4,0.5,3v0c0-1.4,1.1-2.5,2.5-2.5h3V5.5z"/></g>
<g transform="translate(264,814) scale(3.7766666666667)"><path d="M3,5.5H0v-5h3c1.4,0,2.5,1.1,2.5,2.5v0C5.5,4.4,4.4,5.5,3,5.5z"/></g>
<g transform="translate(330,814) scale(3.7766666666667)"><circle cx="3" cy="3" r="2.5"/></g>
<g transform="translate(374,814) scale(3.7766666666667)"><circle cx="3" cy="3" r="2.5"/></g>
<g transform="translate(418,814) scale(3.7766666666667)"><circle cx="3" cy="3" r="2.5"/></g>
<g transform="translate(462,814) scale(3.7766666666667)"><path d="M6,5.5H3C1.6,5.5,0.5,4.4,0.5,3v0c0-1.4,1.1-2.5,2.5-2.5h3V5.5z"/></g>
<g transform="translate(484,814) scale(3.7766666666667)"><path d="M3,5.5H0v-5h3c1.4,0,2.5,1.1,2.5,2.5v0C5.5,4.4,4.4,5.5,3,5.5z"/></g>
<g transform="translate(550,814) scale(3.7766666666667)"><circle cx="3" cy="3" r="2.5"/></g>
<g transform="translate(594,814) scale(3.7766666666667)"><path d="M6,5.5H3C1.6,5.5,0.5,4.4,0.5,3v0c0-1.4,1.1-2.5,2.5-2.5h3V5.5z"/></g>
<g transform="translate(616,814) scale(3.7766666666667)"><rect y="0.5" width="6" height="5"/></g>
<g transform="translate(638,814) scale(3.7766666666667)"><rect y="0.5" width="6" height="5"/></g>
<g transform="translate(660,814) scale(3.7766666666667)"><rect y="0.5" width="6" height="5"/></g>
<g transform="translate(682,814) scale(3.7766666666667)"><rect y="0.5" width="6" height="5"/></g>
<g transform="translate(704,814) scale(3.7766666666667)"><rect y="0.5" width="6" height="5"/></g>
<g transform="translate(726,814) scale(3.7766666666667)"><rect y="0.5" width="6" height="5"/></g>
<g transform="translate(748,814) scale(3.7766666666667)"><path d="M3,5.5H0v-5h3c1.4,0,2.5,1.1,2.5,2.5v0C5.5,4.4,4.4,5.5,3,5.5z"/></g>
<g transform="translate(836,814) scale(3.7766666666667)"><path d="M6,5.5H3C1.6,5.5,0.5,4.4,0.5,3v0c0-1.4,1.1-2.5,2.5-2.5h3V5.5z"/></g>
<g transform="translate(858,814) scale(3.7766666666667)"><path d="M3,5.5H0v-5h3c1.4,0,2.5,1.1,2.5,2.5v0C5.5,4.4,4.4,5.5,3,5.5z"/></g>
<g transform="translate(902,814) scale(3.7766666666667)"><path d="M6,5.5H3C1.6,5.5,0.5,4.4,0.5,3v0c0-1.4,1.1-2.5,2.5-2.5h3V5.5z"/></g>
<g transform="translate(924,814) scale(3.7766666666667)"><path d="M3,5.5H0v-5h3c1.4,0,2.5,1.1,2.5,2.5v0C5.5,4.4,4.4,5.5,3,5.5z"/></g>
<g transform="translate(220,836) scale(3.7766666666667)"><circle cx="3" cy="3" r="2.5"/></g>
<g transform="translate(330,836) scale(3.7766666666667)"><circle cx="3" cy="3" r="2.5"/></g>
<g transform="translate(374,836) scale(3.7766666666667)"><circle cx="3" cy="3" r="2.5"/></g>
<g transform="translate(462,836) scale(3.7766666666667)"><circle cx="3" cy="3" r="2.5"/></g>
<g transform="translate(506,836) scale(3.7766666666667)"><path d="M6,5.5H3C1.6,5.5,0.5,4.4,0.5,3v0c0-1.4,1.1-2.5,2.5-2.5h3V5.5z"/></g>
<g transform="translate(528,836) scale(3.7766666666667)"><rect y="0.5" width="6" height="5"/></g>
<g transform="translate(550,836) scale(3.7766666666667)"><rect y="0.5" width="6" height="5"/></g>
<g transform="translate(572,836) scale(3.7766666666667)"><path d="M3,5.5H0v-5h3c1.4,0,2.5,1.1,2.5,2.5v0C5.5,4.4,4.4,5.5,3,5.5z"/></g>
<g transform="translate(638,836) scale(3.7766666666667)"><path d="M6,5.5H3C1.6,5.5,0.5,4.4,0.5,3v0c0-1.4,1.1-2.5,2.5-2.5h3V5.5z"/></g>
<g transform="translate(660,836) scale(3.7766666666667)"><path d="M3,5.5H0v-5h3c1.4,0,2.5,1.1,2.5,2.5v0C5.5,4.4,4.4,5.5,3,5.5z"/></g>
<g transform="translate(748,836) scale(3.7766666666667)"><path d="M6,5.5H3C1.6,5.5,0.5,4.4,0.5,3v0c0-1.4,1.1-2.5,2.5-2.5h3V5.5z"/></g>
<g transform="translate(770,836) scale(3.7766666666667)"><rect y="0.5" width="6" height="5"/></g>
<g transform="translate(792,836) scale(3.7766666666667)"><rect y="0.5" width="6" height="5"/></g>
<g transform="translate(814,836) scale(3.7766666666667)"><rect y="0.5" width="6" height="5"/></g>
<g transform="translate(836,836) scale(3.7766666666667)"><path d="M3,5.5H0v-5h3c1.4,0,2.5,1.1,2.5,2.5v0C5.5,4.4,4.4,5.5,3,5.5z"/></g>
<g transform="translate(880,836) scale(3.7766666666667)"><circle cx="3" cy="3" r="2.5"/></g>
<g transform="translate(924,836) scale(3.7766666666667)"><circle cx="3" cy="3" r="2.5"/></g>
<g transform="translate(220,858) scale(3.7766666666667)"><circle cx="3" cy="3" r="2.5"/></g>
<g transform="translate(264,858) scale(3.7766666666667)"><path d="M6,5.5H3C1.6,5.5,0.5,4.4,0.5,3v0c0-1.4,1.1-2.5,2.5-2.5h3V5.5z"/></g>
<g transform="translate(286,858) scale(3.7766666666667)"><path d="M3,5.5H0v-5h3c1.4,0,2.5,1.1,2.5,2.5v0C5.5,4.4,4.4,5.5,3,5.5z"/></g>
<g transform="translate(330,858) scale(3.7766666666667)"><circle cx="3" cy="3" r="2.5"/></g>
<g transform="translate(374,858) scale(3.7766666666667)"><circle cx="3" cy="3" r="2.5"/></g>
<g transform="translate(440,858) scale(3.7766666666667)"><circle cx="3" cy="3" r="2.5"/></g>
<g transform="translate(572,858) scale(3.7766666666667)"><circle cx="3" cy="3" r="2.5"/></g>
<g transform="translate(660,858) scale(3.7766666666667)"><circle cx="3" cy="3" r="2.5"/></g>
<g transform="translate(704,858) scale(3.7766666666667)"><circle cx="3" cy="3" r="2.5"/></g>
<g transform="translate(770,858) scale(3.7766666666667)"><circle cx="3" cy="3" r="2.5"/></g>
<g transform="translate(814,858) scale(3.7766666666667)"><circle cx="3" cy="3" r="2.5"/></g>
<g transform="translate(924,858) scale(3.7766666666667)"><circle cx="3" cy="3" r="2.5"/></g>
<g transform="translate(220,880) scale(3.7766666666667)"><circle cx="3" cy="3" r="2.5"/></g>
<g transform="translate(308,880) scale(3.7766666666667)"><circle cx="3" cy="3" r="2.5"/></g>
<g transform="translate(396,880) scale(3.7766666666667)"><path d="M6,5.5H3C1.6,5.5,0.5,4.4,0.5,3v0c0-1.4,1.1-2.5,2.5-2.5h3V5.5z"/></g>
<g transform="translate(418,880) scale(3.7766666666667)"><path d="M3,5.5H0v-5h3c1.4,0,2.5,1.1,2.5,2.5v0C5.5,4.4,4.4,5.5,3,5.5z"/></g>
<g transform="translate(484,880) scale(3.7766666666667)"><path d="M6,5.5H3C1.6,5.5,0.5,4.4,0.5,3v0c0-1.4,1.1-2.5,2.5-2.5h3V5.5z"/></g>
<g transform="translate(506,880) scale(3.7766666666667)"><rect y="0.5" width="6" height="5"/></g>
<g transform="translate(528,880) scale(3.7766666666667)"><path d="M3,5.5H0v-5h3c1.4,0,2.5,1.1,2.5,2.5v0C5.5,4.4,4.4,5.5,3,5.5z"/></g>
<g transform="translate(572,880) scale(3.7766666666667)"><path d="M6,5.5H3C1.6,5.5,0.5,4.4,0.5,3v0c0-1.4,1.1-2.5,2.5-2.5h3V5.5z"/></g>
<g transform="translate(594,880) scale(3.7766666666667)"><rect y="0.5" width="6" height="5"/></g>
<g transform="translate(616,880) scale(3.7766666666667)"><rect y="0.5" width="6" height="5"/></g>
<g transform="translate(638,880) scale(3.7766666666667)"><path d="M3,5.5H0v-5h3c1.4,0,2.5,1.1,2.5,2.5v0C5.5,4.4,4.4,5.5,3,5.5z"/></g>
<g transform="translate(726,880) scale(3.7766666666667)"><circle cx="3" cy="3" r="2.5"/></g>
<g transform="translate(770,880) scale(3.7766666666667)"><path d="M6,5.5H3C1.6,5.5,0.5,4.4,0.5,3v0c0-1.4,1.1-2.5,2.5-2.5h3V5.5z"/></g>
<g transform="translate(792,880) scale(3.7766666666667)"><rect y="0.5" width="6" height="5"/></g>
<g transform="translate(814,880) scale(3.7766666666667)"><rect y="0.5" width="6" height="5"/></g>
<g transform="translate(836,880) scale(3.7766666666667)"><rect y="0.5" width="6" height="5"/></g>
<g transform="translate(858,880) scale(3.7766666666667)"><path d="M3,5.5H0v-5h3c1.4,0,2.5,1.1,2.5,2.5v0C5.5,4.4,4.4,5.5,3,5.5z"/></g>
<g transform="translate(902,880) scale(3.7766666666667)"><circle cx="3" cy="3" r="2.5"/></g>
<g transform="translate(242,902) scale(3.7766666666667)"><circle cx="3" cy="3" r="2.5"/></g>
<g transform="translate(286,902) scale(3.7766666666667)"><path d="M6,5.5H3C1.6,5.5,0.5,4.4,0.5,3v0c0-1.4,1.1-2.5,2.5-2.5h3V5.5z"/></g>
<g transform="translate(308,902) scale(3.7766666666667)"><rect y="0.5" width="6" height="5"/></g>
<g transform="translate(330,902) scale(3.7766666666667)"><path d="M3,5.5H0v-5h3c1.4,0,2.5,1.1,2.5,2.5v0C5.5,4.4,4.4,5.5,3,5.5z"/></g>
<g transform="translate(418,902) scale(3.7766666666667)"><circle cx="3" cy="3" r="2.5"/></g>
<g transform="translate(528,902) scale(3.7766666666667)"><circle cx="3" cy="3" r="2.5"/></g>
<g transform="translate(594,902) scale(3.7766666666667)"><circle cx="3" cy="3" r="2.5"/></g>
<g transform="translate(638,902) scale(3.7766666666667)"><circle cx="3" cy="3" r="2.5"/></g>
<g transform="translate(748,902) scale(3.7766666666667)"><circle cx="3" cy="3" r="2.5"/></g>
<g transform="translate(836,902) scale(3.7766666666667)"><path d="M6,5.5H3C1.6,5.5,0.5,4.4,0.5,3v0c0-1.4,1.1-2.5,2.5-2.5h3V5.5z"/></g>
<g transform="translate(858,902) scale(3.7766666666667)"><path d="M3,5.5H0v-5h3c1.4,0,2.5,1.1,2.5,2.5v0C5.5,4.4,4.4,5.5,3,5.5z"/></g>
<g transform="translate(902,902) scale(3.7766666666667)"><circle cx="3" cy="3" r="2.5"/></g>
<g transform="translate(286,924) scale(3.7766666666667)"><path d="M6,5.5H3C1.6,5.5,0.5,4.4,0.5,3v0c0-1.4,1.1-2.5,2.5-2.5h3V5.5z"/></g>
<g transform="translate(308,924) scale(3.7766666666667)"><rect y="0.5" width="6" height="5"/></g>
<g transform="translate(330,924) scale(3.7766666666667)"><rect y="0.5" width="6" height="5"/></g>
<g transform="translate(352,924) scale(3.7766666666667)"><path d="M3,5.5H0v-5h3c1.4,0,2.5,1.1,2.5,2.5v0C5.5,4.4,4.4,5.5,3,5.5z"/></g>
<g transform="translate(484,924) scale(3.7766666666667)"><path d="M6,5.5H3C1.6,5.5,0.5,4.4,0.5,3v0c0-1.4,1.1-2.5,2.5-2.5h3V5.5z"/></g>
<g transform="translate(506,924) scale(3.7766666666667)"><path d="M3,5.5H0v-5h3c1.4,0,2.5,1.1,2.5,2.5v0C5.5,4.4,4.4,5.5,3,5.5z"/></g>
<g transform="translate(550,924) scale(3.7766666666667)"><circle cx="3" cy="3" r="2.5"/></g>
<g transform="translate(594,924) scale(3.7766666666667)"><path d="M6,5.5H3C1.6,5.5,0.5,4.4,0.5,3v0c0-1.4,1.1-2.5,2.5-2.5h3V5.5z"/></g>
<g transform="translate(616,924) scale(3.7766666666667)"><path d="M3,5.5H0v-5h3c1.4,0,2.5,1.1,2.5,2.5v0C5.5,4.4,4.4,5.5,3,5.5z"/></g>
<g transform="translate(682,924) scale(3.7766666666667)"><circle cx="3" cy="3" r="2.5"/></g>
<g transform="translate(770,924) scale(3.7766666666667)"><circle cx="3" cy="3" r="2.5"/></g>
<g transform="translate(814,924) scale(3.7766666666667)"><path d="M6,5.5H3C1.6,5.5,0.5,4.4,0.5,3v0c0-1.4,1.1-2.5,2.5-2.5h3V5.5z"/></g>
<g transform="translate(836,924) scale(3.7766666666667)"><path d="M3,5.5H0v-5h3c1.4,0,2.5,1.1,2.5,2.5v0C5.5,4.4,4.4,5.5,3,5.5z"/></g>
<g transform="translate(880,924) scale(3.7766666666667)"><circle cx="3" cy="3" r="2.5"/></g>
</g></g></mask></defs>
<rect width="990" height="990" fill="#ffffff" x="0" y="0" />
<rect x="0" y="0" width="990" height="990" mask="url(#qrmask)" fill="#002553" />
<g><g transform="translate(44,44)"  fill="#002553"><g transform="scale(11)"><path d="M4.5,14h5.1C12,14,14,12,14,9.6V4.5C14,2,12,0,9.5,0H4.4C2,0,0,2,0,4.4v5.1C0,12,2,14,4.5,14z M12,4.8v4.4 c0,1.5-1.3,2.8-2.8,2.8H4.8C3.2,12,2,10.8,2,9.2V4.8C2,3.3,3.3,2,4.8,2h4.4C10.8,2,12,3.2,12,4.8z"/></g></g>
<g transform="translate(88,88)"  fill="#002553"><g transform="scale(11)"><path d="M6,1.7v2.7C6,5.2,5.2,6,4.3,6H1.7C0.7,6,0,5.3,0,4.3V1.7C0,0.8,0.8,0,1.7,0h2.7C5.3,0,6,0.7,6,1.7z"/></g></g>
<g transform="translate(792,44)"  fill="#002553"><g transform="scale(11)"><path d="M4.5,14h5.1C12,14,14,12,14,9.6V4.5C14,2,12,0,9.5,0H4.4C2,0,0,2,0,4.4v5.1C0,12,2,14,4.5,14z M12,4.8v4.4 c0,1.5-1.3,2.8-2.8,2.8H4.8C3.2,12,2,10.8,2,9.2V4.8C2,3.3,3.3,2,4.8,2h4.4C10.8,2,12,3.2,12,4.8z"/></g></g>
<g transform="translate(836,88)"  fill="#002553"><g transform="scale(11)"><path d="M6,1.7v2.7C6,5.2,5.2,6,4.3,6H1.7C0.7,6,0,5.3,0,4.3V1.7C0,0.8,0.8,0,1.7,0h2.7C5.3,0,6,0.7,6,1.7z"/></g></g>
<g transform="translate(44,792)"  fill="#002553"><g transform="scale(11)"><path d="M4.5,14h5.1C12,14,14,12,14,9.6V4.5C14,2,12,0,9.5,0H4.4C2,0,0,2,0,4.4v5.1C0,12,2,14,4.5,14z M12,4.8v4.4 c0,1.5-1.3,2.8-2.8,2.8H4.8C3.2,12,2,10.8,2,9.2V4.8C2,3.3,3.3,2,4.8,2h4.4C10.8,2,12,3.2,12,4.8z"/></g></g>
<g transform="translate(88,836)"  fill="#002553"><g transform="scale(11)"><path d="M6,1.7v2.7C6,5.2,5.2,6,4.3,6H1.7C0.7,6,0,5.3,0,4.3V1.7C0,0.8,0.8,0,1.7,0h2.7C5.3,0,6,0.7,6,1.7z"/></g></g></g>
</svg>