<svg xmlns="http://www.w3.org/2000/svg" xml:space="preserve" xmlns:xlink="http://www.w3.org/1999/xlink" style="max-width: 100%;height: auto;" width="990" height="990" viewBox="0 0 990 990">
<defs><mask id="qrmask"><g fill="#ffffff"><g>
<g transform="translate(220,44) scale(3.7766666666667)"><path d="M6,5.5H3C1.6,5.5,0.5,4.4,0.5,3v0c0-1.4,1.1-2.5,2.5-2.5h3V5.5z"/></g>
<g transform="translate(242,44) scale(3.7766666666667)"><rect y="0.5" width="6" height="5"/></g>
<g transform="translate(264,44) scale(3.7766666666667)"><path d="M3,5.5H0v-5h3c1.4,0,2.5,1.1,2.5,2.5v0C5.5,4.4,4.4,5.5,3,5.5z"/></g>
<g transform="translate(352,44) scale(3.7766666666667)"><path d="M6,5.5H3C1.6,5.5,0.5,4.4,0.5,3v0c0-1.4,1.1-2.5,2.5-2.5h3V5.5z"/></g>
<g transform="translate(374,44) scale(3.7766666666667)"><rect y="0.5" width="6" height="5"/></g>
<g transform="translate(396,44) scale(3.7766666666667)"><path d="M3,5.5H0v-5h3c1.4,0,2.5,1.1,2.5,2.5v0C5.5,4.4,4.4,5.5,3,5.5z"/></g>
<g transform="translate(462,44) scale(3.7766666666667)"><circle cx="3" cy="3" r="2.5"/></g>
<g transform="translate(528,44) scale(3.7766666666667)"><path d="M6,5.5H3C1.6,5.5,0.5,4.4,0.5,3v0c0-1.4,1.1-2.5,2.5-2.5h3V5.5z"/></g>
<g transform="translate(550,44) scale(3.7766666666667)"><rect y="0.5" width="6" height="5"/></g>
<g transform="translate(572,44) scale(3.7766666666667)"><rect y="0.5" width="6" height="5"/></g>
<g transform="translate(594,44) scale(3.7766666666667)"><path d="M3,5.5H0v-5h3c1.4,0,2.5,1.1,2.5,2.5v0C5.5,4.4,4.4,5.5,3,5.5z"/></g>
<g transform="translate(660,44) scale(3.7766666666667)"><path d="M6,5.5H3C1.6,5.5,0.5,4.4,0.5,3v0c0-1.4,1.1-2.5,2.5-2.5h3V5.5z"/></g>
<g transform="translate(682,44) scale(3.7766666666667)"><rect y="0.5" width="6" height="5"/></g>
<g transform="translate(704,44) scale(3.7766666666667)"><rect y="0.5" width="6" height="5"/></g>
<g transform="translate(726,44) scale(3.7766666666667)"><path d="M3,5.5H0v-5h3c1.4,0,2.5,1.1,2.5,2.5v0C5.5,4.4,4.4,5.5,3,5.5z"/></g>
<g transform="translate(220,66) scale(3.7766666666667)"><path d="M6,5.5H3C1.6,5.5,0.5,4.4,0.5,3v0c0-1.4,1.1-2.5,2.5-2.5h3V5.5z"/></g>
<g transform="translate(242,66) scale(3.7766666666667)"><path d="M3,5.5H0v-5h3c1.4,0,2.5,1.1,2.5,2.5v0C5.5,4.4,4.4,5.5,3,5.5z"/></g>
<g transform="translate(330,66) scale(3.7766666666667)"><path d="M6,5.5H3C1.6,5.5,0.5,4.4,0.5,3v0c0-1.4,1.1-2.5,2.5-2.5h3V5.5z"/></g>
<g transform="translate(352,66) scale(3.7766666666667)"><rect y="0.5" width="6" height="5"/></g>
<g transform="translate(374,66) scale(3.7766666666667)"><rect y="0.5" width="6" height="5"/></g>
<g transform="translate(396,66) scale(3.7766666666667)"><path d="M3,5.5H0v-5h3c1.4,0,2.5,1.1,2.5,2.5v0C5.5,4.4,4.4,5.5,3,5.5z"/></g>
<g transform="translate(440,66) scale(3.7766666666667)"><circle cx="3" cy="3" r="2.5"/></g>
<g transform="translate(506,66) scale(3.7766666666667)"><path d="M6,5.5H3C1.6,5.5,0.5,4.4,0.5,3v0c0-1.4,1.1-2.5,2.5-2.5h3V5.5z"/></g>
<g transform="translate(528,66) scale(3.7766666666667)"><path d="M3,5.5H0v-5h3c1.4,0,2.5,1.1,2.5,2.5v0C5.5,4.4,4.4,5.5,3,5.5z"/></g>
<g transform="translate(572,66) scale(3.7766666666667)"><path d="M6,5.5H3C1.6,5.5,0.5,4.4,0.5,3v0c0-1.4,1.1-2.5,2.5-2.5h3V5.5z"/></g>
<g transform="translate(594,66) scale(3.7766666666667)"><rect y="0.5" width="6" height="5"/></g>
<g transform="translate(616,66) scale(3.7766666666667)"><rect y="0.5" width="6" height="5"/></g>
<g transform="translate(638,66) scale(3.7766666666667)"><rect y="0.5" width="6" height="5"/></g>
<g transform="translate(660,66) scale(3.7766666666667)"><rect y="0.5" width="6" height="5"/></g>
<g transform="translate(682,66) scale(3.7766666666667)"><path d="M3,5.5H0v-5h3c1.4,0,2.5,1.1,2.5,2.5v0C5.5,4.4,4.4,5.5,3,5.5z"/></g>
<g transform="translate(220,88) scale(3.7766666666667)"><circle cx="3" cy="3" r="2.5"/></g>
<g transform="translate(330,88) scale(3.7766666666667)"><path d="M6,5.5H3C1.6,5.5,0.5,4.4,0.5,3v0c0-1.4,1.1-2.5,2.5-2.5h3V5.5z"/></g>
<g transform="translate(352,88) scale(3.7766666666667)"><path d="M3,5.5H0v-5h3c1.4,0,2.5,1.1,2.5,2.5v0C5.5,4.4,4.4,5.5,3,5.5z"/></g>
<g transform="translate(396,88) scale(3.7766666666667)"><circle cx="3" cy="3" r="2.5"/></g>
<g transform="translate(440,88) scale(3.7766666666667)"><path d="M6,5.5H3C1.6,5.5,0.5,4.4,0.5,3v0c0-1.4,1.1-2.5,2.5-2.5h3V5.5z"/></g>
<g transform="translate(462,88) scale(3.7766666666667)"><path d="M3,5.5H0v-5h3c1.4,0,2.5,1.1,2.5,2.5v0C5.5,4.4,4.4,5.5,3,5.5z"/></g>
<g transform="translate(550,88) scale(3.7766666666667)"><circle cx="3" cy="3" r="2.5"/></g>
<g transform="translate(594,88) scale(3.7766666666667)"><circle cx="3" cy="3" r="2.5"/></g>
<g transform="translate(660,88) scale(3.7766666666667)"><circle cx="3" cy="3" r="2.5"/></g>
<g transform="translate(748,88) scale(3.7766666666667)"><circle cx="3" cy="3" r="2.5"/></g>
<g transform="translate(242,110) scale(3.7766666666667)"><circle cx="3" cy="3" r="2.5"/></g>
<g transform="translate(286,110) scale(3.7766666666667)"><path d="M6,5.5H3C1.6,5.5,0.5,4.4,0.5,3v0c0-1.4,1.1-2.5,2.5-2.5h3V5.5z"/></g>
<g transform="translate(308,110) scale(3.7766666666667)"><path d="M3,5.5H0v-5h3c1.4,0,2.5,1.1,2.5,2.5v0C5.5,4.4,4.4,5.5,3,5.5z"/></g>
<g transform="translate(396,110) scale(3.7766666666667)"><path d="M6,5.5H3C1.6,5.5,0.5,4.4,0.5,3v0c0-1.4,1.1-2.5,2.5-2.5h3V5.5z"/></g>
<g transform="translate(418,110) scale(3.7766666666667)"><rect y="0.5" width="6" height="5"/></g>
<g transform="translate(440,110) scale(3.7766666666667)"><rect y="0.5" width="6" height="5"/></g>
<g transform="translate(462,110) scale(3.7766666666667)"><path d="M3,5.5H0v-5h3c1.4,0,2.5,1.1,2.5,2.5v0C5.5,4.4,4.4,5.5,3,5.5z"/></g>
<g transform="translate(528,110) scale(3.7766666666667)"><path d="M6,5.5H3C1.6,5.5,0.5,4.4,0.5,3v0c0-1.4,1.1-2.5,2.5-2.5h3V5.5z"/></g>
<g transform="translate(550,110) scale(3.7766666666667)"><path d="M3,5.5H0v-5h3c1.4,0,2.5,1.1,2.5,2.5v0C5.5,4.4,4.4,5.5,3,5.5z"/></g>
<g transform="translate(616,110) scale(3.7766666666667)"><circle cx="3" cy="3" r="2.5"/></g>
<g transform="translate(682,110) scale(3.7766666666667)"><circle cx="3" cy="3" r="2.5"/></g>
<g transform="translate(748,110) scale(3.7766666666667)"><circle cx="3" cy="3" r="2.5"/></g>
<g transform="translate(242,132) scale(3.7766666666667)"><circle cx="3" cy="3" r="2.5"/></g>
<g transform="translate(308,132) scale(3.7766666666667)"><circle cx="3" cy="3" r="2.5"/></g>
<g transform="translate(396,132) scale(3.7766666666667)"><circle cx="3" cy="3" r="2.5"/></g>
<g transform="translate(440,132) scale(3.7766666666667)"><circle cx="3" cy="3" r="2.5"/></g>
<g transform="translate(528,132) scale(3.7766666666667)"><circle cx="3" cy="3" r="2.5"/></g>
<g transform="translate(572,132) scale(3.7766666666667)"><circle cx="3" cy="3" r="2.5"/></g>
<g transform="translate(660,132) scale(3.7766666666667)"><circle cx="3" cy="3" r="2.5"/></g>
<g transform="translate(704,132) scale(3.7766666666667)"><path d="M6,5.5H3C1.6,5.5,0.5,4.4,0.5,3v0c0-1.4,1.1-2.5,2.5-2.5h3V5.5z"/></g>
<g transform="translate(726,132) scale(3.7766666666667)"><rect y="0.5" width="6" height="5"/></g>
<g transform="translate(748,132) scale(3.7766666666667)"><path d="M3,5.5H0v-5h3c1.4,0,2.5,1.1,2.5,2.5v0C5.5,4.4,4.4,5.5,3,5.5z"/></g>
<g transform="translate(220,154) scale(3.7766666666667)"><circle cx="3" cy="3" r="2.5"/></g>
<g transform="translate(286,154) scale(3.7766666666667)"><circle cx="3" cy="3" r="2.5"/></g>
<g transform="translate(330,154) scale(3.7766666666667)"><path d="M6,5.5H3C1.6,5.5,0.5,4.4,0.5,3v0c0-1.4,1.1-2.5,2.5-2.5h3V5.5z"/></g>
<g transform="translate(352,154) scale(3.7766666666667)"><rect y="0.5" width="6" height="5"/></g>
<g transform="translate(374,154) scale(3.7766666666667)"><path d="M3,5.5H0v-5h3c1.4,0,2.5,1.1,2.5,2.5v0C5.5,4.4,4.4,5.5,3,5.5z"/></g>
<g transform="translate(418,154) scale(3.7766666666667)"><circle cx="3" cy="3" r="2.5"/></g>
<g transform="translate(462,154) scale(3.7766666666667)"><circle cx="3" cy="3" r="2.5"/></g>
<g transform="translate(638,154) scale(3.7766666666667)"><circle cx="3" cy="3" r="2.5"/></g>
<g transform="translate(682,154) scale(3.7766666666667)"><path d="M6,5.5H3C1.6,5.5,0.5,4.4,0.5,3v0c0-1.4,1.1-2.5,2.5-2.5h3V5.5z"/></g>
<g transform="translate(704,154) scale(3.7766666666667)"><path d="M3,5.5H0v-5h3c1.4,0,2.5,1.1,2.5,2.5v0C5.5,4.4,4.4,5.5,3,5.5z"/></g>
<g transform="translate(748,154) scale(3.7766666666667)"><circle cx="3" cy="3" r="2.5"/></g>
<g transform="translate(220,176) scale(3.7766666666667)"><circle cx="3" cy="3" r="2.5"/></g>
<g transform="translate(264,176) scale(3.7766666666667)"><circle cx="3" cy="3" r="2.5"/></g>
<g transform="translate(308,176) scale(3.7766666666667)"><circle cx="3" cy="3" r="2.5"/></g>
<g transform="translate(352,176) scale(3.7766666666667)"><circle cx="3" cy="3" r="2.5"/></g>
<g transform="translate(396,176) scale(3.7766666666667)"><circle cx="3" cy="3" r="2.5"/></g>
<g transform="translate(440,176) scale(3.7766666666667)"><circle cx="3" cy="3" r="2.5"/></g>
<g transform="translate(484,176) scale(3.7766666666667)"><circle cx="3" cy="3" r="2.5"/></g>
<g transform="translate(528,176) scale(3.7766666666667)"><circle cx="3" cy="3" r="2.5"/></g>
<g transform="translate(572,176) scale(3.7766666666667)"><circle cx="3" cy="3" r="2.5"/></g>
<g transform="translate(616,176) scale(3.7766666666667)"><circle cx="3" cy="3" r="2.5"/></g>
<g transform="translate(660,176) scale(3.7766666666667)"><circle cx="3" cy="3" r="2.5"/></g>
<g transform="translate(704,176) scale(3.7766666666667)"><circle cx="3" cy="3" r="2.5"/></g>
<g transform="translate(748,176) scale(3.7766666666667)"><circle cx="3" cy="3" r="2.5"/></g>
<g transform="translate(220,198) scale(3.7766666666667)"><circle cx="3" cy="3" r="2.5"/></g>
<g transform="translate(264,198) scale(3.7766666666667)"><circle cx="3" cy="3" r="2.5"/></g>
<g transform="translate(308,198) scale(3.7766666666667)"><circle cx="3" cy="3" r="2.5"/></g>
<g transform="translate(396,198) scale(3.7766666666667)"><circle cx="3" cy="3" r="2.5"/></g>
<g transform="translate(462,198) scale(3.7766666666667)"><path d="M6,5.5H3C1.6,5.5,0.5,4.4,0.5,3v0c0-1.4,1.1-2.5,2.5-2.5h3V5.5z"/></g>
<g transform="translate(484,198) scale(3.7766666666667)"><rect y="0.5" width="6" height="5"/></g>
<g transform="translate(506,198) scale(3.7766666666667)"><path d="M3,5.5H0v-5h3c1.4,0,2.5,1.1,2.5,2.5v0C5.5,4.4,4.4,5.5,3,5.5z"/></g>
<g transform="translate(638,198) scale(3.7766666666667)"><path d="M6,5.5H3C1.6,5.5,0.5,4.4,0.5,3v0c0-1.4,1.1-2.5,2.5-2.5h3V5.5z"/></g>
<g transform="translate(660,198) scale(3.7766666666667)"><path d="M3,5.5H0v-5h3c1.4,0,2.5,1.1,2.5,2.5v0C5.5,4.4,4.4,5.5,3,5.5z"/></g>
<g transform="translate(748,198) scale(3.7766666666667)"><circle cx="3" cy="3" r="2.5"/></g>
<g transform="translate(88,220) scale(3.7766666666667)"><path d="M6,5.5H3C1.6,5.5,0.5,4.4,0.5,3v0c0-1.4,1.1-2.5,2.5-2.5h3V5.5z"/></g>
<g transform="translate(110,220) scale(3.7766666666667)"><rect y="0.5" width="6" height="5"/></g>
<g transform="translate(132,220) scale(3.7766666666667)"><path d="M3,5.5H0v-5h3c1.4,0,2.5,1.1,2.5,2.5v0C5.5,4.4,4.4,5.5,3,5.5z"/></g>
<g transform="translate(176,220) scale(3.7766666666667)"><circle cx="3" cy="3" r="2.5"/></g>
<g transform="translate(220,220) scale(3.7766666666667)"><circle cx="3" cy="3" r="2.5"/></g>
<g transform="translate(286,220) scale(3.7766666666667)"><path d="M6,5.5H3C1.6,5.5,0.5,4.4,0.5,3v0c0-1.4,1.1-2.5,2.5-2.5h3V5.5z"/></g>
<g transform="translate(308,220) scale(3.7766666666667)"><rect y="0.5" width="6" height="5"/></g>
<g transform="translate(330,220) scale(3.7766666666667)"><rect y="0.5" width="6" height="5"/></g>
<g transform="translate(352,220) scale(3.7766666666667)"><path d="M3,5.5H0v-5h3c1.4,0,2.5,1.1,2.5,2.5v0C5.5,4.4,4.4,5.5,3,5.5z"/></g>
<g transform="translate(506,220) scale(3.7766666666667)"><circle cx="3" cy="3" r="2.5"/></g>
<g transform="translate(550,220) scale(3.7766666666667)"><circle cx="3" cy="3" r="2.5"/></g>
<g transform="translate(594,220) scale(3.7766666666667)"><path d="M6,5.5H3C1.6,5.5,0.5,4.4,0.5,3v0c0-1.4,1.1-2.5,2.5-2.5h3V5.5z"/></g>
<g transform="translate(616,220) scale(3.7766666666667)"><rect y="0.5" width="6" height="5"/></g>
<g transform="translate(638,220) scale(3.7766666666667)"><path d="M3,5.5H0v-5h3c1.4,0,2.5,1.1,2.5,2.5v0C5.5,4.4,4.4,5.5,3,5.5z"/></g>
<g transform="translate(682,220) scale(3.7766666666667)"><circle cx="3" cy="3" r="2.5"/></g>
<g transform="translate(748,220) scale(3.7766666666667)"><path d="M6,5.5H3C1.6,5.5,0.5,4.4,0.5,3v0c0-1.4,1.1-2.5,2.5-2.5h3V5.5z"/></g>
<g transform="translate(770,220) scale(3.7766666666667)"><rect y="0.5" width="6" height="5"/></g>
<g transform="translate(792,220) scale(3.7766666666667)"><rect y="0.5" width="6" height="5"/></g>
<g transform="translate(814,220) scale(3.7766666666667)"><path d="M3,5.5H0v-5h3c1.4,0,2.5,1.1,2.5,2.5v0C5.5,4.4,4.4,5.5,3,5.5z"/></g>
<g transform="translate(880,220) scale(3.7766666666667)"><path d="M6,5.5H3C1.6,5.5,0.5,4.4,0.5,3v0c0-1.4,1.1-2.5,2.5-2.5h3V5.5z"/></g>
<g transform="translate(902,220) scale(3.7766666666667)"><rect y="0.5" width="6" height="5"/></g>
<g transform="translate(924,220) scale(3.7766666666667)"><path d="M3,5.5H0v-5h3c1.4,0,2.5,1.1,2.5,2.5v0C5.5,4.4,4.4,5.5,3,5.5z"/></g>
<g transform="translate(66,242) scale(3.7766666666667)"><path d="M6,5.5H3C1.6,5.5,0.5,4.4,0.5,3v0c0-1.4,1.1-2.5,2.5-2.5h3V5.5z"/></g>
<g transform="translate(88,242) scale(3.7766666666667)"><path d="M3,5.5H0v-5h3c1.4,0,2.5,1.1,2.5,2.5v0C5.5,4.4,4.4,5.5,3,5.5z"/></g>
<g transform="translate(132,242) scale(3.7766666666667)"><circle cx="3" cy="3" r="2.5"/></g>
<g transform="translate(198,242) scale(3.7766666666667)"><path d="M6,5.5H3C1.6,5.5,0.5,4.4,0.5,3v0c0-1.4,1.1-2.5,2.5-2.5h3V5.5z"/></g>
<g transform="translate(220,242) scale(3.7766666666667)"><rect y="0.5" width="6" height="5"/></g>
<g transform="translate(242,242) scale(3.7766666666667)"><path d="M3,5.5H0v-5h3c1.4,0,2.5,1.1,2.5,2.5v0C5.5,4.4,4.4,5.5,3,5.5z"/></g>
<g transform="translate(330,242) scale(3.7766666666667)"><circle cx="3" cy="3" r="2.5"/></g>
<g transform="translate(374,242) scale(3.7766666666667)"><path d="M6,5.5H3C1.6,5.5,0.5,4.4,0.5,3v0c0-1.4,1.1-2.5,2.5-2.5h3V5.5z"/></g>
<g transform="translate(396,242) scale(3.7766666666667)"><rect y="0.5" width="6" height="5"/></g>
<g transform="translate(418,242) scale(3.7766666666667)"><rect y="0.5" width="6" height="5"/></g>
<g transform="translate(440,242) scale(3.7766666666667)"><rect y="0.5" width="6" height="5"/></g>
<g transform="translate(462,242) scale(3.7766666666667)"><path d="M3,5.5H0v-5h3c1.4,0,2.5,1.1,2.5,2.5v0C5.5,4.4,4.4,5.5,3,5.5z"/></g>
<g transform="translate(506,242) scale(3.7766666666667)"><circle cx="3" cy="3" r="2.5"/></g>
<g transform="translate(572,242) scale(3.7766666666667)"><circle cx="3" cy="3" r="2.5"/></g>
<g transform="translate(660,242) scale(3.7766666666667)"><circle cx="3" cy="3" r="2.5"/></g>
<g transform="translate(726,242) scale(3.7766666666667)"><path d="M6,5.5H3C1.6,5.5,0.5,4.4,0.5,3v0c0-1.4,1.1-2.5,2.5-2.5h3V5.5z"/></g>
<g transform="translate(748,242) scale(3.7766666666667)"><path d="M3,5.5H0v-5h3c1.4,0,2.5,1.1,2.5,2.5v0C5.5,4.4,4.4,5.5,3,5.5z"/></g>
<g transform="translate(792,242) scale(3.7766666666667)"><path d="M6,5.5H3C1.6,5.5,0.5,4.4,0.5,3v0c0-1.4,1.1-2.5,2.5-2.5h3V5.5z"/></g>
<g transform="translate(814,242) scale(3.7766666666667)"><rect y="0.5" width="6" height="5"/></g>
<g transform="translate(836,242) scale(3.7766666666667)"><path d="M3,5.5H0v-5h3c1.4,0,2.5,1.1,2.5,2.5v0C5.5,4.4,4.4,5.5,3,5.5z"/></g>
<g transform="translate(880,242) scale(3.7766666666667)"><path d="M6,5.5H3C1.6,5.5,0.5,4.4,0.5,3v0c0-1.4,1.1-2.5,2.5-2.5h3V5.5z"/></g>
<g transform="translate(902,242) scale(3.7766666666667)"><rect y="0.5" width="6" height="5"/></g>
<g transform="translate(924,242) scale(3.7766666666667)"><path d="M3,5.5H0v-5h3c1.4,0,2.5,1.1,2.5,2.5v0C5.5,4.4,4.4,5.5,3,5.5z"/></g>
<g transform="translate(44,264) scale(3.7766666666667)"><path d="M6,5.5H3C1.6,5.5,0.5,4.4,0.5,3v0c0-1.4,1.1-2.5,2.5-2.5h3V5.5z"/></g>
<g transform="translate(66,264) scale(3.7766666666667)"><rect y="0.5" width="6" height="5"/></g>
<g transform="translate(88,264) scale(3.7766666666667)"><path d="M3,5.5H0v-5h3c1.4,0,2.5,1.1,2.5,2.5v0C5.5,4.4,4.4,5.5,3,5.5z"/></g>
<g transform="translate(132,264) scale(3.7766666666667)"><circle cx="3" cy="3" r="2.5"/></g>
<g transform="translate(176,264) scale(3.7766666666667)"><path d="M6,5.5H3C1.6,5.5,0.5,4.4,0.5,3v0c0-1.4,1.1-2.5,2.5-2.5h3V5.5z"/></g>
<g transform="translate(198,264) scale(3.7766666666667)"><rect y="0.5" width="6" height="5"/></g>
<g transform="translate(220,264) scale(3.7766666666667)"><path d="M3,5.5H0v-5h3c1.4,0,2.5,1.1,2.5,2.5v0C5.5,4.4,4.4,5.5,3,5.5z"/></g>
<g transform="translate(286,264) scale(3.7766666666667)"><circle cx="3" cy="3" r="2.5"/></g>
<g transform="translate(330,264) scale(3.7766666666667)"><path d="M6,5.5H3C1.6,5.5,0.5,4.4,0.5,3v0c0-1.4,1.1-2.5,2.5-2.5h3V5.5z"/></g>
<g transform="translate(352,264) scale(3.7766666666667)"><path d="M3,5.5H0v-5h3c1.4,0,2.5,1.1,2.5,2.5v0C5.5,4.4,4.4,5.5,3,5.5z"/></g>
<g transform="translate(440,264) scale(3.7766666666667)"><path d="M6,5.5H3C1.6,5.5,0.5,4.4,0.5,3v0c0-1.4,1.1-2.5,2.5-2.5h3V5.5z"/></g>
<g transform="translate(462,264) scale(3.7766666666667)"><rect y="0.5" width="6" height="5"/></g>
<g transform="translate(484,264) scale(3.7766666666667)"><path d="M3,5.5H0v-5h3c1.4,0,2.5,1.1,2.5,2.5v0C5.5,4.4,4.4,5.5,3,5.5z"/></g>
<g transform="translate(528,264) scale(3.7766666666667)"><circle cx="3" cy="3" r="2.5"/></g>
<g transform="translate(572,264) scale(3.7766666666667)"><circle cx="3" cy="3" r="2.5"/></g>
<g transform="translate(616,264) scale(3.7766666666667)"><path d="M6,5.5H3C1.6,5.5,0.5,4.4,0.5,3v0c0-1.4,1.1-2.5,2.5-2.5h3V5.5z"/></g>
<g transform="translate(638,264) scale(3.7766666666667)"><rect y="0.5" width="6" height="5"/></g>
<g transform="translate(660,264) scale(3.7766666666667)"><rect y="0.5" width="6" height="5"/></g>
<g transform="translate(682,264) scale(3.7766666666667)"><rect y="0.5" width="6" height="5"/></g>
<g transform="translate(704,264) scale(3.7766666666667)"><path d="M3,5.5H0v-5h3c1.4,0,2.5,1.1,2.5,2.5v0C5.5,4.4,4.4,5.5,3,5.5z"/></g>
<g transform="translate(748,264) scale(3.7766666666667)"><circle cx="3" cy="3" r="2.5"/></g>
<g transform="translate(836,264) scale(3.7766666666667)"><circle cx="3" cy="3" r="2.5"/></g>
<g transform="translate(66,286) scale(3.7766666666667)"><circle cx="3" cy="3" r="2.5"/></g>
<g transform="translate(110,286) scale(3.7766666666667)"><circle cx="3" cy="3" r="2.5"/></g>
<g transform="translate(198,286) scale(3.7766666666667)"><path d="M6,5.5H3C1.6,5.5,0.5,4.4,0.5,3v0c0-1.4,1.1-2.5,2.5-2.5h3V5.5z"/></g>
<g transform="translate(220,286) scale(3.7766666666667)"><rect y="0.5" width="6" height="5"/></g>
<g transform="translate(242,286) scale(3.7766666666667)"><rect y="0.5" width="6" height="5"/></g>
<g transform="translate(264,286) scale(3.7766666666667)"><path d="M3,5.5H0v-5h3c1.4,0,2.5,1.1,2.5,2.5v0C5.5,4.4,4.4,5.5,3,5.5z"/></g>
<g transform="translate(330,286) scale(3.7766666666667)"><path d="M6,5.5H3C1.6,5.5,0.5,4.4,0.5,3v0c0-1.4,1.1-2.5,2.5-2.5h3V5.5z"/></g>
<g transform="translate(352,286) scale(3.7766666666667)"><path d="M3,5.5H0v-5h3c1.4,0,2.5,1.1,2.5,2.5v0C5.5,4.4,4.4,5.5,3,5.5z"/></g>
<g transform="translate(396,286) scale(3.7766666666667)"><path d="M6,5.5H3C1.6,5.5,0.5,4.4,0.5,3v0c0-1.4,1.1-2.5,2.5-2.5h3V5.5z"/></g>
<g transform="translate(418,286) scale(3.7766666666667)"><path d="M3,5.5H0v-5h3c1.4,0,2.5,1.1,2.5,2.5v0C5.5,4.4,4.4,5.5,3,5.5z"/></g>
<g transform="translate(462,286) scale(3.7766666666667)"><path d="M6,5.5H3C1.6,5.5,0.5,4.4,0.5,3v0c0-1.4,1.1-2.5,2.5-2.5h3V5.5z"/></g>
<g transform="translate(484,286) scale(3.7766666666667)"><path d="M3,5.5H0v-5h3c1.4,0,2.5,1.1,2.5,2.5v0C5.5,4.4,4.4,5.5,3,5.5z"/></g>
<g transform="translate(528,286) scale(3.7766666666667)"><path d="M6,5.5H3C1.6,5.5,0.5,4.4,0.5,3v0c0-1.4,1.1-2.5,2.5-2.5h3V5.5z"/></g>
<g transform="translate(550,286) scale(3.7766666666667)"><rect y="0.5" width="6" height="5"/></g>
<g transform="translate(572,286) scale(3.7766666666667)"><rect y="0.5" width="6" height="5"/></g>
<g transform="translate(594,286) scale(3.7766666666667)"><path d="M3,5.5H0v-5h3c1.4,0,2.5,1.1,2.5,2.5v0C5.5,4.4,4.4,5.5,3,5.5z"/></g>
<g transform="translate(638,286) scale(3.7766666666667)"><circle cx="3" cy="3" r="2.5"/></g>
<g transform="translate(726,286) scale(3.7766666666667)"><path d="M6,5.5H3C1.6,5.5,0.5,4.4,0.5,3v0c0-1.4,1.1-2.5,2.5-2.5h3V5.5z"/></g>
<g transform="translate(748,286) scale(3.7766666666667)"><path d="M3,5.5H0v-5h3c1.4,0,2.5,1.1,2.5,2.5v0C5.5,4.4,4.4,5.5,3,5.5z"/></g>
<g transform="translate(836,286) scale(3.7766666666667)"><path d="M6,5.5H3C1.6,5.5,0.5,4.4,0.5,3v0c0-1.4,1.1-2.5,2.5-2.5h3V5.5z"/></g>
<g transform="translate(858,286) scale(3.7766666666667)"><path d="M3,5.5H0v-5h3c1.4,0,2.5,1.1,2.5,2.5v0C5.5,4.4,4.4,5.5,3,5.5z"/></g>
<g transform="translate(902,286) scale(3.7766666666667)"><path d="M6,5.5H3C1.6,5.5,0.5,4.4,0.5,3v0c0-1.4,1.1-2.5,2.5-2.5h3V5.5z"/></g>
<g transform="translate(924,286) scale(3.7766666666667)"><path d="M3,5.5H0v-5h3c1.4,0,2.5,1.1,2.5,2.5v0C5.5,4.4,4.4,5.5,3,5.5z"/></g>
<g transform="translate(66,308) scale(3.7766666666667)"><path d="M6,5.5H3C1.6,5.5,0.5,4.4,0.5,3v0c0-1.4,1.1-2.5,2.5-2.5h3V5.5z"/></g>
<g transform="translate(88,308) scale(3.7766666666667)"><rect y="0.5" width="6" height="5"/></g>
<g transform="translate(110,308) scale(3.7766666666667)"><path d="M3,5.5H0v-5h3c1.4,0,2.5,1.1,2.5,2.5v0C5.5,4.4,4.4,5.5,3,5.5z"/></g>
<g transform="translate(154,308) scale(3.7766666666667)"><path d="M6,5.5H3C1.6,5.5,0.5,4.4,0.5,3v0c0-1.4,1.1-2.5,2.5-2.5h3V5.5z"/></g>
<g transform="translate(176,308) scale(3.7766666666667)"><rect y="0.5" width="6" height="5"/></g>
<g transform="translate(198,308) scale(3.7766666666667)"><rect y="0.5" width="6" height="5"/></g>
<g transform="translate(220,308) scale(3.7766666666667)"><path d="M3,5.5H0v-5h3c1.4,0,2.5,1.1,2.5,2.5v0C5.5,4.4,4.4,5.5,3,5.5z"/></g>
<g transform="translate(286,308) scale(3.7766666666667)"><circle cx="3" cy="3" r="2.5"/></g>
<g transform="translate(352,308) scale(3.7766666666667)"><path d="M6,5.5H3C1.6,5.5,0.5,4.4,0.5,3v0c0-1.4,1.1-2.5,2.5-2.5h3V5.5z"/></g>
<g transform="translate(374,308) scale(3.7766666666667)"><rect y="0.5" width="6" height="5"/></g>
<g transform="translate(396,308) scale(3.7766666666667)"><rect y="0.5" width="6" height="5"/></g>
<g transform="translate(418,308) scale(3.7766666666667)"><path d="M3,5.5H0v-5h3c1.4,0,2.5,1.1,2.5,2.5v0C5.5,4.4,4.4,5.5,3,5.5z"/></g>
<g transform="translate(462,308) scale(3.7766666666667)"><circle cx="3" cy="3" r="2.5"/></g>
<g transform="translate(506,308) scale(3.7766666666667)"><path d="M6,5.5H3C1.6,5.5,0.5,4.4,0.5,3v0c0-1.4,1.1-2.5,2.5-2.5h3V5.5z"/></g>
<g transform="translate(528,308) scale(3.7766666666667)"><path d="M3,5.5H0v-5h3c1.4,0,2.5,1.1,2.5,2.5v0C5.5,4.4,4.4,5.5,3,5.5z"/></g>
<g transform="translate(572,308) scale(3.7766666666667)"><path d="M6,5.5H3C1.6,5.5,0.5,4.4,0.5,3v0c0-1.4,1.1-2.5,2.5-2.5h3V5.5z"/></g>
<g transform="translate(594,308) scale(3.7766666666667)"><rect y="0.5" width="6" height="5"/></g>
<g transform="translate(616,308) scale(3.7766666666667)"><rect y="0.5" width="6" height="5"/></g>
<g transform="translate(638,308) scale(3.7766666666667)"><rect y="0.5" width="6" height="5"/></g>
<g transform="translate(660,308) scale(3.7766666666667)"><rect y="0.5" width="6" height="5"/></g>
<g transform="translate(682,308) scale(3.7766666666667)"><path d="M3,5.5H0v-5h3c1.4,0,2.5,1.1,2.5,2.5v0C5.5,4.4,4.4,5.5,3,5.5z"/></g>
<g transform="translate(726,308) scale(3.7766666666667)"><circle cx="3" cy="3" r="2.5"/></g>
<g transform="translate(858,308) scale(3.7766666666667)"><path d="M6,5.5H3C1.6,5.5,0.5,4.4,0.5,3v0c0-1.4,1.1-2.5,2.5-2.5h3V5.5z"/></g>
<g transform="translate(880,308) scale(3.7766666666667)"><rect y="0.5" width="6" height="5"/></g>
<g transform="translate(902,308) scale(3.7766666666667)"><path d="M3,5.5H0v-5h3c1.4,0,2.5,1.1,2.5,2.5v0C5.5,4.4,4.4,5.5,3,5.5z"/></g>
<g transform="translate(44,330) scale(3.7766666666667)"><path d="M6,5.5H3C1.6,5.5,0.5,4.4,0.5,3v0c0-1.4,1.1-2.5,2.5-2.5h3V5.5z"/></g>
<g transform="translate(66,330) scale(3.7766666666667)"><rect y="0.5" width="6" height="5"/></g>
<g transform="translate(88,330) scale(3.7766666666667)"><rect y="0.5" width="6" height="5"/></g>
<g transform="translate(110,330) scale(3.7766666666667)"><path d="M3,5.5H0v-5h3c1.4,0,2.5,1.1,2.5,2.5v0C5.5,4.4,4.4,5.5,3,5.5z"/></g>
<g transform="translate(198,330) scale(3.7766666666667)"><circle cx="3" cy="3" r="2.5"/></g>
<g transform="translate(264,330) scale(3.7766666666667)"><path d="M6,5.5H3C1.6,5.5,0.5,4.4,0.5,3v0c0-1.4,1.1-2.5,2.5-2.5h3V5.5z"/></g>
<g transform="translate(286,330) scale(3.7766666666667)"><rect y="0.5" width="6" height="5"/></g>
<g transform="translate(308,330) scale(3.7766666666667)"><path d="M3,5.5H0v-5h3c1.4,0,2.5,1.1,2.5,2.5v0C5.5,4.4,4.4,5.5,3,5.5z"/></g>
<g transform="translate(352,330) scale(3.7766666666667)"><circle cx="3" cy="3" r="2.5"/></g>
<g transform="translate(396,330) scale(3.7766666666667)"><circle cx="3" cy="3" r="2.5"/></g>
<g transform="translate(440,330) scale(3.7766666666667)"><path d="M6,5.5H3C1.6,5.5,0.5,4.4,0.5,3v0c0-1.4,1.1-2.5,2.5-2.5h3V5.5z"/></g>
<g transform="translate(462,330) scale(3.7766666666667)"><rect y="0.5" width="6" height="5"/></g>
<g transform="translate(484,330) scale(3.7766666666667)"><path d="M3,5.5H0v-5h3c1.4,0,2.5,1.1,2.5,2.5v0C5.5,4.4,4.4,5.5,3,5.5z"/></g>
<g transform="translate(528,330) scale(3.7766666666667)"><path d="M6,5.5H3C1.6,5.5,0.5,4.4,0.5,3v0c0-1.4,1.1-2.5,2.5-2.5h3V5.5z"/></g>
<g transform="translate(550,330) scale(3.7766666666667)"><path d="M3,5.5H0v-5h3c1.4,0,2.5,1.1,2.5,2.5v0C5.5,4.4,4.4,5.5,3,5.5z"/></g>
<g transform="translate(594,330) scale(3.7766666666667)"><path d="M6,5.5H3C1.6,5.5,0.5,4.4,0.5,3v0c0-1.4,1.1-2.5,2.5-2.5h3V5.5z"/></g>
<g transform="translate(616,330) scale(3.7766666666667)"><rect y="0.5" width="6" height="5"/></g>
<g transform="translate(638,330) scale(3.7766666666667)"><path d="M3,5.5H0v-5h3c1.4,0,2.5,1.1,2.5,2.5v0C5.5,4.4,4.4,5.5,3,5.5z"/></g>
<g transform="translate(682,330) scale(3.7766666666667)"><circle cx="3" cy="3" r="2.5"/></g>
<g transform="translate(726,330) scale(3.7766666666667)"><path d="M6,5.5H3C1.6,5.5,0.5,4.4,0.5,3v0c0-1.4,1.1-2.5,2.5-2.5h3V5.5z"/></g>
<g transform="translate(748,330) scale(3.7766666666667)"><path d="M3,5.5H0v-5h3c1.4,0,2.5,1.1,2.5,2.5v0C5.5,4.4,4.4,5.5,3,5.5z"/></g>
<g transform="translate(792,330) scale(3.7766666666667)"><path d="M6,5.5H3C1.6,5.5,0.5,4.4,0.5,3v0c0-1.4,1.1-2.5,2.5-2.5h3V5.5z"/></g>
<g transform="translate(814,330) scale(3.7766666666667)"><rect y="0.5" width="6" height="5"/></g>
<g transform="translate(836,330) scale(3.7766666666667)"><rect y="0.5" width="6" height="5"/></g>
<g transform="translate(858,330) scale(3.7766666666667)"><path d="M3,5.5H0v-5h3c1.4,0,2.5,1.1,2.5,2.5v0C5.5,4.4,4.4,5.5,3,5.5z"/></g>
<g transform="translate(924,330) scale(3.7766666666667)"><circle cx="3" cy="3" r="2.5"/></g>
<g transform="translate(66,352) scale(3.7766666666667)"><path d="M6,5.5H3C1.6,5.5,0.5,4.4,0.5,3v0c0-1.4,1.1-2.5,2.5-2.5h3V5.5z"/></g>
<g transform="translate(88,352) scale(3.7766666666667)"><rect y="0.5" width="6" height="5"/></g>
<g transform="translate(110,352) scale(3.7766666666667)"><rect y="0.5" width="6" height="5"/></g>
<g transform="translate(132,352) scale(3.7766666666667)"><rect y="0.5" width="6" height="5"/></g>
<g transform="translate(154,352) scale(3.7766666666667)"><rect y="0.5" width="6" height="5"/></g>
<g transform="translate(176,352) scale(3.7766666666667)"><rect y="0.5" width="6" height="5"/></g>
<g transform="translate(198,352) scale(3.7766666666667)"><rect y="0.5" width="6" height="5"/></g>
<g transform="translate(220,352) scale(3.7766666666667)"><rect y="0.5" width="6" height="5"/></g>
<g transform="translate(242,352) scale(3.7766666666667)"><path d="M3,5.5H0v-5h3c1.4,0,2.5,1.1,2.5,2.5v0C5.5,4.4,4.4,5.5,3,5.5z"/></g>
<g transform="translate(352,352) scale(3.7766666666667)"><path d="M6,5.5H3C1.6,5.5,0.5,4.4,0.5,3v0c0-1.4,1.1-2.5,2.5-2.5h3V5.5z"/></g>
<g transform="translate(374,352) scale(3.7766666666667)"><path d="M3,5.5H0v-5h3c1.4,0,2.5,1.1,2.5,2.5v0C5.5,4.4,4.4,5.5,3,5.5z"/></g>
<g transform="translate(440,352) scale(3.7766666666667)"><path d="M6,5.5H3C1.6,5.5,0.5,4.4,0.5,3v0c0-1.4,1.1-2.5,2.5-2.5h3V5.5z"/></g>
<g transform="translate(462,352) scale(3.7766666666667)"><path d="M3,5.5H0v-5h3c1.4,0,2.5,1.1,2.5,2.5v0C5.5,4.4,4.4,5.5,3,5.5z"/></g>
<g transform="translate(550,352) scale(3.7766666666667)"><path d="M6,5.5H3C1.6,5.5,0.5,4.4,0.5,3v0c0-1.4,1.1-2.5,2.5-2.5h3V5.5z"/></g>
<g transform="translate(572,352) scale(3.7766666666667)"><rect y="0.5" width="6" height="5"/></g>
<g transform="translate(594,352) scale(3.7766666666667)"><rect y="0.5" width="6" height="5"/></g>
<g transform="translate(616,352) scale(3.7766666666667)"><rect y="0.5" width="6" height="5"/></g>
<g transform="translate(638,352) scale(3.7766666666667)"><rect y="0.5" width="6" height="5"/></g>
<g transform="translate(660,352) scale(3.7766666666667)"><path d="M3,5.5H0v-5h3c1.4,0,2.5,1.1,2.5,2.5v0C5.5,4.4,4.4,5.5,3,5.5z"/></g>
<g transform="translate(748,352) scale(3.7766666666667)"><path d="M6,5.5H3C1.6,5.5,0.5,4.4,0.5,3v0c0-1.4,1.1-2.5,2.5-2.5h3V5.5z"/></g>
<g transform="translate(770,352) scale(3.7766666666667)"><path d="M3,5.5H0v-5h3c1.4,0,2.5,1.1,2.5,2.5v0C5.5,4.4,4.4,5.5,3,5.5z"/></g>
<g transform="translate(814,352) scale(3.7766666666667)"><circle cx="3" cy="3" r="2.5"/></g>
<g transform="translate(44,374) scale(3.7766666666667)"><circle cx="3" cy="3" r="2.5"/></g>
<g transform="translate(88,374) scale(3.7766666666667)"><path d="M6,5.5H3C1.6,5.5,0.5,4.4,0.5,3v0c0-1.4,1.1-2.5,2.5-2.5h3V5.5z"/></g>
<g transform="translate(110,374) scale(3.7766666666667)"><rect y="0.5" width="6" height="5"/></g>
<g transform="translate(132,374) scale(3.7766666666667)"><path d="M3,5.5H0v-5h3c1.4,0,2.5,1.1,2.5,2.5v0C5.5,4.4,4.4,5.5,3,5.5z"/></g>
<g transform="translate(198,374) scale(3.7766666666667)"><path d="M6,5.5H3C1.6,5.5,0.5,4.4,0.5,3v0c0-1.4,1.1-2.5,2.5-2.5h3V5.5z"/></g>
<g transform="translate(220,374) scale(3.7766666666667)"><rect y="0.5" width="6" height="5"/></g>
<g transform="translate(242,374) scale(3.7766666666667)"><path d="M3,5.5H0v-5h3c1.4,0,2.5,1.1,2.5,2.5v0C5.5,4.4,4.4,5.5,3,5.5z"/></g>
<g transform="translate(308,374) scale(3.7766666666667)"><circle cx="3" cy="3" r="2.5"/></g>
<g transform="translate(374,374) scale(3.7766666666667)"><circle cx="3" cy="3" r="2.5"/></g>
<g transform="translate(462,374) scale(3.7766666666667)"><path d="M6,5.5H3C1.6,5.5,0.5,4.4,0.5,3v0c0-1.4,1.1-2.5,2.5-2.5h3V5.5z"/></g>
<g transform="translate(484,374) scale(3.7766666666667)"><path d="M3,5.5H0v-5h3c1.4,0,2.5,1.1,2.5,2.5v0C5.5,4.4,4.4,5.5,3,5.5z"/></g>
<g transform="translate(550,374) scale(3.7766666666667)"><path d="M6,5.5H3C1.6,5.5,0.5,4.4,0.5,3v0c0-1.4,1.1-2.5,2.5-2.5h3V5.5z"/></g>
<g transform="translate(572,374) scale(3.7766666666667)"><path d="M3,5.5H0v-5h3c1.4,0,2.5,1.1,2.5,2.5v0C5.5,4.4,4.4,5.5,3,5.5z"/></g>
<g transform="translate(616,374) scale(3.7766666666667)"><path d="M6,5.5H3C1.6,5.5,0.5,4.4,0.5,3v0c0-1.4,1.1-2.5,2.5-2.5h3V5.5z"/></g>
<g transform="translate(638,374) scale(3.7766666666667)"><path d="M3,5.5H0v-5h3c1.4,0,2.5,1.1,2.5,2.5v0C5.5,4.4,4.4,5.5,3,5.5z"/></g>
<g transform="translate(726,374) scale(3.7766666666667)"><circle cx="3" cy="3" r="2.5"/></g>
<g transform="translate(792,374) scale(3.7766666666667)"><circle cx="3" cy="3" r="2.5"/></g>
<g transform="translate(836,374) scale(3.7766666666667)"><path d="M6,5.5H3C1.6,5.5,0.5,4.4,0.5,3v0c0-1.4,1.1-2.5,2.5-2.5h3V5.5z"/></g>
<g transform="translate(858,374) scale(3.7766666666667)"><path d="M3,5.5H0v-5h3c1.4,0,2.5,1.1,2.5,2.5v0C5.5,4.4,4.4,5.5,3,5.5z"/></g>
<g transform="translate(902,374) scale(3.7766666666667)"><path d="M6,5.5H3C1.6,5.5,0.5,4.4,0.5,3v0c0-1.4,1.1-2.5,2.5-2.5h3V5.5z"/></g>
<g transform="translate(924,374) scale(3.7766666666667)"><path d="M3,5.5H0v-5h3c1.4,0,2.5,1.1,2.5,2.5v0C5.5,4.4,4.4,5.5,3,5.5z"/></g>
<g transform="translate(44,396) scale(3.7766666666667)"><circle cx="3" cy="3" r="2.5"/></g>
<g transform="translate(110,396) scale(3.7766666666667)"><circle cx="3" cy="3" r="2.5"/></g>
<g transform="translate(154,396) scale(3.7766666666667)"><path d="M6,5.5H3C1.6,5.5,0.5,4.4,0.5,3v0c0-1.4,1.1-2.5,2.5-2.5h3V5.5z"/></g>
<g transform="translate(176,396) scale(3.7766666666667)"><path d="M3,5.5H0v-5h3c1.4,0,2.5,1.1,2.5,2.5v0C5.5,4.4,4.4,5.5,3,5.5z"/></g>
<g transform="translate(220,396) scale(3.7766666666667)"><path d="M6,5.5H3C1.6,5.5,0.5,4.4,0.5,3v0c0-1.4,1.1-2.5,2.5-2.5h3V5.5z"/></g>
<g transform="translate(242,396) scale(3.7766666666667)"><rect y="0.5" width="6" height="5"/></g>
<g transform="translate(264,396) scale(3.7766666666667)"><path d="M3,5.5H0v-5h3c1.4,0,2.5,1.1,2.5,2.5v0C5.5,4.4,4.4,5.5,3,5.5z"/></g>
<g transform="translate(374,396) scale(3.7766666666667)"><circle cx="3" cy="3" r="2.5"/></g>
<g transform="translate(418,396) scale(3.7766666666667)"><circle cx="3" cy="3" r="2.5"/></g>
<g transform="translate(462,396) scale(3.7766666666667)"><circle cx="3" cy="3" r="2.5"/></g>
<g transform="translate(550,396) scale(3.7766666666667)"><path d="M6,5.5H3C1.6,5.5,0.5,4.4,0.5,3v0c0-1.4,1.1-2.5,2.5-2.5h3V5.5z"/></g>
<g transform="translate(572,396) scale(3.7766666666667)"><path d="M3,5.5H0v-5h3c1.4,0,2.5,1.1,2.5,2.5v0C5.5,4.4,4.4,5.5,3,5.5z"/></g>
<g transform="translate(616,396) scale(3.7766666666667)"><path d="M6,5.5H3C1.6,5.5,0.5,4.4,0.5,3v0c0-1.4,1.1-2.5,2.5-2.5h3V5.5z"/></g>
<g transform="translate(638,396) scale(3.7766666666667)"><path d="M3,5.5H0v-5h3c1.4,0,2.5,1.1,2.5,2.5v0C5.5,4.4,4.4,5.5,3,5.5z"/></g>
<g transform="translate(682,396) scale(3.7766666666667)"><path d="M6,5.5H3C1.6,5.5,0.5,4.4,0.5,3v0c0-1.4,1.1-2.5,2.5-2.5h3V5.5z"/></g>
<g transform="translate(704,396) scale(3.7766666666667)"><path d="M3,5.5H0v-5h3c1.4,0,2.5,1.1,2.5,2.5v0C5.5,4.4,4.4,5.5,3,5.5z"/></g>
<g transform="translate(748,396) scale(3.7766666666667)"><path d="M6,5.5H3C1.6,5.5,0.5,4.4,0.5,3v0c0-1.4,1.1-2.5,2.5-2.5h3V5.5z"/></g>
<g transform="translate(770,396) scale(3.7766666666667)"><path d="M3,5.5H0v-5h3c1.4,0,2.5,1.1,2.5,2.5v0C5.5,4.4,4.4,5.5,3,5.5z"/></g>
<g transform="translate(814,396) scale(3.7766666666667)"><circle cx="3" cy="3" r="2.5"/></g>
<g transform="translate(880,396) scale(3.7766666666667)"><circle cx="3" cy="3" r="2.5"/></g>
<g transform="translate(924,396) scale(3.7766666666667)"><circle cx="3" cy="3" r="2.5"/></g>
<g transform="translate(154,418) scale(3.7766666666667)"><circle cx="3" cy="3" r="2.5"/></g>
<g transform="translate(198,418) scale(3.7766666666667)"><circle cx="3" cy="3" r="2.5"/></g>
<g transform="translate(242,418) scale(3.7766666666667)"><path d="M6,5.5H3C1.6,5.5,0.5,4.4,0.5,3v0c0-1.4,1.1-2.5,2.5-2.5h3V5.5z"/></g>
<g transform="translate(264,418) scale(3.7766666666667)"><path d="M3,5.5H0v-5h3c1.4,0,2.5,1.1,2.5,2.5v0C5.5,4.4,4.4,5.5,3,5.5z"/></g>
<g transform="translate(308,418) scale(3.7766666666667)"><path d="M6,5.5H3C1.6,5.5,0.5,4.4,0.5,3v0c0-1.4,1.1-2.5,2.5-2.5h3V5.5z"/></g>
<g transform="translate(330,418) scale(3.7766666666667)"><rect y="0.5" width="6" height="5"/></g>
<g transform="translate(352,418) scale(3.7766666666667)"><path d="M3,5.5H0v-5h3c1.4,0,2.5,1.1,2.5,2.5v0C5.5,4.4,4.4,5.5,3,5.5z"/></g>
<g transform="translate(396,418) scale(3.7766666666667)"><circle cx="3" cy="3" r="2.5"/></g>
<g transform="translate(462,418) scale(3.7766666666667)"><path d="M6,5.5H3C1.6,5.5,0.5,4.4,0.5,3v0c0-1.4,1.1-2.5,2.5-2.5h3V5.5z"/></g>
<g transform="translate(484,418) scale(3.7766666666667)"><rect y="0.5" width="6" height="5"/></g>
<g transform="translate(506,418) scale(3.7766666666667)"><path d="M3,5.5H0v-5h3c1.4,0,2.5,1.1,2.5,2.5v0C5.5,4.4,4.4,5.5,3,5.5z"/></g>
<g transform="translate(572,418) scale(3.7766666666667)"><path d="M6,5.5H3C1.6,5.5,0.5,4.4,0.5,3v0c0-1.4,1.1-2.5,2.5-2.5h3V5.5z"/></g>
<g transform="translate(594,418) scale(3.7766666666667)"><path d="M3,5.5H0v-5h3c1.4,0,2.5,1.1,2.5,2.5v0C5.5,4.4,4.4,5.5,3,5.5z"/></g>
<g transform="translate(660,418) scale(3.7766666666667)"><path d="M6,5.5H3C1.6,5.5,0.5,4.4,0.5,3v0c0-1.4,1.1-2.5,2.5-2.5h3V5.5z"/></g>
<g transform="translate(682,418) scale(3.7766666666667)"><path d="M3,5.5H0v-5h3c1.4,0,2.5,1.1,2.5,2.5v0C5.5,4.4,4.4,5.5,3,5.5z"/></g>
<g transform="translate(726,418) scale(3.7766666666667)"><path d="M6,5.5H3C1.6,5.5,0.5,4.4,0.5,3v0c0-1.4,1.1-2.5,2.5-2.5h3V5.5z"/></g>
<g transform="translate(748,418) scale(3.7766666666667)"><path d="M3,5.5H0v-5h3c1.4,0,2.5,1.1,2.5,2.5v0C5.5,4.4,4.4,5.5,3,5.5z"/></g>
<g transform="translate(792,418) scale(3.7766666666667)"><path d="M6,5.5H3C1.6,5.5,0.5,4.4,0.5,3v0c0-1.4,1.1-2.5,2.5-2.5h3V5.5z"/></g>
<g transform="translate(814,418) scale(3.7766666666667)"><rect y="0.5" width="6" height="5"/></g>
<g transform="translate(836,418) scale(3.7766666666667)"><rect y="0.5" width="6" height="5"/></g>
<g transform="translate(858,418) scale(3.7766666666667)"><path d="M3,5.5H0v-5h3c1.4,0,2.5,1.1,2.5,2.5v0C5.5,4.4,4.4,5.5,3,5.5z"/></g>
<g transform="translate(902,418) scale(3.7766666666667)"><path d="M6,5.5H3C1.6,5.5,0.5,4.4,0.5,3v0c0-1.4,1.1-2.5,2.5-2.5h3V5.5z"/></g>
<g transform="translate(924,418) scale(3.7766666666667)"><path d="M3,5.5H0v-5h3c1.4,0,2.5,1.1,2.5,2.5v0C5.5,4.4,4.4,5.5,3,5.5z"/></g>
<g transform="translate(66,440) scale(3.7766666666667)"><path d="M6,5.5H3C1.6,5.5,0.5,4.4,0.5,3v0c0-1.4,1.1-2.5,2.5-2.5h3V5.5z"/></g>
<g transform="translate(88,440) scale(3.7766666666667)"><path d="M3,5.5H0v-5h3c1.4,0,2.5,1.1,2.5,2.5v0C5.5,4.4,4.4,5.5,3,5.5z"/></g>
<g transform="translate(154,440) scale(3.7766666666667)"><path d="M6,5.5H3C1.6,5.5,0.5,4.4,0.5,3v0c0-1.4,1.1-2.5,2.5-2.5h3V5.5z"/></g>
<g transform="translate(176,440) scale(3.7766666666667)"><rect y="0.5" width="6" height="5"/></g>
<g transform="translate(198,440) scale(3.7766666666667)"><path d="M3,5.5H0v-5h3c1.4,0,2.5,1.1,2.5,2.5v0C5.5,4.4,4.4,5.5,3,5.5z"/></g>
<g transform="translate(242,440) scale(3.7766666666667)"><path d="M6,5.5H3C1.6,5.5,0.5,4.4,0.5,3v0c0-1.4,1.1-2.5,2.5-2.5h3V5.5z"/></g>
<g transform="translate(264,440) scale(3.7766666666667)"><rect y="0.5" width="6" height="5"/></g>
<g transform="translate(286,440) scale(3.7766666666667)"><path d="M3,5.5H0v-5h3c1.4,0,2.5,1.1,2.5,2.5v0C5.5,4.4,4.4,5.5,3,5.5z"/></g>
<g transform="translate(352,440) scale(3.7766666666667)"><path d="M6,5.5H3C1.6,5.5,0.5,4.4,0.5,3v0c0-1.4,1.1-2.5,2.5-2.5h3V5.5z"/></g>
<g transform="translate(374,440) scale(3.7766666666667)"><path d="M3,5.5H0v-5h3c1.4,0,2.5,1.1,2.5,2.5v0C5.5,4.4,4.4,5.5,3,5.5z"/></g>
<g transform="translate(440,440) scale(3.7766666666667)"><circle cx="3" cy="3" r="2.5"/></g>
<g transform="translate(506,440) scale(3.7766666666667)"><circle cx="3" cy="3" r="2.5"/></g>
<g transform="translate(572,440) scale(3.7766666666667)"><circle cx="3" cy="3" r="2.5"/></g>
<g transform="translate(638,440) scale(3.7766666666667)"><circle cx="3" cy="3" r="2.5"/></g>
<g transform="translate(792,440) scale(3.7766666666667)"><circle cx="3" cy="3" r="2.5"/></g>
<g transform="translate(836,440) scale(3.7766666666667)"><circle cx="3" cy="3" r="2.5"/></g>
<g transform="translate(44,462) scale(3.7766666666667)"><path d="M6,5.5H3C1.6,5.5,0.5,4.4,0.5,3v0c0-1.4,1.1-2.5,2.5-2.5h3V5.5z"/></g>
<g transform="translate(66,462) scale(3.7766666666667)"><path d="M3,5.5H0v-5h3c1.4,0,2.5,1.1,2.5,2.5v0C5.5,4.4,4.4,5.5,3,5.5z"/></g>
<g transform="translate(132,462) scale(3.7766666666667)"><path d="M6,5.5H3C1.6,5.5,0.5,4.4,0.5,3v0c0-1.4,1.1-2.5,2.5-2.5h3V5.5z"/></g>
<g transform="translate(154,462) scale(3.7766666666667)"><path d="M3,5.5H0v-5h3c1.4,0,2.5,1.1,2.5,2.5v0C5.5,4.4,4.4,5.5,3,5.5z"/></g>
<g transform="translate(220,462) scale(3.7766666666667)"><circle cx="3" cy="3" r="2.5"/></g>
<g transform="translate(330,462) scale(3.7766666666667)"><path d="M6,5.5H3C1.6,5.5,0.5,4.4,0.5,3v0c0-1.4,1.1-2.5,2.5-2.5h3V5.5z"/></g>
<g transform="translate(352,462) scale(3.7766666666667)"><path d="M3,5.5H0v-5h3c1.4,0,2.5,1.1,2.5,2.5v0C5.5,4.4,4.4,5.5,3,5.5z"/></g>
<g transform="translate(396,462) scale(3.7766666666667)"><path d="M6,5.5H3C1.6,5.5,0.5,4.4,0.5,3v0c0-1.4,1.1-2.5,2.5-2.5h3V5.5z"/></g>
<g transform="translate(418,462) scale(3.7766666666667)"><rect y="0.5" width="6" height="5"/></g>
<g transform="translate(440,462) scale(3.7766666666667)"><rect y="0.5" width="6" height="5"/></g>
<g transform="translate(462,462) scale(3.7766666666667)"><path d="M3,5.5H0v-5h3c1.4,0,2.5,1.1,2.5,2.5v0C5.5,4.4,4.4,5.5,3,5.5z"/></g>
<g transform="translate(506,462) scale(3.7766666666667)"><circle cx="3" cy="3" r="2.5"/></g>
<g transform="translate(594,462) scale(3.7766666666667)"><circle cx="3" cy="3" r="2.5"/></g>
<g transform="translate(660,462) scale(3.7766666666667)"><circle cx="3" cy="3" r="2.5"/></g>
<g transform="translate(726,462) scale(3.7766666666667)"><path d="M6,5.5H3C1.6,5.5,0.5,4.4,0.5,3v0c0-1.4,1.1-2.5,2.5-2.5h3V5.5z"/></g>
<g transform="translate(748,462) scale(3.7766666666667)"><path d="M3,5.5H0v-5h3c1.4,0,2.5,1.1,2.5,2.5v0C5.5,4.4,4.4,5.5,3,5.5z"/></g>
<g transform="translate(792,462) scale(3.7766666666667)"><circle cx="3" cy="3" r="2.5"/></g>
<g transform="translate(836,462) scale(3.7766666666667)"><circle cx="3" cy="3" r="2.5"/></g>
<g transform="translate(66,484) scale(3.7766666666667)"><path d="M6,5.5H3C1.6,5.5,0.5,4.4,0.5,3v0c0-1.4,1.1-2.5,2.5-2.5h3V5.5z"/></g>
<g transform="translate(88,484) scale(3.7766666666667)"><path d="M3,5.5H0v-5h3c1.4,0,2.5,1.1,2.5,2.5v0C5.5,4.4,4.4,5.5,3,5.5z"/></g>
<g transform="translate(132,484) scale(3.7766666666667)"><path d="M6,5.5H3C1.6,5.5,0.5,4.4,0.5,3v0c0-1.4,1.1-2.5,2.5-2.5h3V5.5z"/></g>
<g transform="translate(154,484) scale(3.7766666666667)"><rect y="0.5" width="6" height="5"/></g>
<g transform="translate(176,484) scale(3.7766666666667)"><rect y="0.5" width="6" height="5"/></g>
<g transform="translate(198,484) scale(3.7766666666667)"><rect y="0.5" width="6" height="5"/></g>
<g transform="translate(220,484) scale(3.7766666666667)"><path d="M3,5.5H0v-5h3c1.4,0,2.5,1.1,2.5,2.5v0C5.5,4.4,4.4,5.5,3,5.5z"/></g>
<g transform="translate(374,484) scale(3.7766666666667)"><circle cx="3" cy="3" r="2.5"/></g>
<g transform="translate(440,484) scale(3.7766666666667)"><circle cx="3" cy="3" r="2.5"/></g>
<g transform="translate(506,484) scale(3.7766666666667)"><path d="M6,5.5H3C1.6,5.5,0.5,4.4,0.5,3v0c0-1.4,1.1-2.5,2.5-2.5h3V5.5z"/></g>
<g transform="translate(528,484) scale(3.7766666666667)"><path d="M3,5.5H0v-5h3c1.4,0,2.5,1.1,2.5,2.5v0C5.5,4.4,4.4,5.5,3,5.5z"/></g>
<g transform="translate(594,484) scale(3.7766666666667)"><path d="M6,5.5H3C1.6,5.5,0.5,4.4,0.5,3v0c0-1.4,1.1-2.5,2.5-2.5h3V5.5z"/></g>
<g transform="translate(616,484) scale(3.7766666666667)"><path d="M3,5.5H0v-5h3c1.4,0,2.5,1.1,2.5,2.5v0C5.5,4.4,4.4,5.5,3,5.5z"/></g>
<g transform="translate(682,484) scale(3.7766666666667)"><path d="M6,5.5H3C1.6,5.5,0.5,4.4,0.5,3v0c0-1.4,1.1-2.5,2.5-2.5h3V5.5z"/></g>
<g transform="translate(704,484) scale(3.7766666666667)"><rect y="0.5" width="6" height="5"/></g>
<g transform="translate(726,484) scale(3.7766666666667)"><path d="M3,5.5H0v-5h3c1.4,0,2.5,1.1,2.5,2.5v0C5.5,4.4,4.4,5.5,3,5.5z"/></g>
<g transform="translate(880,484) scale(3.7766666666667)"><circle cx="3" cy="3" r="2.5"/></g>
<g transform="translate(924,484) scale(3.7766666666667)"><circle cx="3" cy="3" r="2.5"/></g>
<g transform="translate(44,506) scale(3.7766666666667)"><circle cx="3" cy="3" r="2.5"/></g>
<g transform="translate(110,506) scale(3.7766666666667)"><circle cx="3" cy="3" r="2.5"/></g>
<g transform="translate(220,506) scale(3.7766666666667)"><path d="M6,5.5H3C1.6,5.5,0.5,4.4,0.5,3v0c0-1.4,1.1-2.5,2.5-2.5h3V5.5z"/></g>
<g transform="translate(242,506) scale(3.7766666666667)"><rect y="0.5" width="6" height="5"/></g>
<g transform="translate(264,506) scale(3.7766666666667)"><rect y="0.5" width="6" height="5"/></g>
<g transform="translate(286,506) scale(3.7766666666667)"><rect y="0.5" width="6" height="5"/></g>
<g transform="translate(308,506) scale(3.7766666666667)"><rect y="0.5" width="6" height="5"/></g>
<g transform="translate(330,506) scale(3.7766666666667)"><path d="M3,5.5H0v-5h3c1.4,0,2.5,1.1,2.5,2.5v0C5.5,4.4,4.4,5.5,3,5.5z"/></g>
<g transform="translate(396,506) scale(3.7766666666667)"><path d="M6,5.5H3C1.6,5.5,0.5,4.4,0.5,3v0c0-1.4,1.1-2.5,2.5-2.5h3V5.5z"/></g>
<g transform="translate(418,506) scale(3.7766666666667)"><rect y="0.5" width="6" height="5"/></g>
<g transform="translate(440,506) scale(3.7766666666667)"><path d="M3,5.5H0v-5h3c1.4,0,2.5,1.1,2.5,2.5v0C5.5,4.4,4.4,5.5,3,5.5z"/></g>
<g transform="translate(506,506) scale(3.7766666666667)"><path d="M6,5.5H3C1.6,5.5,0.5,4.4,0.5,3v0c0-1.4,1.1-2.5,2.5-2.5h3V5.5z"/></g>
<g transform="translate(528,506) scale(3.7766666666667)"><rect y="0.5" width="6" height="5"/></g>
<g transform="translate(550,506) scale(3.7766666666667)"><rect y="0.5" width="6" height="5"/></g>
<g transform="translate(572,506) scale(3.7766666666667)"><rect y="0.5" width="6" height="5"/></g>
<g transform="translate(594,506) scale(3.7766666666667)"><path d="M3,5.5H0v-5h3c1.4,0,2.5,1.1,2.5,2.5v0C5.5,4.4,4.4,5.5,3,5.5z"/></g>
<g transform="translate(660,506) scale(3.7766666666667)"><circle cx="3" cy="3" r="2.5"/></g>
<g transform="translate(704,506) scale(3.7766666666667)"><path d="M6,5.5H3C1.6,5.5,0.5,4.4,0.5,3v0c0-1.4,1.1-2.5,2.5-2.5h3V5.5z"/></g>
<g transform="translate(726,506) scale(3.7766666666667)"><rect y="0.5" width="6" height="5"/></g>
<g transform="translate(748,506) scale(3.7766666666667)"><path d="M3,5.5H0v-5h3c1.4,0,2.5,1.1,2.5,2.5v0C5.5,4.4,4.4,5.5,3,5.5z"/></g>
<g transform="translate(792,506) scale(3.7766666666667)"><path d="M6,5.5H3C1.6,5.5,0.5,4.4,0.5,3v0c0-1.4,1.1-2.5,2.5-2.5h3V5.5z"/></g>
<g transform="translate(814,506) scale(3.7766666666667)"><rect y="0.5" width="6" height="5"/></g>
<g transform="translate(836,506) scale(3.7766666666667)"><rect y="0.5" width="6" height="5"/></g>
<g transform="translate(858,506) scale(3.7766666666667)"><path d="M3,5.5H0v-5h3c1.4,0,2.5,1.1,2.5,2.5v0C5.5,4.4,4.4,5.5,3,5.5z"/></g>
<g transform="translate(902,506) scale(3.7766666666667)"><path d="M6,5.5H3C1.6,5.5,0.5,4.4,0.5,3v0c0-1.4,1.1-2.5,2.5-2.5h3V5.5z"/></g>
<g transform="translate(924,506) scale(3.7766666666667)"><path d="M3,5.5H0v-5h3c1.4,0,2.5,1.1,2.5,2.5v0C5.5,4.4,4.4,5.5,3,5.5z"/></g>
<g transform="translate(88,528) scale(3.7766666666667)"><circle cx="3" cy="3" r="2.5"/></g>
<g transform="translate(132,528) scale(3.7766666666667)"><path d="M6,5.5H3C1.6,5.5,0.5,4.4,0.5,3v0c0-1.4,1.1-2.5,2.5-2.5h3V5.5z"/></g>
<g transform="translate(154,528) scale(3.7766666666667)"><rect y="0.5" width="6" height="5"/></g>
<g transform="translate(176,528) scale(3.7766666666667)"><rect y="0.5" width="6" height="5"/></g>
<g transform="translate(198,528) scale(3.7766666666667)"><path d="M3,5.5H0v-5h3c1.4,0,2.5,1.1,2.5,2.5v0C5.5,4.4,4.4,5.5,3,5.5z"/></g>
<g transform="translate(242,528) scale(3.7766666666667)"><path d="M6,5.5H3C1.6,5.5,0.5,4.4,0.5,3v0c0-1.4,1.1-2.5,2.5-2.5h3V5.5z"/></g>
<g transform="translate(264,528) scale(3.7766666666667)"><path d="M3,5.5H0v-5h3c1.4,0,2.5,1.1,2.5,2.5v0C5.5,4.4,4.4,5.5,3,5.5z"/></g>
<g transform="translate(308,528) scale(3.7766666666667)"><circle cx="3" cy="3" r="2.5"/></g>
<g transform="translate(352,528) scale(3.7766666666667)"><path d="M6,5.5H3C1.6,5.5,0.5,4.4,0.5,3v0c0-1.4,1.1-2.5,2.5-2.5h3V5.5z"/></g>
<g transform="translate(374,528) scale(3.7766666666667)"><rect y="0.5" width="6" height="5"/></g>
<g transform="translate(396,528) scale(3.7766666666667)"><rect y="0.5" width="6" height="5"/></g>
<g transform="translate(418,528) scale(3.7766666666667)"><rect y="0.5" width="6" height="5"/></g>
<g transform="translate(440,528) scale(3.7766666666667)"><rect y="0.5" width="6" height="5"/></g>
<g transform="translate(462,528) scale(3.7766666666667)"><path d="M3,5.5H0v-5h3c1.4,0,2.5,1.1,2.5,2.5v0C5.5,4.4,4.4,5.5,3,5.5z"/></g>
<g transform="translate(506,528) scale(3.7766666666667)"><circle cx="3" cy="3" r="2.5"/></g>
<g transform="translate(616,528) scale(3.7766666666667)"><path d="M6,5.5H3C1.6,5.5,0.5,4.4,0.5,3v0c0-1.4,1.1-2.5,2.5-2.5h3V5.5z"/></g>
<g transform="translate(638,528) scale(3.7766666666667)"><path d="M3,5.5H0v-5h3c1.4,0,2.5,1.1,2.5,2.5v0C5.5,4.4,4.4,5.5,3,5.5z"/></g>
<g transform="translate(770,528) scale(3.7766666666667)"><circle cx="3" cy="3" r="2.5"/></g>
<g transform="translate(836,528) scale(3.7766666666667)"><path d="M6,5.5H3C1.6,5.5,0.5,4.4,0.5,3v0c0-1.4,1.1-2.5,2.5-2.5h3V5.5z"/></g>
<g transform="translate(858,528) scale(3.7766666666667)"><path d="M3,5.5H0v-5h3c1.4,0,2.5,1.1,2.5,2.5v0C5.5,4.4,4.4,5.5,3,5.5z"/></g>
<g transform="translate(44,550) scale(3.7766666666667)"><path d="M6,5.5H3C1.6,5.5,0.5,4.4,0.5,3v0c0-1.4,1.1-2.5,2.5-2.5h3V5.5z"/></g>
<g transform="translate(66,550) scale(3.7766666666667)"><rect y="0.5" width="6" height="5"/></g>
<g transform="translate(88,550) scale(3.7766666666667)"><rect y="0.5" width="6" height="5"/></g>
<g transform="translate(110,550) scale(3.7766666666667)"><path d="M3,5.5H0v-5h3c1.4,0,2.5,1.1,2.5,2.5v0C5.5,4.4,4.4,5.5,3,5.5z"/></g>
<g transform="translate(154,550) scale(3.7766666666667)"><circle cx="3" cy="3" r="2.5"/></g>
<g transform="translate(198,550) scale(3.7766666666667)"><circle cx="3" cy="3" r="2.5"/></g>
<g transform="translate(264,550) scale(3.7766666666667)"><circle cx="3" cy="3" r="2.5"/></g>
<g transform="translate(352,550) scale(3.7766666666667)"><path d="M6,5.5H3C1.6,5.5,0.5,4.4,0.5,3v0c0-1.4,1.1-2.5,2.5-2.5h3V5.5z"/></g>
<g transform="translate(374,550) scale(3.7766666666667)"><rect y="0.5" width="6" height="5"/></g>
<g transform="translate(396,550) scale(3.7766666666667)"><rect y="0.5" width="6" height="5"/></g>
<g transform="translate(418,550) scale(3.7766666666667)"><path d="M3,5.5H0v-5h3c1.4,0,2.5,1.1,2.5,2.5v0C5.5,4.4,4.4,5.5,3,5.5z"/></g>
<g transform="translate(506,550) scale(3.7766666666667)"><path d="M6,5.5H3C1.6,5.5,0.5,4.4,0.5,3v0c0-1.4,1.1-2.5,2.5-2.5h3V5.5z"/></g>
<g transform="translate(528,550) scale(3.7766666666667)"><path d="M3,5.5H0v-5h3c1.4,0,2.5,1.1,2.5,2.5v0C5.5,4.4,4.4,5.5,3,5.5z"/></g>
<g transform="translate(616,550) scale(3.7766666666667)"><circle cx="3" cy="3" r="2.5"/></g>
<g transform="translate(660,550) scale(3.7766666666667)"><circle cx="3" cy="3" r="2.5"/></g>
<g transform="translate(704,550) scale(3.7766666666667)"><path d="M6,5.5H3C1.6,5.5,0.5,4.4,0.5,3v0c0-1.4,1.1-2.5,2.5-2.5h3V5.5z"/></g>
<g transform="translate(726,550) scale(3.7766666666667)"><path d="M3,5.5H0v-5h3c1.4,0,2.5,1.1,2.5,2.5v0C5.5,4.4,4.4,5.5,3,5.5z"/></g>
<g transform="translate(770,550) scale(3.7766666666667)"><path d="M6,5.5H3C1.6,5.5,0.5,4.4,0.5,3v0c0-1.4,1.1-2.5,2.5-2.5h3V5.5z"/></g>
<g transform="translate(792,550) scale(3.7766666666667)"><rect y="0.5" width="6" height="5"/></g>
<g transform="translate(814,550) scale(3.7766666666667)"><rect y="0.5" width="6" height="5"/></g>
<g transform="translate(836,550) scale(3.7766666666667)"><rect y="0.5" width="6" height="5"/></g>
<g transform="translate(858,550) scale(3.7766666666667)"><path d="M3,5.5H0v-5h3c1.4,0,2.5,1.1,2.5,2.5v0C5.5,4.4,4.4,5.5,3,5.5z"/></g>
<g transform="translate(924,550) scale(3.7766666666667)"><circle cx="3" cy="3" r="2.5"/></g>
<g transform="translate(44,572) scale(3.7766666666667)"><path d="M6,5.5H3C1.6,5.5,0.5,4.4,0.5,3v0c0-1.4,1.1-2.5,2.5-2.5h3V5.5z"/></g>
<g transform="translate(66,572) scale(3.7766666666667)"><rect y="0.5" width="6" height="5"/></g>
<g transform="translate(88,572) scale(3.7766666666667)"><path d="M3,5.5H0v-5h3c1.4,0,2.5,1.1,2.5,2.5v0C5.5,4.4,4.4,5.5,3,5.5z"/></g>
<g transform="translate(154,572) scale(3.7766666666667)"><path d="M6,5.5H3C1.6,5.5,0.5,4.4,0.5,3v0c0-1.4,1.1-2.5,2.5-2.5h3V5.5z"/></g>
<g transform="translate(176,572) scale(3.7766666666667)"><rect y="0.5" width="6" height="5"/></g>
<g transform="translate(198,572) scale(3.7766666666667)"><path d="M3,5.5H0v-5h3c1.4,0,2.5,1.1,2.5,2.5v0C5.5,4.4,4.4,5.5,3,5.5z"/></g>
<g transform="translate(242,572) scale(3.7766666666667)"><path d="M6,5.5H3C1.6,5.5,0.5,4.4,0.5,3v0c0-1.4,1.1-2.5,2.5-2.5h3V5.5z"/></g>
<g transform="translate(264,572) scale(3.7766666666667)"><rect y="0.5" width="6" height="5"/></g>
<g transform="translate(286,572) scale(3.7766666666667)"><rect y="0.5" width="6" height="5"/></g>
<g transform="translate(308,572) scale(3.7766666666667)"><rect y="0.5" width="6" height="5"/></g>
<g transform="translate(330,572) scale(3.7766666666667)"><path d="M3,5.5H0v-5h3c1.4,0,2.5,1.1,2.5,2.5v0C5.5,4.4,4.4,5.5,3,5.5z"/></g>
<g transform="translate(374,572) scale(3.7766666666667)"><path d="M6,5.5H3C1.6,5.5,0.5,4.4,0.5,3v0c0-1.4,1.1-2.5,2.5-2.5h3V5.5z"/></g>
<g transform="translate(396,572) scale(3.7766666666667)"><path d="M3,5.5H0v-5h3c1.4,0,2.5,1.1,2.5,2.5v0C5.5,4.4,4.4,5.5,3,5.5z"/></g>
<g transform="translate(440,572) scale(3.7766666666667)"><path d="M6,5.5H3C1.6,5.5,0.5,4.4,0.5,3v0c0-1.4,1.1-2.5,2.5-2.5h3V5.5z"/></g>
<g transform="translate(462,572) scale(3.7766666666667)"><rect y="0.5" width="6" height="5"/></g>
<g transform="translate(484,572) scale(3.7766666666667)"><rect y="0.5" width="6" height="5"/></g>
<g transform="translate(506,572) scale(3.7766666666667)"><path d="M3,5.5H0v-5h3c1.4,0,2.5,1.1,2.5,2.5v0C5.5,4.4,4.4,5.5,3,5.5z"/></g>
<g transform="translate(572,572) scale(3.7766666666667)"><circle cx="3" cy="3" r="2.5"/></g>
<g transform="translate(682,572) scale(3.7766666666667)"><circle cx="3" cy="3" r="2.5"/></g>
<g transform="translate(814,572) scale(3.7766666666667)"><circle cx="3" cy="3" r="2.5"/></g>
<g transform="translate(880,572) scale(3.7766666666667)"><circle cx="3" cy="3" r="2.5"/></g>
<g transform="translate(110,594) scale(3.7766666666667)"><circle cx="3" cy="3" r="2.5"/></g>
<g transform="translate(220,594) scale(3.7766666666667)"><path d="M6,5.5H3C1.6,5.5,0.5,4.4,0.5,3v0c0-1.4,1.1-2.5,2.5-2.5h3V5.5z"/></g>
<g transform="translate(242,594) scale(3.7766666666667)"><path d="M3,5.5H0v-5h3c1.4,0,2.5,1.1,2.5,2.5v0C5.5,4.4,4.4,5.5,3,5.5z"/></g>
<g transform="translate(286,594) scale(3.7766666666667)"><path d="M6,5.5H3C1.6,5.5,0.5,4.4,0.5,3v0c0-1.4,1.1-2.5,2.5-2.5h3V5.5z"/></g>
<g transform="translate(308,594) scale(3.7766666666667)"><rect y="0.5" width="6" height="5"/></g>
<g transform="translate(330,594) scale(3.7766666666667)"><path d="M3,5.5H0v-5h3c1.4,0,2.5,1.1,2.5,2.5v0C5.5,4.4,4.4,5.5,3,5.5z"/></g>
<g transform="translate(418,594) scale(3.7766666666667)"><circle cx="3" cy="3" r="2.5"/></g>
<g transform="translate(462,594) scale(3.7766666666667)"><path d="M6,5.5H3C1.6,5.5,0.5,4.4,0.5,3v0c0-1.4,1.1-2.5,2.5-2.5h3V5.5z"/></g>
<g transform="translate(484,594) scale(3.7766666666667)"><rect y="0.5" width="6" height="5"/></g>
<g transform="translate(506,594) scale(3.7766666666667)"><rect y="0.5" width="6" height="5"/></g>
<g transform="translate(528,594) scale(3.7766666666667)"><path d="M3,5.5H0v-5h3c1.4,0,2.5,1.1,2.5,2.5v0C5.5,4.4,4.4,5.5,3,5.5z"/></g>
<g transform="translate(572,594) scale(3.7766666666667)"><circle cx="3" cy="3" r="2.5"/></g>
<g transform="translate(660,594) scale(3.7766666666667)"><circle cx="3" cy="3" r="2.5"/></g>
<g transform="translate(704,594) scale(3.7766666666667)"><path d="M6,5.5H3C1.6,5.5,0.5,4.4,0.5,3v0c0-1.4,1.1-2.5,2.5-2.5h3V5.5z"/></g>
<g transform="translate(726,594) scale(3.7766666666667)"><path d="M3,5.5H0v-5h3c1.4,0,2.5,1.1,2.5,2.5v0C5.5,4.4,4.4,5.5,3,5.5z"/></g>
<g transform="translate(770,594) scale(3.7766666666667)"><path d="M6,5.5H3C1.6,5.5,0.5,4.4,0.5,3v0c0-1.4,1.1-2.5,2.5-2.5h3V5.5z"/></g>
<g transform="translate(792,594) scale(3.7766666666667)"><rect y="0.5" width="6" height="5"/></g>
<g transform="translate(814,594) scale(3.7766666666667)"><rect y="0.5" width="6" height="5"/></g>
<g transform="translate(836,594) scale(3.7766666666667)"><rect y="0.5" width="6" height="5"/></g>
<g transform="translate(858,594) scale(3.7766666666667)"><path d="M3,5.5H0v-5h3c1.4,0,2.5,1.1,2.5,2.5v0C5.5,4.4,4.4,5.5,3,5.5z"/></g>
<g transform="translate(924,594) scale(3.7766666666667)"><circle cx="3" cy="3" r="2.5"/></g>
<g transform="translate(66,616) scale(3.7766666666667)"><path d="M6,5.5H3C1.6,5.5,0.5,4.4,0.5,3v0c0-1.4,1.1-2.5,2.5-2.5h3V5.5z"/></g>
<g transform="translate(88,616) scale(3.7766666666667)"><rect y="0.5" width="6" height="5"/></g>
<g transform="translate(110,616) scale(3.7766666666667)"><path d="M3,5.5H0v-5h3c1.4,0,2.5,1.1,2.5,2.5v0C5.5,4.4,4.4,5.5,3,5.5z"/></g>
<g transform="translate(176,616) scale(3.7766666666667)"><circle cx="3" cy="3" r="2.5"/></g>
<g transform="translate(286,616) scale(3.7766666666667)"><path d="M6,5.5H3C1.6,5.5,0.5,4.4,0.5,3v0c0-1.4,1.1-2.5,2.5-2.5h3V5.5z"/></g>
<g transform="translate(308,616) scale(3.7766666666667)"><path d="M3,5.5H0v-5h3c1.4,0,2.5,1.1,2.5,2.5v0C5.5,4.4,4.4,5.5,3,5.5z"/></g>
<g transform="translate(352,616) scale(3.7766666666667)"><circle cx="3" cy="3" r="2.5"/></g>
<g transform="translate(396,616) scale(3.7766666666667)"><path d="M6,5.5H3C1.6,5.5,0.5,4.4,0.5,3v0c0-1.4,1.1-2.5,2.5-2.5h3V5.5z"/></g>
<g transform="translate(418,616) scale(3.7766666666667)"><rect y="0.5" width="6" height="5"/></g>
<g transform="translate(440,616) scale(3.7766666666667)"><rect y="0.5" width="6" height="5"/></g>
<g transform="translate(462,616) scale(3.7766666666667)"><rect y="0.5" width="6" height="5"/></g>
<g transform="translate(484,616) scale(3.7766666666667)"><rect y="0.5" width="6" height="5"/></g>
<g transform="translate(506,616) scale(3.7766666666667)"><rect y="0.5" width="6" height="5"/></g>
<g transform="translate(528,616) scale(3.7766666666667)"><path d="M3,5.5H0v-5h3c1.4,0,2.5,1.1,2.5,2.5v0C5.5,4.4,4.4,5.5,3,5.5z"/></g>
<g transform="translate(572,616) scale(3.7766666666667)"><circle cx="3" cy="3" r="2.5"/></g>
<g transform="translate(616,616) scale(3.7766666666667)"><path d="M6,5.5H3C1.6,5.5,0.5,4.4,0.5,3v0c0-1.4,1.1-2.5,2.5-2.5h3V5.5z"/></g>
<g transform="translate(638,616) scale(3.7766666666667)"><path d="M3,5.5H0v-5h3c1.4,0,2.5,1.1,2.5,2.5v0C5.5,4.4,4.4,5.5,3,5.5z"/></g>
<g transform="translate(704,616) scale(3.7766666666667)"><circle cx="3" cy="3" r="2.5"/></g>
<g transform="translate(748,616) scale(3.7766666666667)"><path d="M6,5.5H3C1.6,5.5,0.5,4.4,0.5,3v0c0-1.4,1.1-2.5,2.5-2.5h3V5.5z"/></g>
<g transform="translate(770,616) scale(3.7766666666667)"><path d="M3,5.5H0v-5h3c1.4,0,2.5,1.1,2.5,2.5v0C5.5,4.4,4.4,5.5,3,5.5z"/></g>
<g transform="translate(814,616) scale(3.7766666666667)"><circle cx="3" cy="3" r="2.5"/></g>
<g transform="translate(66,638) scale(3.7766666666667)"><circle cx="3" cy="3" r="2.5"/></g>
<g transform="translate(110,638) scale(3.7766666666667)"><path d="M6,5.5H3C1.6,5.5,0.5,4.4,0.5,3v0c0-1.4,1.1-2.5,2.5-2.5h3V5.5z"/></g>
<g transform="translate(132,638) scale(3.7766666666667)"><path d="M3,5.5H0v-5h3c1.4,0,2.5,1.1,2.5,2.5v0C5.5,4.4,4.4,5.5,3,5.5z"/></g>
<g transform="translate(198,638) scale(3.7766666666667)"><circle cx="3" cy="3" r="2.5"/></g>
<g transform="translate(242,638) scale(3.7766666666667)"><path d="M6,5.5H3C1.6,5.5,0.5,4.4,0.5,3v0c0-1.4,1.1-2.5,2.5-2.5h3V5.5z"/></g>
<g transform="translate(264,638) scale(3.7766666666667)"><path d="M3,5.5H0v-5h3c1.4,0,2.5,1.1,2.5,2.5v0C5.5,4.4,4.4,5.5,3,5.5z"/></g>
<g transform="translate(352,638) scale(3.7766666666667)"><circle cx="3" cy="3" r="2.5"/></g>
<g transform="translate(396,638) scale(3.7766666666667)"><path d="M6,5.5H3C1.6,5.5,0.5,4.4,0.5,3v0c0-1.4,1.1-2.5,2.5-2.5h3V5.5z"/></g>
<g transform="translate(418,638) scale(3.7766666666667)"><path d="M3,5.5H0v-5h3c1.4,0,2.5,1.1,2.5,2.5v0C5.5,4.4,4.4,5.5,3,5.5z"/></g>
<g transform="translate(462,638) scale(3.7766666666667)"><path d="M6,5.5H3C1.6,5.5,0.5,4.4,0.5,3v0c0-1.4,1.1-2.5,2.5-2.5h3V5.5z"/></g>
<g transform="translate(484,638) scale(3.7766666666667)"><rect y="0.5" width="6" height="5"/></g>
<g transform="translate(506,638) scale(3.7766666666667)"><path d="M3,5.5H0v-5h3c1.4,0,2.5,1.1,2.5,2.5v0C5.5,4.4,4.4,5.5,3,5.5z"/></g>
<g transform="translate(550,638) scale(3.7766666666667)"><circle cx="3" cy="3" r="2.5"/></g>
<g transform="translate(594,638) scale(3.7766666666667)"><circle cx="3" cy="3" r="2.5"/></g>
<g transform="translate(660,638) scale(3.7766666666667)"><circle cx="3" cy="3" r="2.5"/></g>
<g transform="translate(704,638) scale(3.7766666666667)"><path d="M6,5.5H3C1.6,5.5,0.5,4.4,0.5,3v0c0-1.4,1.1-2.5,2.5-2.5h3V5.5z"/></g>
<g transform="translate(726,638) scale(3.7766666666667)"><rect y="0.5" width="6" height="5"/></g>
<g transform="translate(748,638) scale(3.7766666666667)"><rect y="0.5" width="6" height="5"/></g>
<g transform="translate(770,638) scale(3.7766666666667)"><rect y="0.5" width="6" height="5"/></g>
<g transform="translate(792,638) scale(3.7766666666667)"><path d="M3,5.5H0v-5h3c1.4,0,2.5,1.1,2.5,2.5v0C5.5,4.4,4.4,5.5,3,5.5z"/></g>
<g transform="translate(836,638) scale(3.7766666666667)"><path d="M6,5.5H3C1.6,5.5,0.5,4.4,0.5,3v0c0-1.4,1.1-2.5,2.5-2.5h3V5.5z"/></g>
<g transform="translate(858,638) scale(3.7766666666667)"><path d="M3,5.5H0v-5h3c1.4,0,2.5,1.1,2.5,2.5v0C5.5,4.4,4.4,5.5,3,5.5z"/></g>
<g transform="translate(902,638) scale(3.7766666666667)"><path d="M6,5.5H3C1.6,5.5,0.5,4.4,0.5,3v0c0-1.4,1.1-2.5,2.5-2.5h3V5.5z"/></g>
<g transform="translate(924,638) scale(3.7766666666667)"><path d="M3,5.5H0v-5h3c1.4,0,2.5,1.1,2.5,2.5v0C5.5,4.4,4.4,5.5,3,5.5z"/></g>
<g transform="translate(44,660) scale(3.7766666666667)"><circle cx="3" cy="3" r="2.5"/></g>
<g transform="translate(132,660) scale(3.7766666666667)"><circle cx="3" cy="3" r="2.5"/></g>
<g transform="translate(176,660) scale(3.7766666666667)"><path d="M6,5.5H3C1.6,5.5,0.5,4.4,0.5,3v0c0-1.4,1.1-2.5,2.5-2.5h3V5.5z"/></g>
<g transform="translate(198,660) scale(3.7766666666667)"><path d="M3,5.5H0v-5h3c1.4,0,2.5,1.1,2.5,2.5v0C5.5,4.4,4.4,5.5,3,5.5z"/></g>
<g transform="translate(374,660) scale(3.7766666666667)"><path d="M6,5.5H3C1.6,5.5,0.5,4.4,0.5,3v0c0-1.4,1.1-2.5,2.5-2.5h3V5.5z"/></g>
<g transform="translate(396,660) scale(3.7766666666667)"><path d="M3,5.5H0v-5h3c1.4,0,2.5,1.1,2.5,2.5v0C5.5,4.4,4.4,5.5,3,5.5z"/></g>
<g transform="translate(440,660) scale(3.7766666666667)"><circle cx="3" cy="3" r="2.5"/></g>
<g transform="translate(484,660) scale(3.7766666666667)"><circle cx="3" cy="3" r="2.5"/></g>
<g transform="translate(528,660) scale(3.7766666666667)"><path d="M6,5.5H3C1.6,5.5,0.5,4.4,0.5,3v0c0-1.4,1.1-2.5,2.5-2.5h3V5.5z"/></g>
<g transform="translate(550,660) scale(3.7766666666667)"><path d="M3,5.5H0v-5h3c1.4,0,2.5,1.1,2.5,2.5v0C5.5,4.4,4.4,5.5,3,5.5z"/></g>
<g transform="translate(638,660) scale(3.7766666666667)"><circle cx="3" cy="3" r="2.5"/></g>
<g transform="translate(682,660) scale(3.7766666666667)"><circle cx="3" cy="3" r="2.5"/></g>
<g transform="translate(726,660) scale(3.7766666666667)"><circle cx="3" cy="3" r="2.5"/></g>
<g transform="translate(770,660) scale(3.7766666666667)"><circle cx="3" cy="3" r="2.5"/></g>
<g transform="translate(858,660) scale(3.7766666666667)"><path d="M6,5.5H3C1.6,5.5,0.5,4.4,0.5,3v0c0-1.4,1.1-2.5,2.5-2.5h3V5.5z"/></g>
<g transform="translate(880,660) scale(3.7766666666667)"><path d="M3,5.5H0v-5h3c1.4,0,2.5,1.1,2.5,2.5v0C5.5,4.4,4.4,5.5,3,5.5z"/></g>
<g transform="translate(924,660) scale(3.7766666666667)"><circle cx="3" cy="3" r="2.5"/></g>
<g transform="translate(44,682) scale(3.7766666666667)"><circle cx="3" cy="3" r="2.5"/></g>
<g transform="translate(88,682) scale(3.7766666666667)"><path d="M6,5.5H3C1.6,5.5,0.5,4.4,0.5,3v0c0-1.4,1.1-2.5,2.5-2.5h3V5.5z"/></g>
<g transform="translate(110,682) scale(3.7766666666667)"><rect y="0.5" width="6" height="5"/></g>
<g transform="translate(132,682) scale(3.7766666666667)"><path d="M3,5.5H0v-5h3c1.4,0,2.5,1.1,2.5,2.5v0C5.5,4.4,4.4,5.5,3,5.5z"/></g>
<g transform="translate(198,682) scale(3.7766666666667)"><circle cx="3" cy="3" r="2.5"/></g>
<g transform="translate(286,682) scale(3.7766666666667)"><path d="M6,5.5H3C1.6,5.5,0.5,4.4,0.5,3v0c0-1.4,1.1-2.5,2.5-2.5h3V5.5z"/></g>
<g transform="translate(308,682) scale(3.7766666666667)"><path d="M3,5.5H0v-5h3c1.4,0,2.5,1.1,2.5,2.5v0C5.5,4.4,4.4,5.5,3,5.5z"/></g>
<g transform="translate(352,682) scale(3.7766666666667)"><path d="M6,5.5H3C1.6,5.5,0.5,4.4,0.5,3v0c0-1.4,1.1-2.5,2.5-2.5h3V5.5z"/></g>
<g transform="translate(374,682) scale(3.7766666666667)"><path d="M3,5.5H0v-5h3c1.4,0,2.5,1.1,2.5,2.5v0C5.5,4.4,4.4,5.5,3,5.5z"/></g>
<g transform="translate(418,682) scale(3.7766666666667)"><path d="M6,5.5H3C1.6,5.5,0.5,4.4,0.5,3v0c0-1.4,1.1-2.5,2.5-2.5h3V5.5z"/></g>
<g transform="translate(440,682) scale(3.7766666666667)"><path d="M3,5.5H0v-5h3c1.4,0,2.5,1.1,2.5,2.5v0C5.5,4.4,4.4,5.5,3,5.5z"/></g>
<g transform="translate(506,682) scale(3.7766666666667)"><path d="M6,5.5H3C1.6,5.5,0.5,4.4,0.5,3v0c0-1.4,1.1-2.5,2.5-2.5h3V5.5z"/></g>
<g transform="translate(528,682) scale(3.7766666666667)"><rect y="0.5" width="6" height="5"/></g>
<g transform="translate(550,682) scale(3.7766666666667)"><path d="M3,5.5H0v-5h3c1.4,0,2.5,1.1,2.5,2.5v0C5.5,4.4,4.4,5.5,3,5.5z"/></g>
<g transform="translate(638,682) scale(3.7766666666667)"><path d="M6,5.5H3C1.6,5.5,0.5,4.4,0.5,3v0c0-1.4,1.1-2.5,2.5-2.5h3V5.5z"/></g>
<g transform="translate(660,682) scale(3.7766666666667)"><path d="M3,5.5H0v-5h3c1.4,0,2.5,1.1,2.5,2.5v0C5.5,4.4,4.4,5.5,3,5.5z"/></g>
<g transform="translate(704,682) scale(3.7766666666667)"><path d="M6,5.5H3C1.6,5.5,0.5,4.4,0.5,3v0c0-1.4,1.1-2.5,2.5-2.5h3V5.5z"/></g>
<g transform="translate(726,682) scale(3.7766666666667)"><rect y="0.5" width="6" height="5"/></g>
<g transform="translate(748,682) scale(3.7766666666667)"><rect y="0.5" width="6" height="5"/></g>
<g transform="translate(770,682) scale(3.7766666666667)"><rect y="0.5" width="6" height="5"/></g>
<g transform="translate(792,682) scale(3.7766666666667)"><rect y="0.5" width="6" height="5"/></g>
<g transform="translate(814,682) scale(3.7766666666667)"><rect y="0.5" width="6" height="5"/></g>
<g transform="translate(836,682) scale(3.7766666666667)"><rect y="0.5" width="6" height="5"/></g>
<g transform="translate(858,682) scale(3.7766666666667)"><path d="M3,5.5H0v-5h3c1.4,0,2.5,1.1,2.5,2.5v0C5.5,4.4,4.4,5.5,3,5.5z"/></g>
<g transform="translate(902,682) scale(3.7766666666667)"><path d="M6,5.5H3C1.6,5.5,0.5,4.4,0.5,3v0c0-1.4,1.1-2.5,2.5-2.5h3V5.5z"/></g>
<g transform="translate(924,682) scale(3.7766666666667)"><path d="M3,5.5H0v-5h3c1.4,0,2.5,1.1,2.5,2.5v0C5.5,4.4,4.4,5.5,3,5.5z"/></g>
<g transform="translate(44,704) scale(3.7766666666667)"><circle cx="3" cy="3" r="2.5"/></g>
<g transform="translate(110,704) scale(3.7766666666667)"><path d="M6,5.5H3C1.6,5.5,0.5,4.4,0.5,3v0c0-1.4,1.1-2.5,2.5-2.5h3V5.5z"/></g>
<g transform="translate(132,704) scale(3.7766666666667)"><path d="M3,5.5H0v-5h3c1.4,0,2.5,1.1,2.5,2.5v0C5.5,4.4,4.4,5.5,3,5.5z"/></g>
<g transform="translate(176,704) scale(3.7766666666667)"><path d="M6,5.5H3C1.6,5.5,0.5,4.4,0.5,3v0c0-1.4,1.1-2.5,2.5-2.5h3V5.5z"/></g>
<g transform="translate(198,704) scale(3.7766666666667)"><rect y="0.5" width="6" height="5"/></g>
<g transform="translate(220,704) scale(3.7766666666667)"><rect y="0.5" width="6" height="5"/></g>
<g transform="translate(242,704) scale(3.7766666666667)"><path d="M3,5.5H0v-5h3c1.4,0,2.5,1.1,2.5,2.5v0C5.5,4.4,4.4,5.5,3,5.5z"/></g>
<g transform="translate(308,704) scale(3.7766666666667)"><path d="M6,5.5H3C1.6,5.5,0.5,4.4,0.5,3v0c0-1.4,1.1-2.5,2.5-2.5h3V5.5z"/></g>
<g transform="translate(330,704) scale(3.7766666666667)"><rect y="0.5" width="6" height="5"/></g>
<g transform="translate(352,704) scale(3.7766666666667)"><rect y="0.5" width="6" height="5"/></g>
<g transform="translate(374,704) scale(3.7766666666667)"><rect y="0.5" width="6" height="5"/></g>
<g transform="translate(396,704) scale(3.7766666666667)"><path d="M3,5.5H0v-5h3c1.4,0,2.5,1.1,2.5,2.5v0C5.5,4.4,4.4,5.5,3,5.5z"/></g>
<g transform="translate(440,704) scale(3.7766666666667)"><path d="M6,5.5H3C1.6,5.5,0.5,4.4,0.5,3v0c0-1.4,1.1-2.5,2.5-2.5h3V5.5z"/></g>
<g transform="translate(462,704) scale(3.7766666666667)"><path d="M3,5.5H0v-5h3c1.4,0,2.5,1.1,2.5,2.5v0C5.5,4.4,4.4,5.5,3,5.5z"/></g>
<g transform="translate(550,704) scale(3.7766666666667)"><path d="M6,5.5H3C1.6,5.5,0.5,4.4,0.5,3v0c0-1.4,1.1-2.5,2.5-2.5h3V5.5z"/></g>
<g transform="translate(572,704) scale(3.7766666666667)"><path d="M3,5.5H0v-5h3c1.4,0,2.5,1.1,2.5,2.5v0C5.5,4.4,4.4,5.5,3,5.5z"/></g>
<g transform="translate(704,704) scale(3.7766666666667)"><circle cx="3" cy="3" r="2.5"/></g>
<g transform="translate(770,704) scale(3.7766666666667)"><path d="M6,5.5H3C1.6,5.5,0.5,4.4,0.5,3v0c0-1.4,1.1-2.5,2.5-2.5h3V5.5z"/></g>
<g transform="translate(792,704) scale(3.7766666666667)"><rect y="0.5" width="6" height="5"/></g>
<g transform="translate(814,704) scale(3.7766666666667)"><rect y="0.5" width="6" height="5"/></g>
<g transform="translate(836,704) scale(3.7766666666667)"><rect y="0.5" width="6" height="5"/></g>
<g transform="translate(858,704) scale(3.7766666666667)"><path d="M3,5.5H0v-5h3c1.4,0,2.5,1.1,2.5,2.5v0C5.5,4.4,4.4,5.5,3,5.5z"/></g>
<g transform="translate(44,726) scale(3.7766666666667)"><circle cx="3" cy="3" r="2.5"/></g>
<g transform="translate(110,726) scale(3.7766666666667)"><path d="M6,5.5H3C1.6,5.5,0.5,4.4,0.5,3v0c0-1.4,1.1-2.5,2.5-2.5h3V5.5z"/></g>
<g transform="translate(132,726) scale(3.7766666666667)"><path d="M3,5.5H0v-5h3c1.4,0,2.5,1.1,2.5,2.5v0C5.5,4.4,4.4,5.5,3,5.5z"/></g>
<g transform="translate(198,726) scale(3.7766666666667)"><circle cx="3" cy="3" r="2.5"/></g>
<g transform="translate(242,726) scale(3.7766666666667)"><circle cx="3" cy="3" r="2.5"/></g>
<g transform="translate(286,726) scale(3.7766666666667)"><path d="M6,5.5H3C1.6,5.5,0.5,4.4,0.5,3v0c0-1.4,1.1-2.5,2.5-2.5h3V5.5z"/></g>
<g transform="translate(308,726) scale(3.7766666666667)"><path d="M3,5.5H0v-5h3c1.4,0,2.5,1.1,2.5,2.5v0C5.5,4.4,4.4,5.5,3,5.5z"/></g>
<g transform="translate(374,726) scale(3.7766666666667)"><circle cx="3" cy="3" r="2.5"/></g>
<g transform="translate(418,726) scale(3.7766666666667)"><circle cx="3" cy="3" r="2.5"/></g>
<g transform="translate(528,726) scale(3.7766666666667)"><path d="M6,5.5H3C1.6,5.5,0.5,4.4,0.5,3v0c0-1.4,1.1-2.5,2.5-2.5h3V5.5z"/></g>
<g transform="translate(550,726) scale(3.7766666666667)"><rect y="0.5" width="6" height="5"/></g>
<g transform="translate(572,726) scale(3.7766666666667)"><rect y="0.5" width="6" height="5"/></g>
<g transform="translate(594,726) scale(3.7766666666667)"><rect y="0.5" width="6" height="5"/></g>
<g transform="translate(616,726) scale(3.7766666666667)"><path d="M3,5.5H0v-5h3c1.4,0,2.5,1.1,2.5,2.5v0C5.5,4.4,4.4,5.5,3,5.5z"/></g>
<g transform="translate(660,726) scale(3.7766666666667)"><circle cx="3" cy="3" r="2.5"/></g>
<g transform="translate(726,726) scale(3.7766666666667)"><path d="M6,5.5H3C1.6,5.5,0.5,4.4,0.5,3v0c0-1.4,1.1-2.5,2.5-2.5h3V5.5z"/></g>
<g transform="translate(748,726) scale(3.7766666666667)"><rect y="0.5" width="6" height="5"/></g>
<g transform="translate(770,726) scale(3.7766666666667)"><rect y="0.5" width="6" height="5"/></g>
<g transform="translate(792,726) scale(3.7766666666667)"><rect y="0.5" width="6" height="5"/></g>
<g transform="translate(814,726) scale(3.7766666666667)"><path d="M3,5.5H0v-5h3c1.4,0,2.5,1.1,2.5,2.5v0C5.5,4.4,4.4,5.5,3,5.5z"/></g>
<g transform="translate(44,748) scale(3.7766666666667)"><circle cx="3" cy="3" r="2.5"/></g>
<g transform="translate(176,748) scale(3.7766666666667)"><circle cx="3" cy="3" r="2.5"/></g>
<g transform="translate(242,748) scale(3.7766666666667)"><path d="M6,5.5H3C1.6,5.5,0.5,4.4,0.5,3v0c0-1.4,1.1-2.5,2.5-2.5h3V5.5z"/></g>
<g transform="translate(264,748) scale(3.7766666666667)"><rect y="0.5" width="6" height="5"/></g>
<g transform="translate(286,748) scale(3.7766666666667)"><path d="M3,5.5H0v-5h3c1.4,0,2.5,1.1,2.5,2.5v0C5.5,4.4,4.4,5.5,3,5.5z"/></g>
<g transform="translate(330,748) scale(3.7766666666667)"><path d="M6,5.5H3C1.6,5.5,0.5,4.4,0.5,3v0c0-1.4,1.1-2.5,2.5-2.5h3V5.5z"/></g>
<g transform="translate(352,748) scale(3.7766666666667)"><path d="M3,5.5H0v-5h3c1.4,0,2.5,1.1,2.5,2.5v0C5.5,4.4,4.4,5.5,3,5.5z"/></g>
<g transform="translate(484,748) scale(3.7766666666667)"><path d="M6,5.5H3C1.6,5.5,0.5,4.4,0.5,3v0c0-1.4,1.1-2.5,2.5-2.5h3V5.5z"/></g>
<g transform="translate(506,748) scale(3.7766666666667)"><rect y="0.5" width="6" height="5"/></g>
<g transform="translate(528,748) scale(3.7766666666667)"><path d="M3,5.5H0v-5h3c1.4,0,2.5,1.1,2.5,2.5v0C5.5,4.4,4.4,5.5,3,5.5z"/></g>
<g transform="translate(616,748) scale(3.7766666666667)"><circle cx="3" cy="3" r="2.5"/></g>
<g transform="translate(682,748) scale(3.7766666666667)"><path d="M6,5.5H3C1.6,5.5,0.5,4.4,0.5,3v0c0-1.4,1.1-2.5,2.5-2.5h3V5.5z"/></g>
<g transform="translate(704,748) scale(3.7766666666667)"><rect y="0.5" width="6" height="5"/></g>
<g transform="translate(726,748) scale(3.7766666666667)"><rect y="0.5" width="6" height="5"/></g>
<g transform="translate(748,748) scale(3.7766666666667)"><rect y="0.5" width="6" height="5"/></g>
<g transform="translate(770,748) scale(3.7766666666667)"><rect y="0.5" width="6" height="5"/></g>
<g transform="translate(792,748) scale(3.7766666666667)"><rect y="0.5" width="6" height="5"/></g>
<g transform="translate(814,748) scale(3.7766666666667)"><rect y="0.5" width="6" height="5"/></g>
<g transform="translate(836,748) scale(3.7766666666667)"><path d="M3,5.5H0v-5h3c1.4,0,2.5,1.1,2.5,2.5v0C5.5,4.4,4.4,5.5,3,5.5z"/></g>
<g transform="translate(880,748) scale(3.7766666666667)"><circle cx="3" cy="3" r="2.5"/></g>
<g transform="translate(220,770) scale(3.7766666666667)"><circle cx="3" cy="3" r="2.5"/></g>
<g transform="translate(264,770) scale(3.7766666666667)"><circle cx="3" cy="3" r="2.5"/></g>
<g transform="translate(330,770) scale(3.7766666666667)"><circle cx="3" cy="3" r="2.5"/></g>
<g transform="translate(374,770) scale(3.7766666666667)"><path d="M6,5.5H3C1.6,5.5,0.5,4.4,0.5,3v0c0-1.4,1.1-2.5,2.5-2.5h3V5.5z"/></g>
<g transform="translate(396,770) scale(3.7766666666667)"><path d="M3,5.5H0v-5h3c1.4,0,2.5,1.1,2.5,2.5v0C5.5,4.4,4.4,5.5,3,5.5z"/></g>
<g transform="translate(440,770) scale(3.7766666666667)"><circle cx="3" cy="3" r="2.5"/></g>
<g transform="translate(528,770) scale(3.7766666666667)"><circle cx="3" cy="3" r="2.5"/></g>
<g transform="translate(594,770) scale(3.7766666666667)"><circle cx="3" cy="3" r="2.5"/></g>
<g transform="translate(682,770) scale(3.7766666666667)"><circle cx="3" cy="3" r="2.5"/></g>
<g transform="translate(748,770) scale(3.7766666666667)"><circle cx="3" cy="3" r="2.5"/></g>
<g transform="translate(836,770) scale(3.7766666666667)"><path d="M6,5.5H3C1.6,5.5,0.5,4.4,0.5,3v0c0-1.4,1.1-2.5,2.5-2.5h3V5.5z"/></g>
<g transform="translate(858,770) scale(3.7766666666667)"><rect y="0.5" width="6" height="5"/></g>
<g transform="translate(880,770) scale(3.7766666666667)"><rect y="0.5" width="6" height="5"/></g>
<g transform="translate(902,770) scale(3.7766666666667)"><rect y="0.5" width="6" height="5"/></g>
<g transform="translate(924,770) scale(3.7766666666667)"><path d="M3,5.5H0v-5h3c1.4,0,2.5,1.1,2.5,2.5v0C5.5,4.4,4.4,5.5,3,5.5z"/></g>
<g transform="translate(286,792) scale(3.7766666666667)"><circle cx="3" cy="3" r="2.5"/></g>
<g transform="translate(374,792) scale(3.7766666666667)"><circle cx="3" cy="3" r="2.5"/></g>
<g transform="translate(418,792) scale(3.7766666666667)"><path d="M6,5.5H3C1.6,5.5,0.5,4.4,0.5,3v0c0-1.4,1.1-2.5,2.5-2.5h3V5.5z"/></g>
<g transform="translate(440,792) scale(3.7766666666667)"><path d="M3,5.5H0v-5h3c1.4,0,2.5,1.1,2.5,2.5v0C5.5,4.4,4.4,5.5,3,5.5z"/></g>
<g transform="translate(484,792) scale(3.7766666666667)"><path d="M6,5.5H3C1.6,5.5,0.5,4.4,0.5,3v0c0-1.4,1.1-2.5,2.5-2.5h3V5.5z"/></g>
<g transform="translate(506,792) scale(3.7766666666667)"><path d="M3,5.5H0v-5h3c1.4,0,2.5,1.1,2.5,2.5v0C5.5,4.4,4.4,5.5,3,5.5z"/></g>
<g transform="translate(550,792) scale(3.7766666666667)"><circle cx="3" cy="3" r="2.5"/></g>
<g transform="translate(594,792) scale(3.7766666666667)"><circle cx="3" cy="3" r="2.5"/></g>
<g transform="translate(638,792) scale(3.7766666666667)"><circle cx="3" cy="3" r="2.5"/></g>
<g transform="translate(682,792) scale(3.7766666666667)"><circle cx="3" cy="3" r="2.5"/></g>
<g transform="translate(726,792) scale(3.7766666666667)"><path d="M6,5.5H3C1.6,5.5,0.5,4.4,0.5,3v0c0-1.4,1.1-2.5,2.5-2.5h3V5.5z"/></g>
<g transform="translate(748,792) scale(3.7766666666667)"><path d="M3,5.5H0v-5h3c1.4,0,2.5,1.1,2.5,2.5v0C5.5,4.4,4.4,5.5,3,5.5z"/></g>
<g transform="translate(792,792) scale(3.7766666666667)"><circle cx="3" cy="3" r="2.5"/></g>
<g transform="translate(836,792) scale(3.7766666666667)"><path d="M6,5.5H3C1.6,5.5,0.5,4.4,0.5,3v0c0-1.4,1.1-2.5,2.5-2.5h3V5.5z"/></g>
<g transform="translate(858,792) scale(3.7766666666667)"><path d="M3,5.5H0v-5h3c1.4,0,2.5,1.1,2.5,2.5v0C5.5,4.4,4.4,5.5,3,5.5z"/></g>
<g transform="translate(902,792) scale(3.7766666666667)"><circle cx="3" cy="3" r="2.5"/></g>
<g transform="translate(242,814) scale(3.7766666666667)"><circle cx="3" cy="3" r="2.5"/></g>
<g transform="translate(286,814) scale(3.7766666666667)"><circle cx="3" cy="3" r="2.5"/></g>
<g transform="translate(352,814) scale(3.7766666666667)"><path d="M6,5.5H3C1.6,5.5,0.5,4.4,0.5,3v0c0-1.4,1.1-2.5,2.5-2.5h3V5.5z"/></g>
<g transform="translate(374,814) scale(3.7766666666667)"><path d="M3,5.5H0v-5h3c1.4,0,2.5,1.1,2.5,2.5v0C5.5,4.4,4.4,5.5,3,5.5z"/></g>
<g transform="translate(418,814) scale(3.7766666666667)"><path d="M6,5.5H3C1.6,5.5,0.5,4.4,0.5,3v0c0-1.4,1.1-2.5,2.5-2.5h3V5.5z"/></g>
<g transform="translate(440,814) scale(3.7766666666667)"><path d="M3,5.5H0v-5h3c1.4,0,2.5,1.1,2.5,2.5v0C5.5,4.4,4.4,5.5,3,5.5z"/></g>
<g transform="translate(550,814) scale(3.7766666666667)"><circle cx="3" cy="3" r="2.5"/></g>
<g transform="translate(616,814) scale(3.7766666666667)"><circle cx="3" cy="3" r="2.5"/></g>
<g transform="translate(726,814) scale(3.7766666666667)"><path d="M6,5.5H3C1.6,5.5,0.5,4.4,0.5,3v0c0-1.4,1.1-2.5,2.5-2.5h3V5.5z"/></g>
<g transform="translate(748,814) scale(3.7766666666667)"><path d="M3,5.5H0v-5h3c1.4,0,2.5,1.1,2.5,2.5v0C5.5,4.4,4.4,5.5,3,5.5z"/></g>
<g transform="translate(836,814) scale(3.7766666666667)"><path d="M6,5.5H3C1.6,5.5,0.5,4.4,0.5,3v0c0-1.4,1.1-2.5,2.5-2.5h3V5.5z"/></g>
<g transform="translate(858,814) scale(3.7766666666667)"><path d="M3,5.5H0v-5h3c1.4,0,2.5,1.1,2.5,2.5v0C5.5,4.4,4.4,5.5,3,5.5z"/></g>
<g transform="translate(902,814) scale(3.7766666666667)"><path d="M6,5.5H3C1.6,5.5,0.5,4.4,0.5,3v0c0-1.4,1.1-2.5,2.5-2.5h3V5.5z"/></g>
<g transform="translate(924,814) scale(3.7766666666667)"><path d="M3,5.5H0v-5h3c1.4,0,2.5,1.1,2.5,2.5v0C5.5,4.4,4.4,5.5,3,5.5z"/></g>
<g transform="translate(220,836) scale(3.7766666666667)"><path d="M6,5.5H3C1.6,5.5,0.5,4.4,0.5,3v0c0-1.4,1.1-2.5,2.5-2.5h3V5.5z"/></g>
<g transform="translate(242,836) scale(3.7766666666667)"><path d="M3,5.5H0v-5h3c1.4,0,2.5,1.1,2.5,2.5v0C5.5,4.4,4.4,5.5,3,5.5z"/></g>
<g transform="translate(286,836) scale(3.7766666666667)"><path d="M6,5.5H3C1.6,5.5,0.5,4.4,0.5,3v0c0-1.4,1.1-2.5,2.5-2.5h3V5.5z"/></g>
<g transform="translate(308,836) scale(3.7766666666667)"><rect y="0.5" width="6" height="5"/></g>
<g transform="translate(330,836) scale(3.7766666666667)"><rect y="0.5" width="6" height="5"/></g>
<g transform="translate(352,836) scale(3.7766666666667)"><rect y="0.5" width="6" height="5"/></g>
<g transform="translate(374,836) scale(3.7766666666667)"><rect y="0.5" width="6" height="5"/></g>
<g transform="translate(396,836) scale(3.7766666666667)"><rect y="0.5" width="6" height="5"/></g>
<g transform="translate(418,836) scale(3.7766666666667)"><rect y="0.5" width="6" height="5"/></g>
<g transform="translate(440,836) scale(3.7766666666667)"><rect y="0.5" width="6" height="5"/></g>
<g transform="translate(462,836) scale(3.7766666666667)"><path d="M3,5.5H0v-5h3c1.4,0,2.5,1.1,2.5,2.5v0C5.5,4.4,4.4,5.5,3,5.5z"/></g>
<g transform="translate(528,836) scale(3.7766666666667)"><path d="M6,5.5H3C1.6,5.5,0.5,4.4,0.5,3v0c0-1.4,1.1-2.5,2.5-2.5h3V5.5z"/></g>
<g transform="translate(550,836) scale(3.7766666666667)"><path d="M3,5.5H0v-5h3c1.4,0,2.5,1.1,2.5,2.5v0C5.5,4.4,4.4,5.5,3,5.5z"/></g>
<g transform="translate(616,836) scale(3.7766666666667)"><path d="M6,5.5H3C1.6,5.5,0.5,4.4,0.5,3v0c0-1.4,1.1-2.5,2.5-2.5h3V5.5z"/></g>
<g transform="translate(638,836) scale(3.7766666666667)"><path d="M3,5.5H0v-5h3c1.4,0,2.5,1.1,2.5,2.5v0C5.5,4.4,4.4,5.5,3,5.5z"/></g>
<g transform="translate(704,836) scale(3.7766666666667)"><circle cx="3" cy="3" r="2.5"/></g>
<g transform="translate(748,836) scale(3.7766666666667)"><path d="M6,5.5H3C1.6,5.5,0.5,4.4,0.5,3v0c0-1.4,1.1-2.5,2.5-2.5h3V5.5z"/></g>
<g transform="translate(770,836) scale(3.7766666666667)"><rect y="0.5" width="6" height="5"/></g>
<g transform="translate(792,836) scale(3.7766666666667)"><rect y="0.5" width="6" height="5"/></g>
<g transform="translate(814,836) scale(3.7766666666667)"><rect y="0.5" width="6" height="5"/></g>
<g transform="translate(836,836) scale(3.7766666666667)"><rect y="0.5" width="6" height="5"/></g>
<g transform="translate(858,836) scale(3.7766666666667)"><rect y="0.5" width="6" height="5"/></g>
<g transform="translate(880,836) scale(3.7766666666667)"><path d="M3,5.5H0v-5h3c1.4,0,2.5,1.1,2.5,2.5v0C5.5,4.4,4.4,5.5,3,5.5z"/></g>
<g transform="translate(924,836) scale(3.7766666666667)"><circle cx="3" cy="3" r="2.5"/></g>
<g transform="translate(220,858) scale(3.7766666666667)"><path d="M6,5.5H3C1.6,5.5,0.5,4.4,0.5,3v0c0-1.4,1.1-2.5,2.5-2.5h3V5.5z"/></g>
<g transform="translate(242,858) scale(3.7766666666667)"><path d="M3,5.5H0v-5h3c1.4,0,2.5,1.1,2.5,2.5v0C5.5,4.4,4.4,5.5,3,5.5z"/></g>
<g transform="translate(286,858) scale(3.7766666666667)"><path d="M6,5.5H3C1.6,5.5,0.5,4.4,0.5,3v0c0-1.4,1.1-2.5,2.5-2.5h3V5.5z"/></g>
<g transform="translate(308,858) scale(3.7766666666667)"><path d="M3,5.5H0v-5h3c1.4,0,2.5,1.1,2.5,2.5v0C5.5,4.4,4.4,5.5,3,5.5z"/></g>
<g transform="translate(374,858) scale(3.7766666666667)"><path d="M6,5.5H3C1.6,5.5,0.5,4.4,0.5,3v0c0-1.4,1.1-2.5,2.5-2.5h3V5.5z"/></g>
<g transform="translate(396,858) scale(3.7766666666667)"><rect y="0.5" width="6" height="5"/></g>
<g transform="translate(418,858) scale(3.7766666666667)"><rect y="0.5" width="6" height="5"/></g>
<g transform="translate(440,858) scale(3.7766666666667)"><rect y="0.5" width="6" height="5"/></g>
<g transform="translate(462,858) scale(3.7766666666667)"><path d="M3,5.5H0v-5h3c1.4,0,2.5,1.1,2.5,2.5v0C5.5,4.4,4.4,5.5,3,5.5z"/></g>
<g transform="translate(616,858) scale(3.7766666666667)"><circle cx="3" cy="3" r="2.5"/></g>
<g transform="translate(660,858) scale(3.7766666666667)"><circle cx="3" cy="3" r="2.5"/></g>
<g transform="translate(704,858) scale(3.7766666666667)"><path d="M6,5.5H3C1.6,5.5,0.5,4.4,0.5,3v0c0-1.4,1.1-2.5,2.5-2.5h3V5.5z"/></g>
<g transform="translate(726,858) scale(3.7766666666667)"><path d="M3,5.5H0v-5h3c1.4,0,2.5,1.1,2.5,2.5v0C5.5,4.4,4.4,5.5,3,5.5z"/></g>
<g transform="translate(770,858) scale(3.7766666666667)"><circle cx="3" cy="3" r="2.5"/></g>
<g transform="translate(814,858) scale(3.7766666666667)"><circle cx="3" cy="3" r="2.5"/></g>
<g transform="translate(858,858) scale(3.7766666666667)"><path d="M6,5.5H3C1.6,5.5,0.5,4.4,0.5,3v0c0-1.4,1.1-2.5,2.5-2.5h3V5.5z"/></g>
<g transform="translate(880,858) scale(3.7766666666667)"><path d="M3,5.5H0v-5h3c1.4,0,2.5,1.1,2.5,2.5v0C5.5,4.4,4.4,5.5,3,5.5z"/></g>
<g transform="translate(924,858) scale(3.7766666666667)"><circle cx="3" cy="3" r="2.5"/></g>
<g transform="translate(220,880) scale(3.7766666666667)"><circle cx="3" cy="3" r="2.5"/></g>
<g transform="translate(264,880) scale(3.7766666666667)"><path d="M6,5.5H3C1.6,5.5,0.5,4.4,0.5,3v0c0-1.4,1.1-2.5,2.5-2.5h3V5.5z"/></g>
<g transform="translate(286,880) scale(3.7766666666667)"><path d="M3,5.5H0v-5h3c1.4,0,2.5,1.1,2.5,2.5v0C5.5,4.4,4.4,5.5,3,5.5z"/></g>
<g transform="translate(330,880) scale(3.7766666666667)"><circle cx="3" cy="3" r="2.5"/></g>
<g transform="translate(374,880) scale(3.7766666666667)"><circle cx="3" cy="3" r="2.5"/></g>
<g transform="translate(528,880) scale(3.7766666666667)"><circle cx="3" cy="3" r="2.5"/></g>
<g transform="translate(572,880) scale(3.7766666666667)"><circle cx="3" cy="3" r="2.5"/></g>
<g transform="translate(638,880) scale(3.7766666666667)"><path d="M6,5.5H3C1.6,5.5,0.5,4.4,0.5,3v0c0-1.4,1.1-2.5,2.5-2.5h3V5.5z"/></g>
<g transform="translate(660,880) scale(3.7766666666667)"><path d="M3,5.5H0v-5h3c1.4,0,2.5,1.1,2.5,2.5v0C5.5,4.4,4.4,5.5,3,5.5z"/></g>
<g transform="translate(748,880) scale(3.7766666666667)"><path d="M6,5.5H3C1.6,5.5,0.5,4.4,0.5,3v0c0-1.4,1.1-2.5,2.5-2.5h3V5.5z"/></g>
<g transform="translate(770,880) scale(3.7766666666667)"><rect y="0.5" width="6" height="5"/></g>
<g transform="translate(792,880) scale(3.7766666666667)"><rect y="0.5" width="6" height="5"/></g>
<g transform="translate(814,880) scale(3.7766666666667)"><rect y="0.5" width="6" height="5"/></g>
<g transform="translate(836,880) scale(3.7766666666667)"><path d="M3,5.5H0v-5h3c1.4,0,2.5,1.1,2.5,2.5v0C5.5,4.4,4.4,5.5,3,5.5z"/></g>
<g transform="translate(880,880) scale(3.7766666666667)"><path d="M6,5.5H3C1.6,5.5,0.5,4.4,0.5,3v0c0-1.4,1.1-2.5,2.5-2.5h3V5.5z"/></g>
<g transform="translate(902,880) scale(3.7766666666667)"><path d="M3,5.5H0v-5h3c1.4,0,2.5,1.1,2.5,2.5v0C5.5,4.4,4.4,5.5,3,5.5z"/></g>
<g transform="translate(242,902) scale(3.7766666666667)"><circle cx="3" cy="3" r="2.5"/></g>
<g transform="translate(286,902) scale(3.7766666666667)"><path d="M6,5.5H3C1.6,5.5,0.5,4.4,0.5,3v0c0-1.4,1.1-2.5,2.5-2.5h3V5.5z"/></g>
<g transform="translate(308,902) scale(3.7766666666667)"><rect y="0.5" width="6" height="5"/></g>
<g transform="translate(330,902) scale(3.7766666666667)"><rect y="0.5" width="6" height="5"/></g>
<g transform="translate(352,902) scale(3.7766666666667)"><rect y="0.5" width="6" height="5"/></g>
<g transform="translate(374,902) scale(3.7766666666667)"><path d="M3,5.5H0v-5h3c1.4,0,2.5,1.1,2.5,2.5v0C5.5,4.4,4.4,5.5,3,5.5z"/></g>
<g transform="translate(418,902) scale(3.7766666666667)"><circle cx="3" cy="3" r="2.5"/></g>
<g transform="translate(506,902) scale(3.7766666666667)"><path d="M6,5.5H3C1.6,5.5,0.5,4.4,0.5,3v0c0-1.4,1.1-2.5,2.5-2.5h3V5.5z"/></g>
<g transform="translate(528,902) scale(3.7766666666667)"><path d="M3,5.5H0v-5h3c1.4,0,2.5,1.1,2.5,2.5v0C5.5,4.4,4.4,5.5,3,5.5z"/></g>
<g transform="translate(594,902) scale(3.7766666666667)"><circle cx="3" cy="3" r="2.5"/></g>
<g transform="translate(660,902) scale(3.7766666666667)"><circle cx="3" cy="3" r="2.5"/></g>
<g transform="translate(726,902) scale(3.7766666666667)"><path d="M6,5.5H3C1.6,5.5,0.5,4.4,0.5,3v0c0-1.4,1.1-2.5,2.5-2.5h3V5.5z"/></g>
<g transform="translate(748,902) scale(3.7766666666667)"><rect y="0.5" width="6" height="5"/></g>
<g transform="translate(770,902) scale(3.7766666666667)"><path d="M3,5.5H0v-5h3c1.4,0,2.5,1.1,2.5,2.5v0C5.5,4.4,4.4,5.5,3,5.5z"/></g>
<g transform="translate(836,902) scale(3.7766666666667)"><path d="M6,5.5H3C1.6,5.5,0.5,4.4,0.5,3v0c0-1.4,1.1-2.5,2.5-2.5h3V5.5z"/></g>
<g transform="translate(858,902) scale(3.7766666666667)"><path d="M3,5.5H0v-5h3c1.4,0,2.5,1.1,2.5,2.5v0C5.5,4.4,4.4,5.5,3,5.5z"/></g>
<g transform="translate(902,902) scale(3.7766666666667)"><circle cx="3" cy="3" r="2.5"/></g>
<g transform="translate(330,924) scale(3.7766666666667)"><path d="M6,5.5H3C1.6,5.5,0.5,4.4,0.5,3v0c0-1.4,1.1-2.5,2.5-2.5h3V5.5z"/></g>
<g transform="translate(352,924) scale(3.7766666666667)"><rect y="0.5" width="6" height="5"/></g>
<g transform="translate(374,924) scale(3.7766666666667)"><path d="M3,5.5H0v-5h3c1.4,0,2.5,1.1,2.5,2.5v0C5.5,4.4,4.4,5.5,3,5.5z"/></g>
<g transform="translate(418,924) scale(3.7766666666667)"><circle cx="3" cy="3" r="2.5"/></g>
<g transform="translate(462,924) scale(3.7766666666667)"><circle cx="3" cy="3" r="2.5"/></g>
<g transform="translate(550,924) scale(3.7766666666667)"><circle cx="3" cy="3" r="2.5"/></g>
<g transform="translate(682,924) scale(3.7766666666667)"><circle cx="3" cy="3" r="2.5"/></g>
<g transform="translate(726,924) scale(3.7766666666667)"><circle cx="3" cy="3" r="2.5"/></g>
<g transform="translate(770,924) scale(3.7766666666667)"><path d="M6,5.5H3C1.6,5.5,0.5,4.4,0.5,3v0c0-1.4,1.1-2.5,2.5-2.5h3V5.5z"/></g>
<g transform="translate(792,924) scale(3.7766666666667)"><rect y="0.5" width="6" height="5"/></g>
<g transform="translate(814,924) scale(3.7766666666667)"><rect y="0.5" width="6" height="5"/></g>
<g transform="translate(836,924) scale(3.7766666666667)"><path d="M3,5.5H0v-5h3c1.4,0,2.5,1.1,2.5,2.5v0C5.5,4.4,4.4,5.5,3,5.5z"/></g>
<g transform="translate(880,924) scale(3.7766666666667)"><circle cx="3" cy="3" r="2.5"/></g>
</g></g></mask></defs>
<rect width="990" height="990" fill="#ffffff" x="0" y="0" />
<rect x="0" y="0" width="990" height="990" mask="url(#qrmask)" fill="#002553" />
<g><g transform="translate(44,44)"  fill="#002553"><g transform="scale(11)"><path d="M4.5,14h5.1C12,14,14,12,14,9.6V4.5C14,2,12,0,9.5,0H4.4C2,0,0,2,0,4.4v5.1C0,12,2,14,4.5,14z M12,4.8v4.4 c0,1.5-1.3,2.8-2.8,2.8H4.8C3.2,12,2,10.8,2,9.2V4.8C2,3.3,3.3,2,4.8,2h4.4C10.8,2,12,3.2,12,4.8z"/></g></g>
<g transform="translate(88,88)"  fill="#002553"><g transform="scale(11)"><path d="M6,1.7v2.7C6,5.2,5.2,6,4.3,6H1.7C0.7,6,0,5.3,0,4.3V1.7C0,0.8,0.8,0,1.7,0h2.7C5.3,0,6,0.7,6,1.7z"/></g></g>
<g transform="translate(792,44)"  fill="#002553"><g transform="scale(11)"><path d="M4.5,14h5.1C12,14,14,12,14,9.6V4.5C14,2,12,0,9.5,0H4.4C2,0,0,2,0,4.4v5.1C0,12,2,14,4.5,14z M12,4.8v4.4 c0,1.5-1.3,2.8-2.8,2.8H4.8C3.2,12,2,10.8,2,9.2V4.8C2,3.3,3.3,2,4.8,2h4.4C10.8,2,12,3.2,12,4.8z"/></g></g>
<g transform="translate(836,88)"  fill="#002553"><g transform="scale(11)"><path d="M6,1.7v2.7C6,5.2,5.2,6,4.3,6H1.7C0.7,6,0,5.3,0,4.3V1.7C0,0.8,0.8,0,1.7,0h2.7C5.3,0,6,0.7,6,1.7z"/></g></g>
<g transform="translate(44,792)"  fill="#002553"><g transform="scale(11)"><path d="M4.5,14h5.1C12,14,14,12,14,9.6V4.5C14,2,12,0,9.5,0H4.4C2,0,0,2,0,4.4v5.1C0,12,2,14,4.5,14z M12,4.8v4.4 c0,1.5-1.3,2.8-2.8,2.8H4.8C3.2,12,2,10.8,2,9.2V4.8C2,3.3,3.3,2,4.8,2h4.4C10.8,2,12,3.2,12,4.8z"/></g></g>
<g transform="translate(88,836)"  fill="#002553"><g transform="scale(11)"><path d="M6,1.7v2.7C6,5.2,5.2,6,4.3,6H1.7C0.7,6,0,5.3,0,4.3V1.7C0,0.8,0.8,0,1.7,0h2.7C5.3,0,6,0.7,6,1.7z"/></g></g></g>
</svg>