<svg xmlns="http://www.w3.org/2000/svg" xml:space="preserve" xmlns:xlink="http://www.w3.org/1999/xlink" style="max-width: 100%;height: auto;" width="990" height="990" viewBox="0 0 990 990">
<defs><mask id="qrmask"><g fill="#ffffff"><g>
<g transform="translate(220,44) scale(3.7766666666667)"><path d="M6,5.5H3C1.6,5.5,0.5,4.4,0.5,3v0c0-1.4,1.1-2.5,2.5-2.5h3V5.5z"/></g>
<g transform="translate(242,44) scale(3.7766666666667)"><rect y="0.5" width="6" height="5"/></g>
<g transform="translate(264,44) scale(3.7766666666667)"><path d="M3,5.5H0v-5h3c1.4,0,2.5,1.1,2.5,2.5v0C5.5,4.4,4.4,5.5,3,5.5z"/></g>
<g transform="translate(330,44) scale(3.7766666666667)"><circle cx="3" cy="3" r="2.5"/></g>
<g transform="translate(374,44) scale(3.7766666666667)"><path d="M6,5.5H3C1.6,5.5,0.5,4.4,0.5,3v0c0-1.4,1.1-2.5,2.5-2.5h3V5.5z"/></g>
<g transform="translate(396,44) scale(3.7766666666667)"><path d="M3,5.5H0v-5h3c1.4,0,2.5,1.1,2.5,2.5v0C5.5,4.4,4.4,5.5,3,5.5z"/></g>
<g transform="translate(440,44) scale(3.7766666666667)"><path d="M6,5.5H3C1.6,5.5,0.5,4.4,0.5,3v0c0-1.4,1.1-2.5,2.5-2.5h3V5.5z"/></g>
<g transform="translate(462,44) scale(3.7766666666667)"><path d="M3,5.5H0v-5h3c1.4,0,2.5,1.1,2.5,2.5v0C5.5,4.4,4.4,5.5,3,5.5z"/></g>
<g transform="translate(528,44) scale(3.7766666666667)"><circle cx="3" cy="3" r="2.5"/></g>
<g transform="translate(572,44) scale(3.7766666666667)"><path d="M6,5.5H3C1.6,5.5,0.5,4.4,0.5,3v0c0-1.4,1.1-2.5,2.5-2.5h3V5.5z"/></g>
<g transform="translate(594,44) scale(3.7766666666667)"><path d="M3,5.5H0v-5h3c1.4,0,2.5,1.1,2.5,2.5v0C5.5,4.4,4.4,5.5,3,5.5z"/></g>
<g transform="translate(660,44) scale(3.7766666666667)"><circle cx="3" cy="3" r="2.5"/></g>
<g transform="translate(704,44) scale(3.7766666666667)"><path d="M6,5.5H3C1.6,5.5,0.5,4.4,0.5,3v0c0-1.4,1.1-2.5,2.5-2.5h3V5.5z"/></g>
<g transform="translate(726,44) scale(3.7766666666667)"><path d="M3,5.5H0v-5h3c1.4,0,2.5,1.1,2.5,2.5v0C5.5,4.4,4.4,5.5,3,5.5z"/></g>
<g transform="translate(220,66) scale(3.7766666666667)"><path d="M6,5.5H3C1.6,5.5,0.5,4.4,0.5,3v0c0-1.4,1.1-2.5,2.5-2.5h3V5.5z"/></g>
<g transform="translate(242,66) scale(3.7766666666667)"><path d="M3,5.5H0v-5h3c1.4,0,2.5,1.1,2.5,2.5v0C5.5,4.4,4.4,5.5,3,5.5z"/></g>
<g transform="translate(286,66) scale(3.7766666666667)"><circle cx="3" cy="3" r="2.5"/></g>
<g transform="translate(352,66) scale(3.7766666666667)"><circle cx="3" cy="3" r="2.5"/></g>
<g transform="translate(462,66) scale(3.7766666666667)"><path d="M6,5.5H3C1.6,5.5,0.5,4.4,0.5,3v0c0-1.4,1.1-2.5,2.5-2.5h3V5.5z"/></g>
<g transform="translate(484,66) scale(3.7766666666667)"><path d="M3,5.5H0v-5h3c1.4,0,2.5,1.1,2.5,2.5v0C5.5,4.4,4.4,5.5,3,5.5z"/></g>
<g transform="translate(528,66) scale(3.7766666666667)"><circle cx="3" cy="3" r="2.5"/></g>
<g transform="translate(572,66) scale(3.7766666666667)"><path d="M6,5.5H3C1.6,5.5,0.5,4.4,0.5,3v0c0-1.4,1.1-2.5,2.5-2.5h3V5.5z"/></g>
<g transform="translate(594,66) scale(3.7766666666667)"><rect y="0.5" width="6" height="5"/></g>
<g transform="translate(616,66) scale(3.7766666666667)"><rect y="0.5" width="6" height="5"/></g>
<g transform="translate(638,66) scale(3.7766666666667)"><rect y="0.5" width="6" height="5"/></g>
<g transform="translate(660,66) scale(3.7766666666667)"><path d="M3,5.5H0v-5h3c1.4,0,2.5,1.1,2.5,2.5v0C5.5,4.4,4.4,5.5,3,5.5z"/></g>
<g transform="translate(704,66) scale(3.7766666666667)"><circle cx="3" cy="3" r="2.5"/></g>
<g transform="translate(748,66) scale(3.7766666666667)"><circle cx="3" cy="3" r="2.5"/></g>
<g transform="translate(220,88) scale(3.7766666666667)"><path d="M6,5.5H3C1.6,5.5,0.5,4.4,0.5,3v0c0-1.4,1.1-2.5,2.5-2.5h3V5.5z"/></g>
<g transform="translate(242,88) scale(3.7766666666667)"><path d="M3,5.5H0v-5h3c1.4,0,2.5,1.1,2.5,2.5v0C5.5,4.4,4.4,5.5,3,5.5z"/></g>
<g transform="translate(286,88) scale(3.7766666666667)"><path d="M6,5.5H3C1.6,5.5,0.5,4.4,0.5,3v0c0-1.4,1.1-2.5,2.5-2.5h3V5.5z"/></g>
<g transform="translate(308,88) scale(3.7766666666667)"><rect y="0.5" width="6" height="5"/></g>
<g transform="translate(330,88) scale(3.7766666666667)"><path d="M3,5.5H0v-5h3c1.4,0,2.5,1.1,2.5,2.5v0C5.5,4.4,4.4,5.5,3,5.5z"/></g>
<g transform="translate(374,88) scale(3.7766666666667)"><circle cx="3" cy="3" r="2.5"/></g>
<g transform="translate(484,88) scale(3.7766666666667)"><circle cx="3" cy="3" r="2.5"/></g>
<g transform="translate(572,88) scale(3.7766666666667)"><path d="M6,5.5H3C1.6,5.5,0.5,4.4,0.5,3v0c0-1.4,1.1-2.5,2.5-2.5h3V5.5z"/></g>
<g transform="translate(594,88) scale(3.7766666666667)"><path d="M3,5.5H0v-5h3c1.4,0,2.5,1.1,2.5,2.5v0C5.5,4.4,4.4,5.5,3,5.5z"/></g>
<g transform="translate(660,88) scale(3.7766666666667)"><circle cx="3" cy="3" r="2.5"/></g>
<g transform="translate(748,88) scale(3.7766666666667)"><circle cx="3" cy="3" r="2.5"/></g>
<g transform="translate(418,110) scale(3.7766666666667)"><path d="M6,5.5H3C1.6,5.5,0.5,4.4,0.5,3v0c0-1.4,1.1-2.5,2.5-2.5h3V5.5z"/></g>
<g transform="translate(440,110) scale(3.7766666666667)"><rect y="0.5" width="6" height="5"/></g>
<g transform="translate(462,110) scale(3.7766666666667)"><path d="M3,5.5H0v-5h3c1.4,0,2.5,1.1,2.5,2.5v0C5.5,4.4,4.4,5.5,3,5.5z"/></g>
<g transform="translate(506,110) scale(3.7766666666667)"><path d="M6,5.5H3C1.6,5.5,0.5,4.4,0.5,3v0c0-1.4,1.1-2.5,2.5-2.5h3V5.5z"/></g>
<g transform="translate(528,110) scale(3.7766666666667)"><path d="M3,5.5H0v-5h3c1.4,0,2.5,1.1,2.5,2.5v0C5.5,4.4,4.4,5.5,3,5.5z"/></g>
<g transform="translate(572,110) scale(3.7766666666667)"><circle cx="3" cy="3" r="2.5"/></g>
<g transform="translate(616,110) scale(3.7766666666667)"><circle cx="3" cy="3" r="2.5"/></g>
<g transform="translate(704,110) scale(3.7766666666667)"><circle cx="3" cy="3" r="2.5"/></g>
<g transform="translate(242,132) scale(3.7766666666667)"><path d="M6,5.5H3C1.6,5.5,0.5,4.4,0.5,3v0c0-1.4,1.1-2.5,2.5-2.5h3V5.5z"/></g>
<g transform="translate(264,132) scale(3.7766666666667)"><path d="M3,5.5H0v-5h3c1.4,0,2.5,1.1,2.5,2.5v0C5.5,4.4,4.4,5.5,3,5.5z"/></g>
<g transform="translate(308,132) scale(3.7766666666667)"><path d="M6,5.5H3C1.6,5.5,0.5,4.4,0.5,3v0c0-1.4,1.1-2.5,2.5-2.5h3V5.5z"/></g>
<g transform="translate(330,132) scale(3.7766666666667)"><path d="M3,5.5H0v-5h3c1.4,0,2.5,1.1,2.5,2.5v0C5.5,4.4,4.4,5.5,3,5.5z"/></g>
<g transform="translate(396,132) scale(3.7766666666667)"><circle cx="3" cy="3" r="2.5"/></g>
<g transform="translate(506,132) scale(3.7766666666667)"><path d="M6,5.5H3C1.6,5.5,0.5,4.4,0.5,3v0c0-1.4,1.1-2.5,2.5-2.5h3V5.5z"/></g>
<g transform="translate(528,132) scale(3.7766666666667)"><rect y="0.5" width="6" height="5"/></g>
<g transform="translate(550,132) scale(3.7766666666667)"><rect y="0.5" width="6" height="5"/></g>
<g transform="translate(572,132) scale(3.7766666666667)"><path d="M3,5.5H0v-5h3c1.4,0,2.5,1.1,2.5,2.5v0C5.5,4.4,4.4,5.5,3,5.5z"/></g>
<g transform="translate(682,132) scale(3.7766666666667)"><circle cx="3" cy="3" r="2.5"/></g>
<g transform="translate(726,132) scale(3.7766666666667)"><path d="M6,5.5H3C1.6,5.5,0.5,4.4,0.5,3v0c0-1.4,1.1-2.5,2.5-2.5h3V5.5z"/></g>
<g transform="translate(748,132) scale(3.7766666666667)"><path d="M3,5.5H0v-5h3c1.4,0,2.5,1.1,2.5,2.5v0C5.5,4.4,4.4,5.5,3,5.5z"/></g>
<g transform="translate(220,154) scale(3.7766666666667)"><circle cx="3" cy="3" r="2.5"/></g>
<g transform="translate(308,154) scale(3.7766666666667)"><circle cx="3" cy="3" r="2.5"/></g>
<g transform="translate(484,154) scale(3.7766666666667)"><circle cx="3" cy="3" r="2.5"/></g>
<g transform="translate(528,154) scale(3.7766666666667)"><circle cx="3" cy="3" r="2.5"/></g>
<g transform="translate(572,154) scale(3.7766666666667)"><circle cx="3" cy="3" r="2.5"/></g>
<g transform="translate(638,154) scale(3.7766666666667)"><circle cx="3" cy="3" r="2.5"/></g>
<g transform="translate(682,154) scale(3.7766666666667)"><circle cx="3" cy="3" r="2.5"/></g>
<g transform="translate(748,154) scale(3.7766666666667)"><circle cx="3" cy="3" r="2.5"/></g>
<g transform="translate(220,176) scale(3.7766666666667)"><circle cx="3" cy="3" r="2.5"/></g>
<g transform="translate(264,176) scale(3.7766666666667)"><circle cx="3" cy="3" r="2.5"/></g>
<g transform="translate(308,176) scale(3.7766666666667)"><circle cx="3" cy="3" r="2.5"/></g>
<g transform="translate(352,176) scale(3.7766666666667)"><circle cx="3" cy="3" r="2.5"/></g>
<g transform="translate(396,176) scale(3.7766666666667)"><circle cx="3" cy="3" r="2.5"/></g>
<g transform="translate(440,176) scale(3.7766666666667)"><circle cx="3" cy="3" r="2.5"/></g>
<g transform="translate(484,176) scale(3.7766666666667)"><circle cx="3" cy="3" r="2.5"/></g>
<g transform="translate(528,176) scale(3.7766666666667)"><circle cx="3" cy="3" r="2.5"/></g>
<g transform="translate(572,176) scale(3.7766666666667)"><circle cx="3" cy="3" r="2.5"/></g>
<g transform="translate(616,176) scale(3.7766666666667)"><circle cx="3" cy="3" r="2.5"/></g>
<g transform="translate(660,176) scale(3.7766666666667)"><circle cx="3" cy="3" r="2.5"/></g>
<g transform="translate(704,176) scale(3.7766666666667)"><circle cx="3" cy="3" r="2.5"/></g>
<g transform="translate(748,176) scale(3.7766666666667)"><circle cx="3" cy="3" r="2.5"/></g>
<g transform="translate(220,198) scale(3.7766666666667)"><circle cx="3" cy="3" r="2.5"/></g>
<g transform="translate(264,198) scale(3.7766666666667)"><path d="M6,5.5H3C1.6,5.5,0.5,4.4,0.5,3v0c0-1.4,1.1-2.5,2.5-2.5h3V5.5z"/></g>
<g transform="translate(286,198) scale(3.7766666666667)"><path d="M3,5.5H0v-5h3c1.4,0,2.5,1.1,2.5,2.5v0C5.5,4.4,4.4,5.5,3,5.5z"/></g>
<g transform="translate(330,198) scale(3.7766666666667)"><circle cx="3" cy="3" r="2.5"/></g>
<g transform="translate(396,198) scale(3.7766666666667)"><circle cx="3" cy="3" r="2.5"/></g>
<g transform="translate(462,198) scale(3.7766666666667)"><path d="M6,5.5H3C1.6,5.5,0.5,4.4,0.5,3v0c0-1.4,1.1-2.5,2.5-2.5h3V5.5z"/></g>
<g transform="translate(484,198) scale(3.7766666666667)"><rect y="0.5" width="6" height="5"/></g>
<g transform="translate(506,198) scale(3.7766666666667)"><rect y="0.5" width="6" height="5"/></g>
<g transform="translate(528,198) scale(3.7766666666667)"><rect y="0.5" width="6" height="5"/></g>
<g transform="translate(550,198) scale(3.7766666666667)"><path d="M3,5.5H0v-5h3c1.4,0,2.5,1.1,2.5,2.5v0C5.5,4.4,4.4,5.5,3,5.5z"/></g>
<g transform="translate(638,198) scale(3.7766666666667)"><circle cx="3" cy="3" r="2.5"/></g>
<g transform="translate(748,198) scale(3.7766666666667)"><circle cx="3" cy="3" r="2.5"/></g>
<g transform="translate(88,220) scale(3.7766666666667)"><path d="M6,5.5H3C1.6,5.5,0.5,4.4,0.5,3v0c0-1.4,1.1-2.5,2.5-2.5h3V5.5z"/></g>
<g transform="translate(110,220) scale(3.7766666666667)"><rect y="0.5" width="6" height="5"/></g>
<g transform="translate(132,220) scale(3.7766666666667)"><path d="M3,5.5H0v-5h3c1.4,0,2.5,1.1,2.5,2.5v0C5.5,4.4,4.4,5.5,3,5.5z"/></g>
<g transform="translate(176,220) scale(3.7766666666667)"><circle cx="3" cy="3" r="2.5"/></g>
<g transform="translate(220,220) scale(3.7766666666667)"><path d="M6,5.5H3C1.6,5.5,0.5,4.4,0.5,3v0c0-1.4,1.1-2.5,2.5-2.5h3V5.5z"/></g>
<g transform="translate(242,220) scale(3.7766666666667)"><path d="M3,5.5H0v-5h3c1.4,0,2.5,1.1,2.5,2.5v0C5.5,4.4,4.4,5.5,3,5.5z"/></g>
<g transform="translate(308,220) scale(3.7766666666667)"><circle cx="3" cy="3" r="2.5"/></g>
<g transform="translate(484,220) scale(3.7766666666667)"><path d="M6,5.5H3C1.6,5.5,0.5,4.4,0.5,3v0c0-1.4,1.1-2.5,2.5-2.5h3V5.5z"/></g>
<g transform="translate(506,220) scale(3.7766666666667)"><rect y="0.5" width="6" height="5"/></g>
<g transform="translate(528,220) scale(3.7766666666667)"><rect y="0.5" width="6" height="5"/></g>
<g transform="translate(550,220) scale(3.7766666666667)"><path d="M3,5.5H0v-5h3c1.4,0,2.5,1.1,2.5,2.5v0C5.5,4.4,4.4,5.5,3,5.5z"/></g>
<g transform="translate(638,220) scale(3.7766666666667)"><circle cx="3" cy="3" r="2.5"/></g>
<g transform="translate(682,220) scale(3.7766666666667)"><circle cx="3" cy="3" r="2.5"/></g>
<g transform="translate(770,220) scale(3.7766666666667)"><path d="M6,5.5H3C1.6,5.5,0.5,4.4,0.5,3v0c0-1.4,1.1-2.5,2.5-2.5h3V5.5z"/></g>
<g transform="translate(792,220) scale(3.7766666666667)"><rect y="0.5" width="6" height="5"/></g>
<g transform="translate(814,220) scale(3.7766666666667)"><path d="M3,5.5H0v-5h3c1.4,0,2.5,1.1,2.5,2.5v0C5.5,4.4,4.4,5.5,3,5.5z"/></g>
<g transform="translate(880,220) scale(3.7766666666667)"><path d="M6,5.5H3C1.6,5.5,0.5,4.4,0.5,3v0c0-1.4,1.1-2.5,2.5-2.5h3V5.5z"/></g>
<g transform="translate(902,220) scale(3.7766666666667)"><rect y="0.5" width="6" height="5"/></g>
<g transform="translate(924,220) scale(3.7766666666667)"><path d="M3,5.5H0v-5h3c1.4,0,2.5,1.1,2.5,2.5v0C5.5,4.4,4.4,5.5,3,5.5z"/></g>
<g transform="translate(66,242) scale(3.7766666666667)"><path d="M6,5.5H3C1.6,5.5,0.5,4.4,0.5,3v0c0-1.4,1.1-2.5,2.5-2.5h3V5.5z"/></g>
<g transform="translate(88,242) scale(3.7766666666667)"><rect y="0.5" width="6" height="5"/></g>
<g transform="translate(110,242) scale(3.7766666666667)"><path d="M3,5.5H0v-5h3c1.4,0,2.5,1.1,2.5,2.5v0C5.5,4.4,4.4,5.5,3,5.5z"/></g>
<g transform="translate(154,242) scale(3.7766666666667)"><circle cx="3" cy="3" r="2.5"/></g>
<g transform="translate(220,242) scale(3.7766666666667)"><circle cx="3" cy="3" r="2.5"/></g>
<g transform="translate(264,242) scale(3.7766666666667)"><path d="M6,5.5H3C1.6,5.5,0.5,4.4,0.5,3v0c0-1.4,1.1-2.5,2.5-2.5h3V5.5z"/></g>
<g transform="translate(286,242) scale(3.7766666666667)"><path d="M3,5.5H0v-5h3c1.4,0,2.5,1.1,2.5,2.5v0C5.5,4.4,4.4,5.5,3,5.5z"/></g>
<g transform="translate(352,242) scale(3.7766666666667)"><circle cx="3" cy="3" r="2.5"/></g>
<g transform="translate(506,242) scale(3.7766666666667)"><path d="M6,5.5H3C1.6,5.5,0.5,4.4,0.5,3v0c0-1.4,1.1-2.5,2.5-2.5h3V5.5z"/></g>
<g transform="translate(528,242) scale(3.7766666666667)"><path d="M3,5.5H0v-5h3c1.4,0,2.5,1.1,2.5,2.5v0C5.5,4.4,4.4,5.5,3,5.5z"/></g>
<g transform="translate(572,242) scale(3.7766666666667)"><path d="M6,5.5H3C1.6,5.5,0.5,4.4,0.5,3v0c0-1.4,1.1-2.5,2.5-2.5h3V5.5z"/></g>
<g transform="translate(594,242) scale(3.7766666666667)"><path d="M3,5.5H0v-5h3c1.4,0,2.5,1.1,2.5,2.5v0C5.5,4.4,4.4,5.5,3,5.5z"/></g>
<g transform="translate(660,242) scale(3.7766666666667)"><circle cx="3" cy="3" r="2.5"/></g>
<g transform="translate(704,242) scale(3.7766666666667)"><path d="M6,5.5H3C1.6,5.5,0.5,4.4,0.5,3v0c0-1.4,1.1-2.5,2.5-2.5h3V5.5z"/></g>
<g transform="translate(726,242) scale(3.7766666666667)"><rect y="0.5" width="6" height="5"/></g>
<g transform="translate(748,242) scale(3.7766666666667)"><rect y="0.5" width="6" height="5"/></g>
<g transform="translate(770,242) scale(3.7766666666667)"><rect y="0.5" width="6" height="5"/></g>
<g transform="translate(792,242) scale(3.7766666666667)"><rect y="0.5" width="6" height="5"/></g>
<g transform="translate(814,242) scale(3.7766666666667)"><rect y="0.5" width="6" height="5"/></g>
<g transform="translate(836,242) scale(3.7766666666667)"><path d="M3,5.5H0v-5h3c1.4,0,2.5,1.1,2.5,2.5v0C5.5,4.4,4.4,5.5,3,5.5z"/></g>
<g transform="translate(880,242) scale(3.7766666666667)"><path d="M6,5.5H3C1.6,5.5,0.5,4.4,0.5,3v0c0-1.4,1.1-2.5,2.5-2.5h3V5.5z"/></g>
<g transform="translate(902,242) scale(3.7766666666667)"><rect y="0.5" width="6" height="5"/></g>
<g transform="translate(924,242) scale(3.7766666666667)"><path d="M3,5.5H0v-5h3c1.4,0,2.5,1.1,2.5,2.5v0C5.5,4.4,4.4,5.5,3,5.5z"/></g>
<g transform="translate(44,264) scale(3.7766666666667)"><circle cx="3" cy="3" r="2.5"/></g>
<g transform="translate(88,264) scale(3.7766666666667)"><circle cx="3" cy="3" r="2.5"/></g>
<g transform="translate(132,264) scale(3.7766666666667)"><circle cx="3" cy="3" r="2.5"/></g>
<g transform="translate(176,264) scale(3.7766666666667)"><circle cx="3" cy="3" r="2.5"/></g>
<g transform="translate(220,264) scale(3.7766666666667)"><circle cx="3" cy="3" r="2.5"/></g>
<g transform="translate(286,264) scale(3.7766666666667)"><path d="M6,5.5H3C1.6,5.5,0.5,4.4,0.5,3v0c0-1.4,1.1-2.5,2.5-2.5h3V5.5z"/></g>
<g transform="translate(308,264) scale(3.7766666666667)"><path d="M3,5.5H0v-5h3c1.4,0,2.5,1.1,2.5,2.5v0C5.5,4.4,4.4,5.5,3,5.5z"/></g>
<g transform="translate(352,264) scale(3.7766666666667)"><path d="M6,5.5H3C1.6,5.5,0.5,4.4,0.5,3v0c0-1.4,1.1-2.5,2.5-2.5h3V5.5z"/></g>
<g transform="translate(374,264) scale(3.7766666666667)"><path d="M3,5.5H0v-5h3c1.4,0,2.5,1.1,2.5,2.5v0C5.5,4.4,4.4,5.5,3,5.5z"/></g>
<g transform="translate(440,264) scale(3.7766666666667)"><path d="M6,5.5H3C1.6,5.5,0.5,4.4,0.5,3v0c0-1.4,1.1-2.5,2.5-2.5h3V5.5z"/></g>
<g transform="translate(462,264) scale(3.7766666666667)"><path d="M3,5.5H0v-5h3c1.4,0,2.5,1.1,2.5,2.5v0C5.5,4.4,4.4,5.5,3,5.5z"/></g>
<g transform="translate(638,264) scale(3.7766666666667)"><circle cx="3" cy="3" r="2.5"/></g>
<g transform="translate(682,264) scale(3.7766666666667)"><path d="M6,5.5H3C1.6,5.5,0.5,4.4,0.5,3v0c0-1.4,1.1-2.5,2.5-2.5h3V5.5z"/></g>
<g transform="translate(704,264) scale(3.7766666666667)"><path d="M3,5.5H0v-5h3c1.4,0,2.5,1.1,2.5,2.5v0C5.5,4.4,4.4,5.5,3,5.5z"/></g>
<g transform="translate(748,264) scale(3.7766666666667)"><path d="M6,5.5H3C1.6,5.5,0.5,4.4,0.5,3v0c0-1.4,1.1-2.5,2.5-2.5h3V5.5z"/></g>
<g transform="translate(770,264) scale(3.7766666666667)"><path d="M3,5.5H0v-5h3c1.4,0,2.5,1.1,2.5,2.5v0C5.5,4.4,4.4,5.5,3,5.5z"/></g>
<g transform="translate(836,264) scale(3.7766666666667)"><circle cx="3" cy="3" r="2.5"/></g>
<g transform="translate(66,286) scale(3.7766666666667)"><path d="M6,5.5H3C1.6,5.5,0.5,4.4,0.5,3v0c0-1.4,1.1-2.5,2.5-2.5h3V5.5z"/></g>
<g transform="translate(88,286) scale(3.7766666666667)"><rect y="0.5" width="6" height="5"/></g>
<g transform="translate(110,286) scale(3.7766666666667)"><rect y="0.5" width="6" height="5"/></g>
<g transform="translate(132,286) scale(3.7766666666667)"><rect y="0.5" width="6" height="5"/></g>
<g transform="translate(154,286) scale(3.7766666666667)"><path d="M3,5.5H0v-5h3c1.4,0,2.5,1.1,2.5,2.5v0C5.5,4.4,4.4,5.5,3,5.5z"/></g>
<g transform="translate(198,286) scale(3.7766666666667)"><path d="M6,5.5H3C1.6,5.5,0.5,4.4,0.5,3v0c0-1.4,1.1-2.5,2.5-2.5h3V5.5z"/></g>
<g transform="translate(220,286) scale(3.7766666666667)"><rect y="0.5" width="6" height="5"/></g>
<g transform="translate(242,286) scale(3.7766666666667)"><rect y="0.5" width="6" height="5"/></g>
<g transform="translate(264,286) scale(3.7766666666667)"><rect y="0.5" width="6" height="5"/></g>
<g transform="translate(286,286) scale(3.7766666666667)"><rect y="0.5" width="6" height="5"/></g>
<g transform="translate(308,286) scale(3.7766666666667)"><rect y="0.5" width="6" height="5"/></g>
<g transform="translate(330,286) scale(3.7766666666667)"><rect y="0.5" width="6" height="5"/></g>
<g transform="translate(352,286) scale(3.7766666666667)"><rect y="0.5" width="6" height="5"/></g>
<g transform="translate(374,286) scale(3.7766666666667)"><path d="M3,5.5H0v-5h3c1.4,0,2.5,1.1,2.5,2.5v0C5.5,4.4,4.4,5.5,3,5.5z"/></g>
<g transform="translate(418,286) scale(3.7766666666667)"><path d="M6,5.5H3C1.6,5.5,0.5,4.4,0.5,3v0c0-1.4,1.1-2.5,2.5-2.5h3V5.5z"/></g>
<g transform="translate(440,286) scale(3.7766666666667)"><rect y="0.5" width="6" height="5"/></g>
<g transform="translate(462,286) scale(3.7766666666667)"><rect y="0.5" width="6" height="5"/></g>
<g transform="translate(484,286) scale(3.7766666666667)"><path d="M3,5.5H0v-5h3c1.4,0,2.5,1.1,2.5,2.5v0C5.5,4.4,4.4,5.5,3,5.5z"/></g>
<g transform="translate(528,286) scale(3.7766666666667)"><circle cx="3" cy="3" r="2.5"/></g>
<g transform="translate(572,286) scale(3.7766666666667)"><circle cx="3" cy="3" r="2.5"/></g>
<g transform="translate(704,286) scale(3.7766666666667)"><path d="M6,5.5H3C1.6,5.5,0.5,4.4,0.5,3v0c0-1.4,1.1-2.5,2.5-2.5h3V5.5z"/></g>
<g transform="translate(726,286) scale(3.7766666666667)"><rect y="0.5" width="6" height="5"/></g>
<g transform="translate(748,286) scale(3.7766666666667)"><path d="M3,5.5H0v-5h3c1.4,0,2.5,1.1,2.5,2.5v0C5.5,4.4,4.4,5.5,3,5.5z"/></g>
<g transform="translate(814,286) scale(3.7766666666667)"><path d="M6,5.5H3C1.6,5.5,0.5,4.4,0.5,3v0c0-1.4,1.1-2.5,2.5-2.5h3V5.5z"/></g>
<g transform="translate(836,286) scale(3.7766666666667)"><rect y="0.5" width="6" height="5"/></g>
<g transform="translate(858,286) scale(3.7766666666667)"><path d="M3,5.5H0v-5h3c1.4,0,2.5,1.1,2.5,2.5v0C5.5,4.4,4.4,5.5,3,5.5z"/></g>
<g transform="translate(902,286) scale(3.7766666666667)"><path d="M6,5.5H3C1.6,5.5,0.5,4.4,0.5,3v0c0-1.4,1.1-2.5,2.5-2.5h3V5.5z"/></g>
<g transform="translate(924,286) scale(3.7766666666667)"><path d="M3,5.5H0v-5h3c1.4,0,2.5,1.1,2.5,2.5v0C5.5,4.4,4.4,5.5,3,5.5z"/></g>
<g transform="translate(44,308) scale(3.7766666666667)"><circle cx="3" cy="3" r="2.5"/></g>
<g transform="translate(110,308) scale(3.7766666666667)"><circle cx="3" cy="3" r="2.5"/></g>
<g transform="translate(154,308) scale(3.7766666666667)"><path d="M6,5.5H3C1.6,5.5,0.5,4.4,0.5,3v0c0-1.4,1.1-2.5,2.5-2.5h3V5.5z"/></g>
<g transform="translate(176,308) scale(3.7766666666667)"><rect y="0.5" width="6" height="5"/></g>
<g transform="translate(198,308) scale(3.7766666666667)"><path d="M3,5.5H0v-5h3c1.4,0,2.5,1.1,2.5,2.5v0C5.5,4.4,4.4,5.5,3,5.5z"/></g>
<g transform="translate(242,308) scale(3.7766666666667)"><circle cx="3" cy="3" r="2.5"/></g>
<g transform="translate(286,308) scale(3.7766666666667)"><circle cx="3" cy="3" r="2.5"/></g>
<g transform="translate(352,308) scale(3.7766666666667)"><path d="M6,5.5H3C1.6,5.5,0.5,4.4,0.5,3v0c0-1.4,1.1-2.5,2.5-2.5h3V5.5z"/></g>
<g transform="translate(374,308) scale(3.7766666666667)"><path d="M3,5.5H0v-5h3c1.4,0,2.5,1.1,2.5,2.5v0C5.5,4.4,4.4,5.5,3,5.5z"/></g>
<g transform="translate(418,308) scale(3.7766666666667)"><path d="M6,5.5H3C1.6,5.5,0.5,4.4,0.5,3v0c0-1.4,1.1-2.5,2.5-2.5h3V5.5z"/></g>
<g transform="translate(440,308) scale(3.7766666666667)"><rect y="0.5" width="6" height="5"/></g>
<g transform="translate(462,308) scale(3.7766666666667)"><path d="M3,5.5H0v-5h3c1.4,0,2.5,1.1,2.5,2.5v0C5.5,4.4,4.4,5.5,3,5.5z"/></g>
<g transform="translate(528,308) scale(3.7766666666667)"><path d="M6,5.5H3C1.6,5.5,0.5,4.4,0.5,3v0c0-1.4,1.1-2.5,2.5-2.5h3V5.5z"/></g>
<g transform="translate(550,308) scale(3.7766666666667)"><rect y="0.5" width="6" height="5"/></g>
<g transform="translate(572,308) scale(3.7766666666667)"><path d="M3,5.5H0v-5h3c1.4,0,2.5,1.1,2.5,2.5v0C5.5,4.4,4.4,5.5,3,5.5z"/></g>
<g transform="translate(616,308) scale(3.7766666666667)"><path d="M6,5.5H3C1.6,5.5,0.5,4.4,0.5,3v0c0-1.4,1.1-2.5,2.5-2.5h3V5.5z"/></g>
<g transform="translate(638,308) scale(3.7766666666667)"><rect y="0.5" width="6" height="5"/></g>
<g transform="translate(660,308) scale(3.7766666666667)"><rect y="0.5" width="6" height="5"/></g>
<g transform="translate(682,308) scale(3.7766666666667)"><rect y="0.5" width="6" height="5"/></g>
<g transform="translate(704,308) scale(3.7766666666667)"><rect y="0.5" width="6" height="5"/></g>
<g transform="translate(726,308) scale(3.7766666666667)"><path d="M3,5.5H0v-5h3c1.4,0,2.5,1.1,2.5,2.5v0C5.5,4.4,4.4,5.5,3,5.5z"/></g>
<g transform="translate(770,308) scale(3.7766666666667)"><circle cx="3" cy="3" r="2.5"/></g>
<g transform="translate(858,308) scale(3.7766666666667)"><path d="M6,5.5H3C1.6,5.5,0.5,4.4,0.5,3v0c0-1.4,1.1-2.5,2.5-2.5h3V5.5z"/></g>
<g transform="translate(880,308) scale(3.7766666666667)"><rect y="0.5" width="6" height="5"/></g>
<g transform="translate(902,308) scale(3.7766666666667)"><path d="M3,5.5H0v-5h3c1.4,0,2.5,1.1,2.5,2.5v0C5.5,4.4,4.4,5.5,3,5.5z"/></g>
<g transform="translate(44,330) scale(3.7766666666667)"><circle cx="3" cy="3" r="2.5"/></g>
<g transform="translate(242,330) scale(3.7766666666667)"><path d="M6,5.5H3C1.6,5.5,0.5,4.4,0.5,3v0c0-1.4,1.1-2.5,2.5-2.5h3V5.5z"/></g>
<g transform="translate(264,330) scale(3.7766666666667)"><rect y="0.5" width="6" height="5"/></g>
<g transform="translate(286,330) scale(3.7766666666667)"><rect y="0.5" width="6" height="5"/></g>
<g transform="translate(308,330) scale(3.7766666666667)"><path d="M3,5.5H0v-5h3c1.4,0,2.5,1.1,2.5,2.5v0C5.5,4.4,4.4,5.5,3,5.5z"/></g>
<g transform="translate(352,330) scale(3.7766666666667)"><path d="M6,5.5H3C1.6,5.5,0.5,4.4,0.5,3v0c0-1.4,1.1-2.5,2.5-2.5h3V5.5z"/></g>
<g transform="translate(374,330) scale(3.7766666666667)"><rect y="0.5" width="6" height="5"/></g>
<g transform="translate(396,330) scale(3.7766666666667)"><path d="M3,5.5H0v-5h3c1.4,0,2.5,1.1,2.5,2.5v0C5.5,4.4,4.4,5.5,3,5.5z"/></g>
<g transform="translate(440,330) scale(3.7766666666667)"><circle cx="3" cy="3" r="2.5"/></g>
<g transform="translate(528,330) scale(3.7766666666667)"><path d="M6,5.5H3C1.6,5.5,0.5,4.4,0.5,3v0c0-1.4,1.1-2.5,2.5-2.5h3V5.5z"/></g>
<g transform="translate(550,330) scale(3.7766666666667)"><path d="M3,5.5H0v-5h3c1.4,0,2.5,1.1,2.5,2.5v0C5.5,4.4,4.4,5.5,3,5.5z"/></g>
<g transform="translate(594,330) scale(3.7766666666667)"><path d="M6,5.5H3C1.6,5.5,0.5,4.4,0.5,3v0c0-1.4,1.1-2.5,2.5-2.5h3V5.5z"/></g>
<g transform="translate(616,330) scale(3.7766666666667)"><rect y="0.5" width="6" height="5"/></g>
<g transform="translate(638,330) scale(3.7766666666667)"><path d="M3,5.5H0v-5h3c1.4,0,2.5,1.1,2.5,2.5v0C5.5,4.4,4.4,5.5,3,5.5z"/></g>
<g transform="translate(682,330) scale(3.7766666666667)"><path d="M6,5.5H3C1.6,5.5,0.5,4.4,0.5,3v0c0-1.4,1.1-2.5,2.5-2.5h3V5.5z"/></g>
<g transform="translate(704,330) scale(3.7766666666667)"><path d="M3,5.5H0v-5h3c1.4,0,2.5,1.1,2.5,2.5v0C5.5,4.4,4.4,5.5,3,5.5z"/></g>
<g transform="translate(748,330) scale(3.7766666666667)"><circle cx="3" cy="3" r="2.5"/></g>
<g transform="translate(814,330) scale(3.7766666666667)"><path d="M6,5.5H3C1.6,5.5,0.5,4.4,0.5,3v0c0-1.4,1.1-2.5,2.5-2.5h3V5.5z"/></g>
<g transform="translate(836,330) scale(3.7766666666667)"><rect y="0.5" width="6" height="5"/></g>
<g transform="translate(858,330) scale(3.7766666666667)"><rect y="0.5" width="6" height="5"/></g>
<g transform="translate(880,330) scale(3.7766666666667)"><rect y="0.5" width="6" height="5"/></g>
<g transform="translate(902,330) scale(3.7766666666667)"><rect y="0.5" width="6" height="5"/></g>
<g transform="translate(924,330) scale(3.7766666666667)"><path d="M3,5.5H0v-5h3c1.4,0,2.5,1.1,2.5,2.5v0C5.5,4.4,4.4,5.5,3,5.5z"/></g>
<g transform="translate(110,352) scale(3.7766666666667)"><circle cx="3" cy="3" r="2.5"/></g>
<g transform="translate(154,352) scale(3.7766666666667)"><path d="M6,5.5H3C1.6,5.5,0.5,4.4,0.5,3v0c0-1.4,1.1-2.5,2.5-2.5h3V5.5z"/></g>
<g transform="translate(176,352) scale(3.7766666666667)"><path d="M3,5.5H0v-5h3c1.4,0,2.5,1.1,2.5,2.5v0C5.5,4.4,4.4,5.5,3,5.5z"/></g>
<g transform="translate(220,352) scale(3.7766666666667)"><circle cx="3" cy="3" r="2.5"/></g>
<g transform="translate(264,352) scale(3.7766666666667)"><circle cx="3" cy="3" r="2.5"/></g>
<g transform="translate(330,352) scale(3.7766666666667)"><path d="M6,5.5H3C1.6,5.5,0.5,4.4,0.5,3v0c0-1.4,1.1-2.5,2.5-2.5h3V5.5z"/></g>
<g transform="translate(352,352) scale(3.7766666666667)"><rect y="0.5" width="6" height="5"/></g>
<g transform="translate(374,352) scale(3.7766666666667)"><path d="M3,5.5H0v-5h3c1.4,0,2.5,1.1,2.5,2.5v0C5.5,4.4,4.4,5.5,3,5.5z"/></g>
<g transform="translate(462,352) scale(3.7766666666667)"><circle cx="3" cy="3" r="2.5"/></g>
<g transform="translate(506,352) scale(3.7766666666667)"><circle cx="3" cy="3" r="2.5"/></g>
<g transform="translate(572,352) scale(3.7766666666667)"><circle cx="3" cy="3" r="2.5"/></g>
<g transform="translate(616,352) scale(3.7766666666667)"><path d="M6,5.5H3C1.6,5.5,0.5,4.4,0.5,3v0c0-1.4,1.1-2.5,2.5-2.5h3V5.5z"/></g>
<g transform="translate(638,352) scale(3.7766666666667)"><rect y="0.5" width="6" height="5"/></g>
<g transform="translate(660,352) scale(3.7766666666667)"><rect y="0.5" width="6" height="5"/></g>
<g transform="translate(682,352) scale(3.7766666666667)"><path d="M3,5.5H0v-5h3c1.4,0,2.5,1.1,2.5,2.5v0C5.5,4.4,4.4,5.5,3,5.5z"/></g>
<g transform="translate(726,352) scale(3.7766666666667)"><circle cx="3" cy="3" r="2.5"/></g>
<g transform="translate(770,352) scale(3.7766666666667)"><circle cx="3" cy="3" r="2.5"/></g>
<g transform="translate(814,352) scale(3.7766666666667)"><path d="M6,5.5H3C1.6,5.5,0.5,4.4,0.5,3v0c0-1.4,1.1-2.5,2.5-2.5h3V5.5z"/></g>
<g transform="translate(836,352) scale(3.7766666666667)"><path d="M3,5.5H0v-5h3c1.4,0,2.5,1.1,2.5,2.5v0C5.5,4.4,4.4,5.5,3,5.5z"/></g>
<g transform="translate(88,374) scale(3.7766666666667)"><circle cx="3" cy="3" r="2.5"/></g>
<g transform="translate(132,374) scale(3.7766666666667)"><path d="M6,5.5H3C1.6,5.5,0.5,4.4,0.5,3v0c0-1.4,1.1-2.5,2.5-2.5h3V5.5z"/></g>
<g transform="translate(154,374) scale(3.7766666666667)"><path d="M3,5.5H0v-5h3c1.4,0,2.5,1.1,2.5,2.5v0C5.5,4.4,4.4,5.5,3,5.5z"/></g>
<g transform="translate(220,374) scale(3.7766666666667)"><circle cx="3" cy="3" r="2.5"/></g>
<g transform="translate(286,374) scale(3.7766666666667)"><circle cx="3" cy="3" r="2.5"/></g>
<g transform="translate(374,374) scale(3.7766666666667)"><path d="M6,5.5H3C1.6,5.5,0.5,4.4,0.5,3v0c0-1.4,1.1-2.5,2.5-2.5h3V5.5z"/></g>
<g transform="translate(396,374) scale(3.7766666666667)"><path d="M3,5.5H0v-5h3c1.4,0,2.5,1.1,2.5,2.5v0C5.5,4.4,4.4,5.5,3,5.5z"/></g>
<g transform="translate(440,374) scale(3.7766666666667)"><path d="M6,5.5H3C1.6,5.5,0.5,4.4,0.5,3v0c0-1.4,1.1-2.5,2.5-2.5h3V5.5z"/></g>
<g transform="translate(462,374) scale(3.7766666666667)"><path d="M3,5.5H0v-5h3c1.4,0,2.5,1.1,2.5,2.5v0C5.5,4.4,4.4,5.5,3,5.5z"/></g>
<g transform="translate(506,374) scale(3.7766666666667)"><path d="M6,5.5H3C1.6,5.5,0.5,4.4,0.5,3v0c0-1.4,1.1-2.5,2.5-2.5h3V5.5z"/></g>
<g transform="translate(528,374) scale(3.7766666666667)"><path d="M3,5.5H0v-5h3c1.4,0,2.5,1.1,2.5,2.5v0C5.5,4.4,4.4,5.5,3,5.5z"/></g>
<g transform="translate(572,374) scale(3.7766666666667)"><circle cx="3" cy="3" r="2.5"/></g>
<g transform="translate(638,374) scale(3.7766666666667)"><circle cx="3" cy="3" r="2.5"/></g>
<g transform="translate(704,374) scale(3.7766666666667)"><path d="M6,5.5H3C1.6,5.5,0.5,4.4,0.5,3v0c0-1.4,1.1-2.5,2.5-2.5h3V5.5z"/></g>
<g transform="translate(726,374) scale(3.7766666666667)"><rect y="0.5" width="6" height="5"/></g>
<g transform="translate(748,374) scale(3.7766666666667)"><path d="M3,5.5H0v-5h3c1.4,0,2.5,1.1,2.5,2.5v0C5.5,4.4,4.4,5.5,3,5.5z"/></g>
<g transform="translate(792,374) scale(3.7766666666667)"><path d="M6,5.5H3C1.6,5.5,0.5,4.4,0.5,3v0c0-1.4,1.1-2.5,2.5-2.5h3V5.5z"/></g>
<g transform="translate(814,374) scale(3.7766666666667)"><path d="M3,5.5H0v-5h3c1.4,0,2.5,1.1,2.5,2.5v0C5.5,4.4,4.4,5.5,3,5.5z"/></g>
<g transform="translate(858,374) scale(3.7766666666667)"><circle cx="3" cy="3" r="2.5"/></g>
<g transform="translate(66,396) scale(3.7766666666667)"><path d="M6,5.5H3C1.6,5.5,0.5,4.4,0.5,3v0c0-1.4,1.1-2.5,2.5-2.5h3V5.5z"/></g>
<g transform="translate(88,396) scale(3.7766666666667)"><rect y="0.5" width="6" height="5"/></g>
<g transform="translate(110,396) scale(3.7766666666667)"><rect y="0.5" width="6" height="5"/></g>
<g transform="translate(132,396) scale(3.7766666666667)"><path d="M3,5.5H0v-5h3c1.4,0,2.5,1.1,2.5,2.5v0C5.5,4.4,4.4,5.5,3,5.5z"/></g>
<g transform="translate(176,396) scale(3.7766666666667)"><path d="M6,5.5H3C1.6,5.5,0.5,4.4,0.5,3v0c0-1.4,1.1-2.5,2.5-2.5h3V5.5z"/></g>
<g transform="translate(198,396) scale(3.7766666666667)"><path d="M3,5.5H0v-5h3c1.4,0,2.5,1.1,2.5,2.5v0C5.5,4.4,4.4,5.5,3,5.5z"/></g>
<g transform="translate(264,396) scale(3.7766666666667)"><circle cx="3" cy="3" r="2.5"/></g>
<g transform="translate(308,396) scale(3.7766666666667)"><circle cx="3" cy="3" r="2.5"/></g>
<g transform="translate(374,396) scale(3.7766666666667)"><path d="M6,5.5H3C1.6,5.5,0.5,4.4,0.5,3v0c0-1.4,1.1-2.5,2.5-2.5h3V5.5z"/></g>
<g transform="translate(396,396) scale(3.7766666666667)"><rect y="0.5" width="6" height="5"/></g>
<g transform="translate(418,396) scale(3.7766666666667)"><path d="M3,5.5H0v-5h3c1.4,0,2.5,1.1,2.5,2.5v0C5.5,4.4,4.4,5.5,3,5.5z"/></g>
<g transform="translate(616,396) scale(3.7766666666667)"><path d="M6,5.5H3C1.6,5.5,0.5,4.4,0.5,3v0c0-1.4,1.1-2.5,2.5-2.5h3V5.5z"/></g>
<g transform="translate(638,396) scale(3.7766666666667)"><path d="M3,5.5H0v-5h3c1.4,0,2.5,1.1,2.5,2.5v0C5.5,4.4,4.4,5.5,3,5.5z"/></g>
<g transform="translate(682,396) scale(3.7766666666667)"><circle cx="3" cy="3" r="2.5"/></g>
<g transform="translate(726,396) scale(3.7766666666667)"><circle cx="3" cy="3" r="2.5"/></g>
<g transform="translate(770,396) scale(3.7766666666667)"><circle cx="3" cy="3" r="2.5"/></g>
<g transform="translate(814,396) scale(3.7766666666667)"><circle cx="3" cy="3" r="2.5"/></g>
<g transform="translate(858,396) scale(3.7766666666667)"><path d="M6,5.5H3C1.6,5.5,0.5,4.4,0.5,3v0c0-1.4,1.1-2.5,2.5-2.5h3V5.5z"/></g>
<g transform="translate(880,396) scale(3.7766666666667)"><rect y="0.5" width="6" height="5"/></g>
<g transform="translate(902,396) scale(3.7766666666667)"><path d="M3,5.5H0v-5h3c1.4,0,2.5,1.1,2.5,2.5v0C5.5,4.4,4.4,5.5,3,5.5z"/></g>
<g transform="translate(44,418) scale(3.7766666666667)"><path d="M6,5.5H3C1.6,5.5,0.5,4.4,0.5,3v0c0-1.4,1.1-2.5,2.5-2.5h3V5.5z"/></g>
<g transform="translate(66,418) scale(3.7766666666667)"><path d="M3,5.5H0v-5h3c1.4,0,2.5,1.1,2.5,2.5v0C5.5,4.4,4.4,5.5,3,5.5z"/></g>
<g transform="translate(132,418) scale(3.7766666666667)"><path d="M6,5.5H3C1.6,5.5,0.5,4.4,0.5,3v0c0-1.4,1.1-2.5,2.5-2.5h3V5.5z"/></g>
<g transform="translate(154,418) scale(3.7766666666667)"><path d="M3,5.5H0v-5h3c1.4,0,2.5,1.1,2.5,2.5v0C5.5,4.4,4.4,5.5,3,5.5z"/></g>
<g transform="translate(198,418) scale(3.7766666666667)"><path d="M6,5.5H3C1.6,5.5,0.5,4.4,0.5,3v0c0-1.4,1.1-2.5,2.5-2.5h3V5.5z"/></g>
<g transform="translate(220,418) scale(3.7766666666667)"><path d="M3,5.5H0v-5h3c1.4,0,2.5,1.1,2.5,2.5v0C5.5,4.4,4.4,5.5,3,5.5z"/></g>
<g transform="translate(418,418) scale(3.7766666666667)"><path d="M6,5.5H3C1.6,5.5,0.5,4.4,0.5,3v0c0-1.4,1.1-2.5,2.5-2.5h3V5.5z"/></g>
<g transform="translate(440,418) scale(3.7766666666667)"><path d="M3,5.5H0v-5h3c1.4,0,2.5,1.1,2.5,2.5v0C5.5,4.4,4.4,5.5,3,5.5z"/></g>
<g transform="translate(506,418) scale(3.7766666666667)"><path d="M6,5.5H3C1.6,5.5,0.5,4.4,0.5,3v0c0-1.4,1.1-2.5,2.5-2.5h3V5.5z"/></g>
<g transform="translate(528,418) scale(3.7766666666667)"><path d="M3,5.5H0v-5h3c1.4,0,2.5,1.1,2.5,2.5v0C5.5,4.4,4.4,5.5,3,5.5z"/></g>
<g transform="translate(572,418) scale(3.7766666666667)"><circle cx="3" cy="3" r="2.5"/></g>
<g transform="translate(682,418) scale(3.7766666666667)"><path d="M6,5.5H3C1.6,5.5,0.5,4.4,0.5,3v0c0-1.4,1.1-2.5,2.5-2.5h3V5.5z"/></g>
<g transform="translate(704,418) scale(3.7766666666667)"><rect y="0.5" width="6" height="5"/></g>
<g transform="translate(726,418) scale(3.7766666666667)"><rect y="0.5" width="6" height="5"/></g>
<g transform="translate(748,418) scale(3.7766666666667)"><path d="M3,5.5H0v-5h3c1.4,0,2.5,1.1,2.5,2.5v0C5.5,4.4,4.4,5.5,3,5.5z"/></g>
<g transform="translate(792,418) scale(3.7766666666667)"><path d="M6,5.5H3C1.6,5.5,0.5,4.4,0.5,3v0c0-1.4,1.1-2.5,2.5-2.5h3V5.5z"/></g>
<g transform="translate(814,418) scale(3.7766666666667)"><rect y="0.5" width="6" height="5"/></g>
<g transform="translate(836,418) scale(3.7766666666667)"><rect y="0.5" width="6" height="5"/></g>
<g transform="translate(858,418) scale(3.7766666666667)"><path d="M3,5.5H0v-5h3c1.4,0,2.5,1.1,2.5,2.5v0C5.5,4.4,4.4,5.5,3,5.5z"/></g>
<g transform="translate(902,418) scale(3.7766666666667)"><path d="M6,5.5H3C1.6,5.5,0.5,4.4,0.5,3v0c0-1.4,1.1-2.5,2.5-2.5h3V5.5z"/></g>
<g transform="translate(924,418) scale(3.7766666666667)"><path d="M3,5.5H0v-5h3c1.4,0,2.5,1.1,2.5,2.5v0C5.5,4.4,4.4,5.5,3,5.5z"/></g>
<g transform="translate(44,440) scale(3.7766666666667)"><path d="M6,5.5H3C1.6,5.5,0.5,4.4,0.5,3v0c0-1.4,1.1-2.5,2.5-2.5h3V5.5z"/></g>
<g transform="translate(66,440) scale(3.7766666666667)"><path d="M3,5.5H0v-5h3c1.4,0,2.5,1.1,2.5,2.5v0C5.5,4.4,4.4,5.5,3,5.5z"/></g>
<g transform="translate(110,440) scale(3.7766666666667)"><circle cx="3" cy="3" r="2.5"/></g>
<g transform="translate(154,440) scale(3.7766666666667)"><path d="M6,5.5H3C1.6,5.5,0.5,4.4,0.5,3v0c0-1.4,1.1-2.5,2.5-2.5h3V5.5z"/></g>
<g transform="translate(176,440) scale(3.7766666666667)"><rect y="0.5" width="6" height="5"/></g>
<g transform="translate(198,440) scale(3.7766666666667)"><path d="M3,5.5H0v-5h3c1.4,0,2.5,1.1,2.5,2.5v0C5.5,4.4,4.4,5.5,3,5.5z"/></g>
<g transform="translate(242,440) scale(3.7766666666667)"><path d="M6,5.5H3C1.6,5.5,0.5,4.4,0.5,3v0c0-1.4,1.1-2.5,2.5-2.5h3V5.5z"/></g>
<g transform="translate(264,440) scale(3.7766666666667)"><path d="M3,5.5H0v-5h3c1.4,0,2.5,1.1,2.5,2.5v0C5.5,4.4,4.4,5.5,3,5.5z"/></g>
<g transform="translate(396,440) scale(3.7766666666667)"><circle cx="3" cy="3" r="2.5"/></g>
<g transform="translate(462,440) scale(3.7766666666667)"><circle cx="3" cy="3" r="2.5"/></g>
<g transform="translate(528,440) scale(3.7766666666667)"><path d="M6,5.5H3C1.6,5.5,0.5,4.4,0.5,3v0c0-1.4,1.1-2.5,2.5-2.5h3V5.5z"/></g>
<g transform="translate(550,440) scale(3.7766666666667)"><rect y="0.5" width="6" height="5"/></g>
<g transform="translate(572,440) scale(3.7766666666667)"><rect y="0.5" width="6" height="5"/></g>
<g transform="translate(594,440) scale(3.7766666666667)"><rect y="0.5" width="6" height="5"/></g>
<g transform="translate(616,440) scale(3.7766666666667)"><rect y="0.5" width="6" height="5"/></g>
<g transform="translate(638,440) scale(3.7766666666667)"><path d="M3,5.5H0v-5h3c1.4,0,2.5,1.1,2.5,2.5v0C5.5,4.4,4.4,5.5,3,5.5z"/></g>
<g transform="translate(682,440) scale(3.7766666666667)"><circle cx="3" cy="3" r="2.5"/></g>
<g transform="translate(836,440) scale(3.7766666666667)"><circle cx="3" cy="3" r="2.5"/></g>
<g transform="translate(44,462) scale(3.7766666666667)"><path d="M6,5.5H3C1.6,5.5,0.5,4.4,0.5,3v0c0-1.4,1.1-2.5,2.5-2.5h3V5.5z"/></g>
<g transform="translate(66,462) scale(3.7766666666667)"><rect y="0.5" width="6" height="5"/></g>
<g transform="translate(88,462) scale(3.7766666666667)"><path d="M3,5.5H0v-5h3c1.4,0,2.5,1.1,2.5,2.5v0C5.5,4.4,4.4,5.5,3,5.5z"/></g>
<g transform="translate(132,462) scale(3.7766666666667)"><circle cx="3" cy="3" r="2.5"/></g>
<g transform="translate(198,462) scale(3.7766666666667)"><path d="M6,5.5H3C1.6,5.5,0.5,4.4,0.5,3v0c0-1.4,1.1-2.5,2.5-2.5h3V5.5z"/></g>
<g transform="translate(220,462) scale(3.7766666666667)"><rect y="0.5" width="6" height="5"/></g>
<g transform="translate(242,462) scale(3.7766666666667)"><path d="M3,5.5H0v-5h3c1.4,0,2.5,1.1,2.5,2.5v0C5.5,4.4,4.4,5.5,3,5.5z"/></g>
<g transform="translate(330,462) scale(3.7766666666667)"><circle cx="3" cy="3" r="2.5"/></g>
<g transform="translate(374,462) scale(3.7766666666667)"><circle cx="3" cy="3" r="2.5"/></g>
<g transform="translate(440,462) scale(3.7766666666667)"><circle cx="3" cy="3" r="2.5"/></g>
<g transform="translate(484,462) scale(3.7766666666667)"><circle cx="3" cy="3" r="2.5"/></g>
<g transform="translate(550,462) scale(3.7766666666667)"><path d="M6,5.5H3C1.6,5.5,0.5,4.4,0.5,3v0c0-1.4,1.1-2.5,2.5-2.5h3V5.5z"/></g>
<g transform="translate(572,462) scale(3.7766666666667)"><path d="M3,5.5H0v-5h3c1.4,0,2.5,1.1,2.5,2.5v0C5.5,4.4,4.4,5.5,3,5.5z"/></g>
<g transform="translate(638,462) scale(3.7766666666667)"><circle cx="3" cy="3" r="2.5"/></g>
<g transform="translate(682,462) scale(3.7766666666667)"><path d="M6,5.5H3C1.6,5.5,0.5,4.4,0.5,3v0c0-1.4,1.1-2.5,2.5-2.5h3V5.5z"/></g>
<g transform="translate(704,462) scale(3.7766666666667)"><path d="M3,5.5H0v-5h3c1.4,0,2.5,1.1,2.5,2.5v0C5.5,4.4,4.4,5.5,3,5.5z"/></g>
<g transform="translate(748,462) scale(3.7766666666667)"><circle cx="3" cy="3" r="2.5"/></g>
<g transform="translate(836,462) scale(3.7766666666667)"><path d="M6,5.5H3C1.6,5.5,0.5,4.4,0.5,3v0c0-1.4,1.1-2.5,2.5-2.5h3V5.5z"/></g>
<g transform="translate(858,462) scale(3.7766666666667)"><path d="M3,5.5H0v-5h3c1.4,0,2.5,1.1,2.5,2.5v0C5.5,4.4,4.4,5.5,3,5.5z"/></g>
<g transform="translate(154,484) scale(3.7766666666667)"><path d="M6,5.5H3C1.6,5.5,0.5,4.4,0.5,3v0c0-1.4,1.1-2.5,2.5-2.5h3V5.5z"/></g>
<g transform="translate(176,484) scale(3.7766666666667)"><path d="M3,5.5H0v-5h3c1.4,0,2.5,1.1,2.5,2.5v0C5.5,4.4,4.4,5.5,3,5.5z"/></g>
<g transform="translate(308,484) scale(3.7766666666667)"><path d="M6,5.5H3C1.6,5.5,0.5,4.4,0.5,3v0c0-1.4,1.1-2.5,2.5-2.5h3V5.5z"/></g>
<g transform="translate(330,484) scale(3.7766666666667)"><path d="M3,5.5H0v-5h3c1.4,0,2.5,1.1,2.5,2.5v0C5.5,4.4,4.4,5.5,3,5.5z"/></g>
<g transform="translate(374,484) scale(3.7766666666667)"><circle cx="3" cy="3" r="2.5"/></g>
<g transform="translate(418,484) scale(3.7766666666667)"><path d="M6,5.5H3C1.6,5.5,0.5,4.4,0.5,3v0c0-1.4,1.1-2.5,2.5-2.5h3V5.5z"/></g>
<g transform="translate(440,484) scale(3.7766666666667)"><rect y="0.5" width="6" height="5"/></g>
<g transform="translate(462,484) scale(3.7766666666667)"><path d="M3,5.5H0v-5h3c1.4,0,2.5,1.1,2.5,2.5v0C5.5,4.4,4.4,5.5,3,5.5z"/></g>
<g transform="translate(506,484) scale(3.7766666666667)"><circle cx="3" cy="3" r="2.5"/></g>
<g transform="translate(550,484) scale(3.7766666666667)"><path d="M6,5.5H3C1.6,5.5,0.5,4.4,0.5,3v0c0-1.4,1.1-2.5,2.5-2.5h3V5.5z"/></g>
<g transform="translate(572,484) scale(3.7766666666667)"><rect y="0.5" width="6" height="5"/></g>
<g transform="translate(594,484) scale(3.7766666666667)"><path d="M3,5.5H0v-5h3c1.4,0,2.5,1.1,2.5,2.5v0C5.5,4.4,4.4,5.5,3,5.5z"/></g>
<g transform="translate(638,484) scale(3.7766666666667)"><path d="M6,5.5H3C1.6,5.5,0.5,4.4,0.5,3v0c0-1.4,1.1-2.5,2.5-2.5h3V5.5z"/></g>
<g transform="translate(660,484) scale(3.7766666666667)"><path d="M3,5.5H0v-5h3c1.4,0,2.5,1.1,2.5,2.5v0C5.5,4.4,4.4,5.5,3,5.5z"/></g>
<g transform="translate(726,484) scale(3.7766666666667)"><circle cx="3" cy="3" r="2.5"/></g>
<g transform="translate(770,484) scale(3.7766666666667)"><circle cx="3" cy="3" r="2.5"/></g>
<g transform="translate(836,484) scale(3.7766666666667)"><circle cx="3" cy="3" r="2.5"/></g>
<g transform="translate(880,484) scale(3.7766666666667)"><path d="M6,5.5H3C1.6,5.5,0.5,4.4,0.5,3v0c0-1.4,1.1-2.5,2.5-2.5h3V5.5z"/></g>
<g transform="translate(902,484) scale(3.7766666666667)"><path d="M3,5.5H0v-5h3c1.4,0,2.5,1.1,2.5,2.5v0C5.5,4.4,4.4,5.5,3,5.5z"/></g>
<g transform="translate(88,506) scale(3.7766666666667)"><circle cx="3" cy="3" r="2.5"/></g>
<g transform="translate(132,506) scale(3.7766666666667)"><path d="M6,5.5H3C1.6,5.5,0.5,4.4,0.5,3v0c0-1.4,1.1-2.5,2.5-2.5h3V5.5z"/></g>
<g transform="translate(154,506) scale(3.7766666666667)"><path d="M3,5.5H0v-5h3c1.4,0,2.5,1.1,2.5,2.5v0C5.5,4.4,4.4,5.5,3,5.5z"/></g>
<g transform="translate(286,506) scale(3.7766666666667)"><circle cx="3" cy="3" r="2.5"/></g>
<g transform="translate(374,506) scale(3.7766666666667)"><circle cx="3" cy="3" r="2.5"/></g>
<g transform="translate(418,506) scale(3.7766666666667)"><path d="M6,5.5H3C1.6,5.5,0.5,4.4,0.5,3v0c0-1.4,1.1-2.5,2.5-2.5h3V5.5z"/></g>
<g transform="translate(440,506) scale(3.7766666666667)"><rect y="0.5" width="6" height="5"/></g>
<g transform="translate(462,506) scale(3.7766666666667)"><path d="M3,5.5H0v-5h3c1.4,0,2.5,1.1,2.5,2.5v0C5.5,4.4,4.4,5.5,3,5.5z"/></g>
<g transform="translate(506,506) scale(3.7766666666667)"><circle cx="3" cy="3" r="2.5"/></g>
<g transform="translate(572,506) scale(3.7766666666667)"><path d="M6,5.5H3C1.6,5.5,0.5,4.4,0.5,3v0c0-1.4,1.1-2.5,2.5-2.5h3V5.5z"/></g>
<g transform="translate(594,506) scale(3.7766666666667)"><rect y="0.5" width="6" height="5"/></g>
<g transform="translate(616,506) scale(3.7766666666667)"><path d="M3,5.5H0v-5h3c1.4,0,2.5,1.1,2.5,2.5v0C5.5,4.4,4.4,5.5,3,5.5z"/></g>
<g transform="translate(660,506) scale(3.7766666666667)"><circle cx="3" cy="3" r="2.5"/></g>
<g transform="translate(704,506) scale(3.7766666666667)"><path d="M6,5.5H3C1.6,5.5,0.5,4.4,0.5,3v0c0-1.4,1.1-2.5,2.5-2.5h3V5.5z"/></g>
<g transform="translate(726,506) scale(3.7766666666667)"><rect y="0.5" width="6" height="5"/></g>
<g transform="translate(748,506) scale(3.7766666666667)"><rect y="0.5" width="6" height="5"/></g>
<g transform="translate(770,506) scale(3.7766666666667)"><rect y="0.5" width="6" height="5"/></g>
<g transform="translate(792,506) scale(3.7766666666667)"><rect y="0.5" width="6" height="5"/></g>
<g transform="translate(814,506) scale(3.7766666666667)"><path d="M3,5.5H0v-5h3c1.4,0,2.5,1.1,2.5,2.5v0C5.5,4.4,4.4,5.5,3,5.5z"/></g>
<g transform="translate(902,506) scale(3.7766666666667)"><path d="M6,5.5H3C1.6,5.5,0.5,4.4,0.5,3v0c0-1.4,1.1-2.5,2.5-2.5h3V5.5z"/></g>
<g transform="translate(924,506) scale(3.7766666666667)"><path d="M3,5.5H0v-5h3c1.4,0,2.5,1.1,2.5,2.5v0C5.5,4.4,4.4,5.5,3,5.5z"/></g>
<g transform="translate(66,528) scale(3.7766666666667)"><path d="M6,5.5H3C1.6,5.5,0.5,4.4,0.5,3v0c0-1.4,1.1-2.5,2.5-2.5h3V5.5z"/></g>
<g transform="translate(88,528) scale(3.7766666666667)"><rect y="0.5" width="6" height="5"/></g>
<g transform="translate(110,528) scale(3.7766666666667)"><rect y="0.5" width="6" height="5"/></g>
<g transform="translate(132,528) scale(3.7766666666667)"><rect y="0.5" width="6" height="5"/></g>
<g transform="translate(154,528) scale(3.7766666666667)"><rect y="0.5" width="6" height="5"/></g>
<g transform="translate(176,528) scale(3.7766666666667)"><rect y="0.5" width="6" height="5"/></g>
<g transform="translate(198,528) scale(3.7766666666667)"><rect y="0.5" width="6" height="5"/></g>
<g transform="translate(220,528) scale(3.7766666666667)"><rect y="0.5" width="6" height="5"/></g>
<g transform="translate(242,528) scale(3.7766666666667)"><path d="M3,5.5H0v-5h3c1.4,0,2.5,1.1,2.5,2.5v0C5.5,4.4,4.4,5.5,3,5.5z"/></g>
<g transform="translate(286,528) scale(3.7766666666667)"><circle cx="3" cy="3" r="2.5"/></g>
<g transform="translate(330,528) scale(3.7766666666667)"><circle cx="3" cy="3" r="2.5"/></g>
<g transform="translate(440,528) scale(3.7766666666667)"><circle cx="3" cy="3" r="2.5"/></g>
<g transform="translate(550,528) scale(3.7766666666667)"><circle cx="3" cy="3" r="2.5"/></g>
<g transform="translate(594,528) scale(3.7766666666667)"><path d="M6,5.5H3C1.6,5.5,0.5,4.4,0.5,3v0c0-1.4,1.1-2.5,2.5-2.5h3V5.5z"/></g>
<g transform="translate(616,528) scale(3.7766666666667)"><rect y="0.5" width="6" height="5"/></g>
<g transform="translate(638,528) scale(3.7766666666667)"><path d="M3,5.5H0v-5h3c1.4,0,2.5,1.1,2.5,2.5v0C5.5,4.4,4.4,5.5,3,5.5z"/></g>
<g transform="translate(682,528) scale(3.7766666666667)"><path d="M6,5.5H3C1.6,5.5,0.5,4.4,0.5,3v0c0-1.4,1.1-2.5,2.5-2.5h3V5.5z"/></g>
<g transform="translate(704,528) scale(3.7766666666667)"><path d="M3,5.5H0v-5h3c1.4,0,2.5,1.1,2.5,2.5v0C5.5,4.4,4.4,5.5,3,5.5z"/></g>
<g transform="translate(748,528) scale(3.7766666666667)"><path d="M6,5.5H3C1.6,5.5,0.5,4.4,0.5,3v0c0-1.4,1.1-2.5,2.5-2.5h3V5.5z"/></g>
<g transform="translate(770,528) scale(3.7766666666667)"><path d="M3,5.5H0v-5h3c1.4,0,2.5,1.1,2.5,2.5v0C5.5,4.4,4.4,5.5,3,5.5z"/></g>
<g transform="translate(858,528) scale(3.7766666666667)"><circle cx="3" cy="3" r="2.5"/></g>
<g transform="translate(132,550) scale(3.7766666666667)"><path d="M6,5.5H3C1.6,5.5,0.5,4.4,0.5,3v0c0-1.4,1.1-2.5,2.5-2.5h3V5.5z"/></g>
<g transform="translate(154,550) scale(3.7766666666667)"><path d="M3,5.5H0v-5h3c1.4,0,2.5,1.1,2.5,2.5v0C5.5,4.4,4.4,5.5,3,5.5z"/></g>
<g transform="translate(198,550) scale(3.7766666666667)"><path d="M6,5.5H3C1.6,5.5,0.5,4.4,0.5,3v0c0-1.4,1.1-2.5,2.5-2.5h3V5.5z"/></g>
<g transform="translate(220,550) scale(3.7766666666667)"><path d="M3,5.5H0v-5h3c1.4,0,2.5,1.1,2.5,2.5v0C5.5,4.4,4.4,5.5,3,5.5z"/></g>
<g transform="translate(286,550) scale(3.7766666666667)"><circle cx="3" cy="3" r="2.5"/></g>
<g transform="translate(374,550) scale(3.7766666666667)"><path d="M6,5.5H3C1.6,5.5,0.5,4.4,0.5,3v0c0-1.4,1.1-2.5,2.5-2.5h3V5.5z"/></g>
<g transform="translate(396,550) scale(3.7766666666667)"><path d="M3,5.5H0v-5h3c1.4,0,2.5,1.1,2.5,2.5v0C5.5,4.4,4.4,5.5,3,5.5z"/></g>
<g transform="translate(462,550) scale(3.7766666666667)"><path d="M6,5.5H3C1.6,5.5,0.5,4.4,0.5,3v0c0-1.4,1.1-2.5,2.5-2.5h3V5.5z"/></g>
<g transform="translate(484,550) scale(3.7766666666667)"><path d="M3,5.5H0v-5h3c1.4,0,2.5,1.1,2.5,2.5v0C5.5,4.4,4.4,5.5,3,5.5z"/></g>
<g transform="translate(594,550) scale(3.7766666666667)"><path d="M6,5.5H3C1.6,5.5,0.5,4.4,0.5,3v0c0-1.4,1.1-2.5,2.5-2.5h3V5.5z"/></g>
<g transform="translate(616,550) scale(3.7766666666667)"><rect y="0.5" width="6" height="5"/></g>
<g transform="translate(638,550) scale(3.7766666666667)"><path d="M3,5.5H0v-5h3c1.4,0,2.5,1.1,2.5,2.5v0C5.5,4.4,4.4,5.5,3,5.5z"/></g>
<g transform="translate(704,550) scale(3.7766666666667)"><path d="M6,5.5H3C1.6,5.5,0.5,4.4,0.5,3v0c0-1.4,1.1-2.5,2.5-2.5h3V5.5z"/></g>
<g transform="translate(726,550) scale(3.7766666666667)"><rect y="0.5" width="6" height="5"/></g>
<g transform="translate(748,550) scale(3.7766666666667)"><path d="M3,5.5H0v-5h3c1.4,0,2.5,1.1,2.5,2.5v0C5.5,4.4,4.4,5.5,3,5.5z"/></g>
<g transform="translate(814,550) scale(3.7766666666667)"><circle cx="3" cy="3" r="2.5"/></g>
<g transform="translate(858,550) scale(3.7766666666667)"><circle cx="3" cy="3" r="2.5"/></g>
<g transform="translate(924,550) scale(3.7766666666667)"><circle cx="3" cy="3" r="2.5"/></g>
<g transform="translate(66,572) scale(3.7766666666667)"><path d="M6,5.5H3C1.6,5.5,0.5,4.4,0.5,3v0c0-1.4,1.1-2.5,2.5-2.5h3V5.5z"/></g>
<g transform="translate(88,572) scale(3.7766666666667)"><path d="M3,5.5H0v-5h3c1.4,0,2.5,1.1,2.5,2.5v0C5.5,4.4,4.4,5.5,3,5.5z"/></g>
<g transform="translate(154,572) scale(3.7766666666667)"><path d="M6,5.5H3C1.6,5.5,0.5,4.4,0.5,3v0c0-1.4,1.1-2.5,2.5-2.5h3V5.5z"/></g>
<g transform="translate(176,572) scale(3.7766666666667)"><path d="M3,5.5H0v-5h3c1.4,0,2.5,1.1,2.5,2.5v0C5.5,4.4,4.4,5.5,3,5.5z"/></g>
<g transform="translate(242,572) scale(3.7766666666667)"><circle cx="3" cy="3" r="2.5"/></g>
<g transform="translate(330,572) scale(3.7766666666667)"><circle cx="3" cy="3" r="2.5"/></g>
<g transform="translate(374,572) scale(3.7766666666667)"><path d="M6,5.5H3C1.6,5.5,0.5,4.4,0.5,3v0c0-1.4,1.1-2.5,2.5-2.5h3V5.5z"/></g>
<g transform="translate(396,572) scale(3.7766666666667)"><path d="M3,5.5H0v-5h3c1.4,0,2.5,1.1,2.5,2.5v0C5.5,4.4,4.4,5.5,3,5.5z"/></g>
<g transform="translate(440,572) scale(3.7766666666667)"><path d="M6,5.5H3C1.6,5.5,0.5,4.4,0.5,3v0c0-1.4,1.1-2.5,2.5-2.5h3V5.5z"/></g>
<g transform="translate(462,572) scale(3.7766666666667)"><rect y="0.5" width="6" height="5"/></g>
<g transform="translate(484,572) scale(3.7766666666667)"><path d="M3,5.5H0v-5h3c1.4,0,2.5,1.1,2.5,2.5v0C5.5,4.4,4.4,5.5,3,5.5z"/></g>
<g transform="translate(550,572) scale(3.7766666666667)"><circle cx="3" cy="3" r="2.5"/></g>
<g transform="translate(638,572) scale(3.7766666666667)"><path d="M6,5.5H3C1.6,5.5,0.5,4.4,0.5,3v0c0-1.4,1.1-2.5,2.5-2.5h3V5.5z"/></g>
<g transform="translate(660,572) scale(3.7766666666667)"><rect y="0.5" width="6" height="5"/></g>
<g transform="translate(682,572) scale(3.7766666666667)"><path d="M3,5.5H0v-5h3c1.4,0,2.5,1.1,2.5,2.5v0C5.5,4.4,4.4,5.5,3,5.5z"/></g>
<g transform="translate(814,572) scale(3.7766666666667)"><circle cx="3" cy="3" r="2.5"/></g>
<g transform="translate(858,572) scale(3.7766666666667)"><path d="M6,5.5H3C1.6,5.5,0.5,4.4,0.5,3v0c0-1.4,1.1-2.5,2.5-2.5h3V5.5z"/></g>
<g transform="translate(880,572) scale(3.7766666666667)"><path d="M3,5.5H0v-5h3c1.4,0,2.5,1.1,2.5,2.5v0C5.5,4.4,4.4,5.5,3,5.5z"/></g>
<g transform="translate(924,572) scale(3.7766666666667)"><circle cx="3" cy="3" r="2.5"/></g>
<g transform="translate(44,594) scale(3.7766666666667)"><path d="M6,5.5H3C1.6,5.5,0.5,4.4,0.5,3v0c0-1.4,1.1-2.5,2.5-2.5h3V5.5z"/></g>
<g transform="translate(66,594) scale(3.7766666666667)"><rect y="0.5" width="6" height="5"/></g>
<g transform="translate(88,594) scale(3.7766666666667)"><path d="M3,5.5H0v-5h3c1.4,0,2.5,1.1,2.5,2.5v0C5.5,4.4,4.4,5.5,3,5.5z"/></g>
<g transform="translate(198,594) scale(3.7766666666667)"><circle cx="3" cy="3" r="2.5"/></g>
<g transform="translate(242,594) scale(3.7766666666667)"><circle cx="3" cy="3" r="2.5"/></g>
<g transform="translate(286,594) scale(3.7766666666667)"><path d="M6,5.5H3C1.6,5.5,0.5,4.4,0.5,3v0c0-1.4,1.1-2.5,2.5-2.5h3V5.5z"/></g>
<g transform="translate(308,594) scale(3.7766666666667)"><path d="M3,5.5H0v-5h3c1.4,0,2.5,1.1,2.5,2.5v0C5.5,4.4,4.4,5.5,3,5.5z"/></g>
<g transform="translate(352,594) scale(3.7766666666667)"><circle cx="3" cy="3" r="2.5"/></g>
<g transform="translate(506,594) scale(3.7766666666667)"><circle cx="3" cy="3" r="2.5"/></g>
<g transform="translate(550,594) scale(3.7766666666667)"><path d="M6,5.5H3C1.6,5.5,0.5,4.4,0.5,3v0c0-1.4,1.1-2.5,2.5-2.5h3V5.5z"/></g>
<g transform="translate(572,594) scale(3.7766666666667)"><path d="M3,5.5H0v-5h3c1.4,0,2.5,1.1,2.5,2.5v0C5.5,4.4,4.4,5.5,3,5.5z"/></g>
<g transform="translate(660,594) scale(3.7766666666667)"><path d="M6,5.5H3C1.6,5.5,0.5,4.4,0.5,3v0c0-1.4,1.1-2.5,2.5-2.5h3V5.5z"/></g>
<g transform="translate(682,594) scale(3.7766666666667)"><rect y="0.5" width="6" height="5"/></g>
<g transform="translate(704,594) scale(3.7766666666667)"><rect y="0.5" width="6" height="5"/></g>
<g transform="translate(726,594) scale(3.7766666666667)"><path d="M3,5.5H0v-5h3c1.4,0,2.5,1.1,2.5,2.5v0C5.5,4.4,4.4,5.5,3,5.5z"/></g>
<g transform="translate(770,594) scale(3.7766666666667)"><path d="M6,5.5H3C1.6,5.5,0.5,4.4,0.5,3v0c0-1.4,1.1-2.5,2.5-2.5h3V5.5z"/></g>
<g transform="translate(792,594) scale(3.7766666666667)"><rect y="0.5" width="6" height="5"/></g>
<g transform="translate(814,594) scale(3.7766666666667)"><rect y="0.5" width="6" height="5"/></g>
<g transform="translate(836,594) scale(3.7766666666667)"><rect y="0.5" width="6" height="5"/></g>
<g transform="translate(858,594) scale(3.7766666666667)"><path d="M3,5.5H0v-5h3c1.4,0,2.5,1.1,2.5,2.5v0C5.5,4.4,4.4,5.5,3,5.5z"/></g>
<g transform="translate(924,594) scale(3.7766666666667)"><circle cx="3" cy="3" r="2.5"/></g>
<g transform="translate(44,616) scale(3.7766666666667)"><circle cx="3" cy="3" r="2.5"/></g>
<g transform="translate(110,616) scale(3.7766666666667)"><path d="M6,5.5H3C1.6,5.5,0.5,4.4,0.5,3v0c0-1.4,1.1-2.5,2.5-2.5h3V5.5z"/></g>
<g transform="translate(132,616) scale(3.7766666666667)"><path d="M3,5.5H0v-5h3c1.4,0,2.5,1.1,2.5,2.5v0C5.5,4.4,4.4,5.5,3,5.5z"/></g>
<g transform="translate(176,616) scale(3.7766666666667)"><circle cx="3" cy="3" r="2.5"/></g>
<g transform="translate(286,616) scale(3.7766666666667)"><circle cx="3" cy="3" r="2.5"/></g>
<g transform="translate(330,616) scale(3.7766666666667)"><path d="M6,5.5H3C1.6,5.5,0.5,4.4,0.5,3v0c0-1.4,1.1-2.5,2.5-2.5h3V5.5z"/></g>
<g transform="translate(352,616) scale(3.7766666666667)"><rect y="0.5" width="6" height="5"/></g>
<g transform="translate(374,616) scale(3.7766666666667)"><path d="M3,5.5H0v-5h3c1.4,0,2.5,1.1,2.5,2.5v0C5.5,4.4,4.4,5.5,3,5.5z"/></g>
<g transform="translate(440,616) scale(3.7766666666667)"><circle cx="3" cy="3" r="2.5"/></g>
<g transform="translate(506,616) scale(3.7766666666667)"><circle cx="3" cy="3" r="2.5"/></g>
<g transform="translate(572,616) scale(3.7766666666667)"><path d="M6,5.5H3C1.6,5.5,0.5,4.4,0.5,3v0c0-1.4,1.1-2.5,2.5-2.5h3V5.5z"/></g>
<g transform="translate(594,616) scale(3.7766666666667)"><path d="M3,5.5H0v-5h3c1.4,0,2.5,1.1,2.5,2.5v0C5.5,4.4,4.4,5.5,3,5.5z"/></g>
<g transform="translate(638,616) scale(3.7766666666667)"><path d="M6,5.5H3C1.6,5.5,0.5,4.4,0.5,3v0c0-1.4,1.1-2.5,2.5-2.5h3V5.5z"/></g>
<g transform="translate(660,616) scale(3.7766666666667)"><path d="M3,5.5H0v-5h3c1.4,0,2.5,1.1,2.5,2.5v0C5.5,4.4,4.4,5.5,3,5.5z"/></g>
<g transform="translate(748,616) scale(3.7766666666667)"><circle cx="3" cy="3" r="2.5"/></g>
<g transform="translate(792,616) scale(3.7766666666667)"><circle cx="3" cy="3" r="2.5"/></g>
<g transform="translate(836,616) scale(3.7766666666667)"><circle cx="3" cy="3" r="2.5"/></g>
<g transform="translate(44,638) scale(3.7766666666667)"><circle cx="3" cy="3" r="2.5"/></g>
<g transform="translate(132,638) scale(3.7766666666667)"><circle cx="3" cy="3" r="2.5"/></g>
<g transform="translate(198,638) scale(3.7766666666667)"><path d="M6,5.5H3C1.6,5.5,0.5,4.4,0.5,3v0c0-1.4,1.1-2.5,2.5-2.5h3V5.5z"/></g>
<g transform="translate(220,638) scale(3.7766666666667)"><path d="M3,5.5H0v-5h3c1.4,0,2.5,1.1,2.5,2.5v0C5.5,4.4,4.4,5.5,3,5.5z"/></g>
<g transform="translate(286,638) scale(3.7766666666667)"><circle cx="3" cy="3" r="2.5"/></g>
<g transform="translate(330,638) scale(3.7766666666667)"><path d="M6,5.5H3C1.6,5.5,0.5,4.4,0.5,3v0c0-1.4,1.1-2.5,2.5-2.5h3V5.5z"/></g>
<g transform="translate(352,638) scale(3.7766666666667)"><rect y="0.5" width="6" height="5"/></g>
<g transform="translate(374,638) scale(3.7766666666667)"><rect y="0.5" width="6" height="5"/></g>
<g transform="translate(396,638) scale(3.7766666666667)"><path d="M3,5.5H0v-5h3c1.4,0,2.5,1.1,2.5,2.5v0C5.5,4.4,4.4,5.5,3,5.5z"/></g>
<g transform="translate(440,638) scale(3.7766666666667)"><path d="M6,5.5H3C1.6,5.5,0.5,4.4,0.5,3v0c0-1.4,1.1-2.5,2.5-2.5h3V5.5z"/></g>
<g transform="translate(462,638) scale(3.7766666666667)"><path d="M3,5.5H0v-5h3c1.4,0,2.5,1.1,2.5,2.5v0C5.5,4.4,4.4,5.5,3,5.5z"/></g>
<g transform="translate(528,638) scale(3.7766666666667)"><path d="M6,5.5H3C1.6,5.5,0.5,4.4,0.5,3v0c0-1.4,1.1-2.5,2.5-2.5h3V5.5z"/></g>
<g transform="translate(550,638) scale(3.7766666666667)"><rect y="0.5" width="6" height="5"/></g>
<g transform="translate(572,638) scale(3.7766666666667)"><path d="M3,5.5H0v-5h3c1.4,0,2.5,1.1,2.5,2.5v0C5.5,4.4,4.4,5.5,3,5.5z"/></g>
<g transform="translate(638,638) scale(3.7766666666667)"><path d="M6,5.5H3C1.6,5.5,0.5,4.4,0.5,3v0c0-1.4,1.1-2.5,2.5-2.5h3V5.5z"/></g>
<g transform="translate(660,638) scale(3.7766666666667)"><path d="M3,5.5H0v-5h3c1.4,0,2.5,1.1,2.5,2.5v0C5.5,4.4,4.4,5.5,3,5.5z"/></g>
<g transform="translate(726,638) scale(3.7766666666667)"><path d="M6,5.5H3C1.6,5.5,0.5,4.4,0.5,3v0c0-1.4,1.1-2.5,2.5-2.5h3V5.5z"/></g>
<g transform="translate(748,638) scale(3.7766666666667)"><rect y="0.5" width="6" height="5"/></g>
<g transform="translate(770,638) scale(3.7766666666667)"><rect y="0.5" width="6" height="5"/></g>
<g transform="translate(792,638) scale(3.7766666666667)"><path d="M3,5.5H0v-5h3c1.4,0,2.5,1.1,2.5,2.5v0C5.5,4.4,4.4,5.5,3,5.5z"/></g>
<g transform="translate(836,638) scale(3.7766666666667)"><path d="M6,5.5H3C1.6,5.5,0.5,4.4,0.5,3v0c0-1.4,1.1-2.5,2.5-2.5h3V5.5z"/></g>
<g transform="translate(858,638) scale(3.7766666666667)"><path d="M3,5.5H0v-5h3c1.4,0,2.5,1.1,2.5,2.5v0C5.5,4.4,4.4,5.5,3,5.5z"/></g>
<g transform="translate(902,638) scale(3.7766666666667)"><circle cx="3" cy="3" r="2.5"/></g>
<g transform="translate(66,660) scale(3.7766666666667)"><path d="M6,5.5H3C1.6,5.5,0.5,4.4,0.5,3v0c0-1.4,1.1-2.5,2.5-2.5h3V5.5z"/></g>
<g transform="translate(88,660) scale(3.7766666666667)"><path d="M3,5.5H0v-5h3c1.4,0,2.5,1.1,2.5,2.5v0C5.5,4.4,4.4,5.5,3,5.5z"/></g>
<g transform="translate(132,660) scale(3.7766666666667)"><circle cx="3" cy="3" r="2.5"/></g>
<g transform="translate(176,660) scale(3.7766666666667)"><circle cx="3" cy="3" r="2.5"/></g>
<g transform="translate(286,660) scale(3.7766666666667)"><path d="M6,5.5H3C1.6,5.5,0.5,4.4,0.5,3v0c0-1.4,1.1-2.5,2.5-2.5h3V5.5z"/></g>
<g transform="translate(308,660) scale(3.7766666666667)"><rect y="0.5" width="6" height="5"/></g>
<g transform="translate(330,660) scale(3.7766666666667)"><rect y="0.5" width="6" height="5"/></g>
<g transform="translate(352,660) scale(3.7766666666667)"><path d="M3,5.5H0v-5h3c1.4,0,2.5,1.1,2.5,2.5v0C5.5,4.4,4.4,5.5,3,5.5z"/></g>
<g transform="translate(396,660) scale(3.7766666666667)"><path d="M6,5.5H3C1.6,5.5,0.5,4.4,0.5,3v0c0-1.4,1.1-2.5,2.5-2.5h3V5.5z"/></g>
<g transform="translate(418,660) scale(3.7766666666667)"><rect y="0.5" width="6" height="5"/></g>
<g transform="translate(440,660) scale(3.7766666666667)"><path d="M3,5.5H0v-5h3c1.4,0,2.5,1.1,2.5,2.5v0C5.5,4.4,4.4,5.5,3,5.5z"/></g>
<g transform="translate(484,660) scale(3.7766666666667)"><path d="M6,5.5H3C1.6,5.5,0.5,4.4,0.5,3v0c0-1.4,1.1-2.5,2.5-2.5h3V5.5z"/></g>
<g transform="translate(506,660) scale(3.7766666666667)"><rect y="0.5" width="6" height="5"/></g>
<g transform="translate(528,660) scale(3.7766666666667)"><rect y="0.5" width="6" height="5"/></g>
<g transform="translate(550,660) scale(3.7766666666667)"><rect y="0.5" width="6" height="5"/></g>
<g transform="translate(572,660) scale(3.7766666666667)"><path d="M3,5.5H0v-5h3c1.4,0,2.5,1.1,2.5,2.5v0C5.5,4.4,4.4,5.5,3,5.5z"/></g>
<g transform="translate(682,660) scale(3.7766666666667)"><circle cx="3" cy="3" r="2.5"/></g>
<g transform="translate(726,660) scale(3.7766666666667)"><path d="M6,5.5H3C1.6,5.5,0.5,4.4,0.5,3v0c0-1.4,1.1-2.5,2.5-2.5h3V5.5z"/></g>
<g transform="translate(748,660) scale(3.7766666666667)"><path d="M3,5.5H0v-5h3c1.4,0,2.5,1.1,2.5,2.5v0C5.5,4.4,4.4,5.5,3,5.5z"/></g>
<g transform="translate(792,660) scale(3.7766666666667)"><circle cx="3" cy="3" r="2.5"/></g>
<g transform="translate(858,660) scale(3.7766666666667)"><path d="M6,5.5H3C1.6,5.5,0.5,4.4,0.5,3v0c0-1.4,1.1-2.5,2.5-2.5h3V5.5z"/></g>
<g transform="translate(880,660) scale(3.7766666666667)"><path d="M3,5.5H0v-5h3c1.4,0,2.5,1.1,2.5,2.5v0C5.5,4.4,4.4,5.5,3,5.5z"/></g>
<g transform="translate(44,682) scale(3.7766666666667)"><circle cx="3" cy="3" r="2.5"/></g>
<g transform="translate(88,682) scale(3.7766666666667)"><circle cx="3" cy="3" r="2.5"/></g>
<g transform="translate(154,682) scale(3.7766666666667)"><circle cx="3" cy="3" r="2.5"/></g>
<g transform="translate(242,682) scale(3.7766666666667)"><circle cx="3" cy="3" r="2.5"/></g>
<g transform="translate(286,682) scale(3.7766666666667)"><circle cx="3" cy="3" r="2.5"/></g>
<g transform="translate(352,682) scale(3.7766666666667)"><path d="M6,5.5H3C1.6,5.5,0.5,4.4,0.5,3v0c0-1.4,1.1-2.5,2.5-2.5h3V5.5z"/></g>
<g transform="translate(374,682) scale(3.7766666666667)"><path d="M3,5.5H0v-5h3c1.4,0,2.5,1.1,2.5,2.5v0C5.5,4.4,4.4,5.5,3,5.5z"/></g>
<g transform="translate(418,682) scale(3.7766666666667)"><circle cx="3" cy="3" r="2.5"/></g>
<g transform="translate(462,682) scale(3.7766666666667)"><path d="M6,5.5H3C1.6,5.5,0.5,4.4,0.5,3v0c0-1.4,1.1-2.5,2.5-2.5h3V5.5z"/></g>
<g transform="translate(484,682) scale(3.7766666666667)"><rect y="0.5" width="6" height="5"/></g>
<g transform="translate(506,682) scale(3.7766666666667)"><path d="M3,5.5H0v-5h3c1.4,0,2.5,1.1,2.5,2.5v0C5.5,4.4,4.4,5.5,3,5.5z"/></g>
<g transform="translate(594,682) scale(3.7766666666667)"><circle cx="3" cy="3" r="2.5"/></g>
<g transform="translate(638,682) scale(3.7766666666667)"><path d="M6,5.5H3C1.6,5.5,0.5,4.4,0.5,3v0c0-1.4,1.1-2.5,2.5-2.5h3V5.5z"/></g>
<g transform="translate(660,682) scale(3.7766666666667)"><path d="M3,5.5H0v-5h3c1.4,0,2.5,1.1,2.5,2.5v0C5.5,4.4,4.4,5.5,3,5.5z"/></g>
<g transform="translate(704,682) scale(3.7766666666667)"><circle cx="3" cy="3" r="2.5"/></g>
<g transform="translate(770,682) scale(3.7766666666667)"><circle cx="3" cy="3" r="2.5"/></g>
<g transform="translate(814,682) scale(3.7766666666667)"><path d="M6,5.5H3C1.6,5.5,0.5,4.4,0.5,3v0c0-1.4,1.1-2.5,2.5-2.5h3V5.5z"/></g>
<g transform="translate(836,682) scale(3.7766666666667)"><rect y="0.5" width="6" height="5"/></g>
<g transform="translate(858,682) scale(3.7766666666667)"><path d="M3,5.5H0v-5h3c1.4,0,2.5,1.1,2.5,2.5v0C5.5,4.4,4.4,5.5,3,5.5z"/></g>
<g transform="translate(902,682) scale(3.7766666666667)"><path d="M6,5.5H3C1.6,5.5,0.5,4.4,0.5,3v0c0-1.4,1.1-2.5,2.5-2.5h3V5.5z"/></g>
<g transform="translate(924,682) scale(3.7766666666667)"><path d="M3,5.5H0v-5h3c1.4,0,2.5,1.1,2.5,2.5v0C5.5,4.4,4.4,5.5,3,5.5z"/></g>
<g transform="translate(44,704) scale(3.7766666666667)"><circle cx="3" cy="3" r="2.5"/></g>
<g transform="translate(88,704) scale(3.7766666666667)"><path d="M6,5.5H3C1.6,5.5,0.5,4.4,0.5,3v0c0-1.4,1.1-2.5,2.5-2.5h3V5.5z"/></g>
<g transform="translate(110,704) scale(3.7766666666667)"><rect y="0.5" width="6" height="5"/></g>
<g transform="translate(132,704) scale(3.7766666666667)"><rect y="0.5" width="6" height="5"/></g>
<g transform="translate(154,704) scale(3.7766666666667)"><rect y="0.5" width="6" height="5"/></g>
<g transform="translate(176,704) scale(3.7766666666667)"><rect y="0.5" width="6" height="5"/></g>
<g transform="translate(198,704) scale(3.7766666666667)"><rect y="0.5" width="6" height="5"/></g>
<g transform="translate(220,704) scale(3.7766666666667)"><rect y="0.5" width="6" height="5"/></g>
<g transform="translate(242,704) scale(3.7766666666667)"><rect y="0.5" width="6" height="5"/></g>
<g transform="translate(264,704) scale(3.7766666666667)"><rect y="0.5" width="6" height="5"/></g>
<g transform="translate(286,704) scale(3.7766666666667)"><rect y="0.5" width="6" height="5"/></g>
<g transform="translate(308,704) scale(3.7766666666667)"><path d="M3,5.5H0v-5h3c1.4,0,2.5,1.1,2.5,2.5v0C5.5,4.4,4.4,5.5,3,5.5z"/></g>
<g transform="translate(352,704) scale(3.7766666666667)"><circle cx="3" cy="3" r="2.5"/></g>
<g transform="translate(462,704) scale(3.7766666666667)"><circle cx="3" cy="3" r="2.5"/></g>
<g transform="translate(506,704) scale(3.7766666666667)"><path d="M6,5.5H3C1.6,5.5,0.5,4.4,0.5,3v0c0-1.4,1.1-2.5,2.5-2.5h3V5.5z"/></g>
<g transform="translate(528,704) scale(3.7766666666667)"><path d="M3,5.5H0v-5h3c1.4,0,2.5,1.1,2.5,2.5v0C5.5,4.4,4.4,5.5,3,5.5z"/></g>
<g transform="translate(616,704) scale(3.7766666666667)"><circle cx="3" cy="3" r="2.5"/></g>
<g transform="translate(704,704) scale(3.7766666666667)"><circle cx="3" cy="3" r="2.5"/></g>
<g transform="translate(748,704) scale(3.7766666666667)"><path d="M6,5.5H3C1.6,5.5,0.5,4.4,0.5,3v0c0-1.4,1.1-2.5,2.5-2.5h3V5.5z"/></g>
<g transform="translate(770,704) scale(3.7766666666667)"><rect y="0.5" width="6" height="5"/></g>
<g transform="translate(792,704) scale(3.7766666666667)"><rect y="0.5" width="6" height="5"/></g>
<g transform="translate(814,704) scale(3.7766666666667)"><rect y="0.5" width="6" height="5"/></g>
<g transform="translate(836,704) scale(3.7766666666667)"><path d="M3,5.5H0v-5h3c1.4,0,2.5,1.1,2.5,2.5v0C5.5,4.4,4.4,5.5,3,5.5z"/></g>
<g transform="translate(44,726) scale(3.7766666666667)"><circle cx="3" cy="3" r="2.5"/></g>
<g transform="translate(88,726) scale(3.7766666666667)"><path d="M6,5.5H3C1.6,5.5,0.5,4.4,0.5,3v0c0-1.4,1.1-2.5,2.5-2.5h3V5.5z"/></g>
<g transform="translate(110,726) scale(3.7766666666667)"><rect y="0.5" width="6" height="5"/></g>
<g transform="translate(132,726) scale(3.7766666666667)"><rect y="0.5" width="6" height="5"/></g>
<g transform="translate(154,726) scale(3.7766666666667)"><path d="M3,5.5H0v-5h3c1.4,0,2.5,1.1,2.5,2.5v0C5.5,4.4,4.4,5.5,3,5.5z"/></g>
<g transform="translate(220,726) scale(3.7766666666667)"><path d="M6,5.5H3C1.6,5.5,0.5,4.4,0.5,3v0c0-1.4,1.1-2.5,2.5-2.5h3V5.5z"/></g>
<g transform="translate(242,726) scale(3.7766666666667)"><rect y="0.5" width="6" height="5"/></g>
<g transform="translate(264,726) scale(3.7766666666667)"><path d="M3,5.5H0v-5h3c1.4,0,2.5,1.1,2.5,2.5v0C5.5,4.4,4.4,5.5,3,5.5z"/></g>
<g transform="translate(330,726) scale(3.7766666666667)"><path d="M6,5.5H3C1.6,5.5,0.5,4.4,0.5,3v0c0-1.4,1.1-2.5,2.5-2.5h3V5.5z"/></g>
<g transform="translate(352,726) scale(3.7766666666667)"><path d="M3,5.5H0v-5h3c1.4,0,2.5,1.1,2.5,2.5v0C5.5,4.4,4.4,5.5,3,5.5z"/></g>
<g transform="translate(462,726) scale(3.7766666666667)"><path d="M6,5.5H3C1.6,5.5,0.5,4.4,0.5,3v0c0-1.4,1.1-2.5,2.5-2.5h3V5.5z"/></g>
<g transform="translate(484,726) scale(3.7766666666667)"><path d="M3,5.5H0v-5h3c1.4,0,2.5,1.1,2.5,2.5v0C5.5,4.4,4.4,5.5,3,5.5z"/></g>
<g transform="translate(528,726) scale(3.7766666666667)"><path d="M6,5.5H3C1.6,5.5,0.5,4.4,0.5,3v0c0-1.4,1.1-2.5,2.5-2.5h3V5.5z"/></g>
<g transform="translate(550,726) scale(3.7766666666667)"><rect y="0.5" width="6" height="5"/></g>
<g transform="translate(572,726) scale(3.7766666666667)"><rect y="0.5" width="6" height="5"/></g>
<g transform="translate(594,726) scale(3.7766666666667)"><rect y="0.5" width="6" height="5"/></g>
<g transform="translate(616,726) scale(3.7766666666667)"><path d="M3,5.5H0v-5h3c1.4,0,2.5,1.1,2.5,2.5v0C5.5,4.4,4.4,5.5,3,5.5z"/></g>
<g transform="translate(660,726) scale(3.7766666666667)"><circle cx="3" cy="3" r="2.5"/></g>
<g transform="translate(770,726) scale(3.7766666666667)"><path d="M6,5.5H3C1.6,5.5,0.5,4.4,0.5,3v0c0-1.4,1.1-2.5,2.5-2.5h3V5.5z"/></g>
<g transform="translate(792,726) scale(3.7766666666667)"><path d="M3,5.5H0v-5h3c1.4,0,2.5,1.1,2.5,2.5v0C5.5,4.4,4.4,5.5,3,5.5z"/></g>
<g transform="translate(858,726) scale(3.7766666666667)"><circle cx="3" cy="3" r="2.5"/></g>
<g transform="translate(902,726) scale(3.7766666666667)"><path d="M6,5.5H3C1.6,5.5,0.5,4.4,0.5,3v0c0-1.4,1.1-2.5,2.5-2.5h3V5.5z"/></g>
<g transform="translate(924,726) scale(3.7766666666667)"><path d="M3,5.5H0v-5h3c1.4,0,2.5,1.1,2.5,2.5v0C5.5,4.4,4.4,5.5,3,5.5z"/></g>
<g transform="translate(44,748) scale(3.7766666666667)"><circle cx="3" cy="3" r="2.5"/></g>
<g transform="translate(132,748) scale(3.7766666666667)"><circle cx="3" cy="3" r="2.5"/></g>
<g transform="translate(176,748) scale(3.7766666666667)"><path d="M6,5.5H3C1.6,5.5,0.5,4.4,0.5,3v0c0-1.4,1.1-2.5,2.5-2.5h3V5.5z"/></g>
<g transform="translate(198,748) scale(3.7766666666667)"><path d="M3,5.5H0v-5h3c1.4,0,2.5,1.1,2.5,2.5v0C5.5,4.4,4.4,5.5,3,5.5z"/></g>
<g transform="translate(264,748) scale(3.7766666666667)"><path d="M6,5.5H3C1.6,5.5,0.5,4.4,0.5,3v0c0-1.4,1.1-2.5,2.5-2.5h3V5.5z"/></g>
<g transform="translate(286,748) scale(3.7766666666667)"><rect y="0.5" width="6" height="5"/></g>
<g transform="translate(308,748) scale(3.7766666666667)"><path d="M3,5.5H0v-5h3c1.4,0,2.5,1.1,2.5,2.5v0C5.5,4.4,4.4,5.5,3,5.5z"/></g>
<g transform="translate(352,748) scale(3.7766666666667)"><path d="M6,5.5H3C1.6,5.5,0.5,4.4,0.5,3v0c0-1.4,1.1-2.5,2.5-2.5h3V5.5z"/></g>
<g transform="translate(374,748) scale(3.7766666666667)"><rect y="0.5" width="6" height="5"/></g>
<g transform="translate(396,748) scale(3.7766666666667)"><rect y="0.5" width="6" height="5"/></g>
<g transform="translate(418,748) scale(3.7766666666667)"><rect y="0.5" width="6" height="5"/></g>
<g transform="translate(440,748) scale(3.7766666666667)"><rect y="0.5" width="6" height="5"/></g>
<g transform="translate(462,748) scale(3.7766666666667)"><rect y="0.5" width="6" height="5"/></g>
<g transform="translate(484,748) scale(3.7766666666667)"><path d="M3,5.5H0v-5h3c1.4,0,2.5,1.1,2.5,2.5v0C5.5,4.4,4.4,5.5,3,5.5z"/></g>
<g transform="translate(572,748) scale(3.7766666666667)"><path d="M6,5.5H3C1.6,5.5,0.5,4.4,0.5,3v0c0-1.4,1.1-2.5,2.5-2.5h3V5.5z"/></g>
<g transform="translate(594,748) scale(3.7766666666667)"><rect y="0.5" width="6" height="5"/></g>
<g transform="translate(616,748) scale(3.7766666666667)"><path d="M3,5.5H0v-5h3c1.4,0,2.5,1.1,2.5,2.5v0C5.5,4.4,4.4,5.5,3,5.5z"/></g>
<g transform="translate(660,748) scale(3.7766666666667)"><path d="M6,5.5H3C1.6,5.5,0.5,4.4,0.5,3v0c0-1.4,1.1-2.5,2.5-2.5h3V5.5z"/></g>
<g transform="translate(682,748) scale(3.7766666666667)"><path d="M3,5.5H0v-5h3c1.4,0,2.5,1.1,2.5,2.5v0C5.5,4.4,4.4,5.5,3,5.5z"/></g>
<g transform="translate(748,748) scale(3.7766666666667)"><path d="M6,5.5H3C1.6,5.5,0.5,4.4,0.5,3v0c0-1.4,1.1-2.5,2.5-2.5h3V5.5z"/></g>
<g transform="translate(770,748) scale(3.7766666666667)"><rect y="0.5" width="6" height="5"/></g>
<g transform="translate(792,748) scale(3.7766666666667)"><rect y="0.5" width="6" height="5"/></g>
<g transform="translate(814,748) scale(3.7766666666667)"><rect y="0.5" width="6" height="5"/></g>
<g transform="translate(836,748) scale(3.7766666666667)"><path d="M3,5.5H0v-5h3c1.4,0,2.5,1.1,2.5,2.5v0C5.5,4.4,4.4,5.5,3,5.5z"/></g>
<g transform="translate(880,748) scale(3.7766666666667)"><circle cx="3" cy="3" r="2.5"/></g>
<g transform="translate(924,748) scale(3.7766666666667)"><circle cx="3" cy="3" r="2.5"/></g>
<g transform="translate(220,770) scale(3.7766666666667)"><path d="M6,5.5H3C1.6,5.5,0.5,4.4,0.5,3v0c0-1.4,1.1-2.5,2.5-2.5h3V5.5z"/></g>
<g transform="translate(242,770) scale(3.7766666666667)"><rect y="0.5" width="6" height="5"/></g>
<g transform="translate(264,770) scale(3.7766666666667)"><rect y="0.5" width="6" height="5"/></g>
<g transform="translate(286,770) scale(3.7766666666667)"><path d="M3,5.5H0v-5h3c1.4,0,2.5,1.1,2.5,2.5v0C5.5,4.4,4.4,5.5,3,5.5z"/></g>
<g transform="translate(330,770) scale(3.7766666666667)"><path d="M6,5.5H3C1.6,5.5,0.5,4.4,0.5,3v0c0-1.4,1.1-2.5,2.5-2.5h3V5.5z"/></g>
<g transform="translate(352,770) scale(3.7766666666667)"><rect y="0.5" width="6" height="5"/></g>
<g transform="translate(374,770) scale(3.7766666666667)"><rect y="0.5" width="6" height="5"/></g>
<g transform="translate(396,770) scale(3.7766666666667)"><path d="M3,5.5H0v-5h3c1.4,0,2.5,1.1,2.5,2.5v0C5.5,4.4,4.4,5.5,3,5.5z"/></g>
<g transform="translate(440,770) scale(3.7766666666667)"><path d="M6,5.5H3C1.6,5.5,0.5,4.4,0.5,3v0c0-1.4,1.1-2.5,2.5-2.5h3V5.5z"/></g>
<g transform="translate(462,770) scale(3.7766666666667)"><rect y="0.5" width="6" height="5"/></g>
<g transform="translate(484,770) scale(3.7766666666667)"><path d="M3,5.5H0v-5h3c1.4,0,2.5,1.1,2.5,2.5v0C5.5,4.4,4.4,5.5,3,5.5z"/></g>
<g transform="translate(616,770) scale(3.7766666666667)"><circle cx="3" cy="3" r="2.5"/></g>
<g transform="translate(660,770) scale(3.7766666666667)"><circle cx="3" cy="3" r="2.5"/></g>
<g transform="translate(748,770) scale(3.7766666666667)"><circle cx="3" cy="3" r="2.5"/></g>
<g transform="translate(836,770) scale(3.7766666666667)"><circle cx="3" cy="3" r="2.5"/></g>
<g transform="translate(902,770) scale(3.7766666666667)"><path d="M6,5.5H3C1.6,5.5,0.5,4.4,0.5,3v0c0-1.4,1.1-2.5,2.5-2.5h3V5.5z"/></g>
<g transform="translate(924,770) scale(3.7766666666667)"><path d="M3,5.5H0v-5h3c1.4,0,2.5,1.1,2.5,2.5v0C5.5,4.4,4.4,5.5,3,5.5z"/></g>
<g transform="translate(286,792) scale(3.7766666666667)"><circle cx="3" cy="3" r="2.5"/></g>
<g transform="translate(352,792) scale(3.7766666666667)"><circle cx="3" cy="3" r="2.5"/></g>
<g transform="translate(440,792) scale(3.7766666666667)"><circle cx="3" cy="3" r="2.5"/></g>
<g transform="translate(506,792) scale(3.7766666666667)"><path d="M6,5.5H3C1.6,5.5,0.5,4.4,0.5,3v0c0-1.4,1.1-2.5,2.5-2.5h3V5.5z"/></g>
<g transform="translate(528,792) scale(3.7766666666667)"><rect y="0.5" width="6" height="5"/></g>
<g transform="translate(550,792) scale(3.7766666666667)"><rect y="0.5" width="6" height="5"/></g>
<g transform="translate(572,792) scale(3.7766666666667)"><path d="M3,5.5H0v-5h3c1.4,0,2.5,1.1,2.5,2.5v0C5.5,4.4,4.4,5.5,3,5.5z"/></g>
<g transform="translate(616,792) scale(3.7766666666667)"><path d="M6,5.5H3C1.6,5.5,0.5,4.4,0.5,3v0c0-1.4,1.1-2.5,2.5-2.5h3V5.5z"/></g>
<g transform="translate(638,792) scale(3.7766666666667)"><path d="M3,5.5H0v-5h3c1.4,0,2.5,1.1,2.5,2.5v0C5.5,4.4,4.4,5.5,3,5.5z"/></g>
<g transform="translate(704,792) scale(3.7766666666667)"><path d="M6,5.5H3C1.6,5.5,0.5,4.4,0.5,3v0c0-1.4,1.1-2.5,2.5-2.5h3V5.5z"/></g>
<g transform="translate(726,792) scale(3.7766666666667)"><rect y="0.5" width="6" height="5"/></g>
<g transform="translate(748,792) scale(3.7766666666667)"><path d="M3,5.5H0v-5h3c1.4,0,2.5,1.1,2.5,2.5v0C5.5,4.4,4.4,5.5,3,5.5z"/></g>
<g transform="translate(792,792) scale(3.7766666666667)"><circle cx="3" cy="3" r="2.5"/></g>
<g transform="translate(836,792) scale(3.7766666666667)"><path d="M6,5.5H3C1.6,5.5,0.5,4.4,0.5,3v0c0-1.4,1.1-2.5,2.5-2.5h3V5.5z"/></g>
<g transform="translate(858,792) scale(3.7766666666667)"><path d="M3,5.5H0v-5h3c1.4,0,2.5,1.1,2.5,2.5v0C5.5,4.4,4.4,5.5,3,5.5z"/></g>
<g transform="translate(264,814) scale(3.7766666666667)"><circle cx="3" cy="3" r="2.5"/></g>
<g transform="translate(308,814) scale(3.7766666666667)"><path d="M6,5.5H3C1.6,5.5,0.5,4.4,0.5,3v0c0-1.4,1.1-2.5,2.5-2.5h3V5.5z"/></g>
<g transform="translate(330,814) scale(3.7766666666667)"><rect y="0.5" width="6" height="5"/></g>
<g transform="translate(352,814) scale(3.7766666666667)"><rect y="0.5" width="6" height="5"/></g>
<g transform="translate(374,814) scale(3.7766666666667)"><path d="M3,5.5H0v-5h3c1.4,0,2.5,1.1,2.5,2.5v0C5.5,4.4,4.4,5.5,3,5.5z"/></g>
<g transform="translate(440,814) scale(3.7766666666667)"><path d="M6,5.5H3C1.6,5.5,0.5,4.4,0.5,3v0c0-1.4,1.1-2.5,2.5-2.5h3V5.5z"/></g>
<g transform="translate(462,814) scale(3.7766666666667)"><path d="M3,5.5H0v-5h3c1.4,0,2.5,1.1,2.5,2.5v0C5.5,4.4,4.4,5.5,3,5.5z"/></g>
<g transform="translate(506,814) scale(3.7766666666667)"><path d="M6,5.5H3C1.6,5.5,0.5,4.4,0.5,3v0c0-1.4,1.1-2.5,2.5-2.5h3V5.5z"/></g>
<g transform="translate(528,814) scale(3.7766666666667)"><path d="M3,5.5H0v-5h3c1.4,0,2.5,1.1,2.5,2.5v0C5.5,4.4,4.4,5.5,3,5.5z"/></g>
<g transform="translate(572,814) scale(3.7766666666667)"><path d="M6,5.5H3C1.6,5.5,0.5,4.4,0.5,3v0c0-1.4,1.1-2.5,2.5-2.5h3V5.5z"/></g>
<g transform="translate(594,814) scale(3.7766666666667)"><path d="M3,5.5H0v-5h3c1.4,0,2.5,1.1,2.5,2.5v0C5.5,4.4,4.4,5.5,3,5.5z"/></g>
<g transform="translate(638,814) scale(3.7766666666667)"><circle cx="3" cy="3" r="2.5"/></g>
<g transform="translate(726,814) scale(3.7766666666667)"><path d="M6,5.5H3C1.6,5.5,0.5,4.4,0.5,3v0c0-1.4,1.1-2.5,2.5-2.5h3V5.5z"/></g>
<g transform="translate(748,814) scale(3.7766666666667)"><path d="M3,5.5H0v-5h3c1.4,0,2.5,1.1,2.5,2.5v0C5.5,4.4,4.4,5.5,3,5.5z"/></g>
<g transform="translate(836,814) scale(3.7766666666667)"><path d="M6,5.5H3C1.6,5.5,0.5,4.4,0.5,3v0c0-1.4,1.1-2.5,2.5-2.5h3V5.5z"/></g>
<g transform="translate(858,814) scale(3.7766666666667)"><path d="M3,5.5H0v-5h3c1.4,0,2.5,1.1,2.5,2.5v0C5.5,4.4,4.4,5.5,3,5.5z"/></g>
<g transform="translate(220,836) scale(3.7766666666667)"><circle cx="3" cy="3" r="2.5"/></g>
<g transform="translate(264,836) scale(3.7766666666667)"><circle cx="3" cy="3" r="2.5"/></g>
<g transform="translate(330,836) scale(3.7766666666667)"><path d="M6,5.5H3C1.6,5.5,0.5,4.4,0.5,3v0c0-1.4,1.1-2.5,2.5-2.5h3V5.5z"/></g>
<g transform="translate(352,836) scale(3.7766666666667)"><path d="M3,5.5H0v-5h3c1.4,0,2.5,1.1,2.5,2.5v0C5.5,4.4,4.4,5.5,3,5.5z"/></g>
<g transform="translate(418,836) scale(3.7766666666667)"><circle cx="3" cy="3" r="2.5"/></g>
<g transform="translate(484,836) scale(3.7766666666667)"><circle cx="3" cy="3" r="2.5"/></g>
<g transform="translate(528,836) scale(3.7766666666667)"><path d="M6,5.5H3C1.6,5.5,0.5,4.4,0.5,3v0c0-1.4,1.1-2.5,2.5-2.5h3V5.5z"/></g>
<g transform="translate(550,836) scale(3.7766666666667)"><path d="M3,5.5H0v-5h3c1.4,0,2.5,1.1,2.5,2.5v0C5.5,4.4,4.4,5.5,3,5.5z"/></g>
<g transform="translate(638,836) scale(3.7766666666667)"><path d="M6,5.5H3C1.6,5.5,0.5,4.4,0.5,3v0c0-1.4,1.1-2.5,2.5-2.5h3V5.5z"/></g>
<g transform="translate(660,836) scale(3.7766666666667)"><path d="M3,5.5H0v-5h3c1.4,0,2.5,1.1,2.5,2.5v0C5.5,4.4,4.4,5.5,3,5.5z"/></g>
<g transform="translate(704,836) scale(3.7766666666667)"><circle cx="3" cy="3" r="2.5"/></g>
<g transform="translate(748,836) scale(3.7766666666667)"><path d="M6,5.5H3C1.6,5.5,0.5,4.4,0.5,3v0c0-1.4,1.1-2.5,2.5-2.5h3V5.5z"/></g>
<g transform="translate(770,836) scale(3.7766666666667)"><rect y="0.5" width="6" height="5"/></g>
<g transform="translate(792,836) scale(3.7766666666667)"><rect y="0.5" width="6" height="5"/></g>
<g transform="translate(814,836) scale(3.7766666666667)"><rect y="0.5" width="6" height="5"/></g>
<g transform="translate(836,836) scale(3.7766666666667)"><rect y="0.5" width="6" height="5"/></g>
<g transform="translate(858,836) scale(3.7766666666667)"><rect y="0.5" width="6" height="5"/></g>
<g transform="translate(880,836) scale(3.7766666666667)"><path d="M3,5.5H0v-5h3c1.4,0,2.5,1.1,2.5,2.5v0C5.5,4.4,4.4,5.5,3,5.5z"/></g>
<g transform="translate(220,858) scale(3.7766666666667)"><path d="M6,5.5H3C1.6,5.5,0.5,4.4,0.5,3v0c0-1.4,1.1-2.5,2.5-2.5h3V5.5z"/></g>
<g transform="translate(242,858) scale(3.7766666666667)"><rect y="0.5" width="6" height="5"/></g>
<g transform="translate(264,858) scale(3.7766666666667)"><path d="M3,5.5H0v-5h3c1.4,0,2.5,1.1,2.5,2.5v0C5.5,4.4,4.4,5.5,3,5.5z"/></g>
<g transform="translate(396,858) scale(3.7766666666667)"><path d="M6,5.5H3C1.6,5.5,0.5,4.4,0.5,3v0c0-1.4,1.1-2.5,2.5-2.5h3V5.5z"/></g>
<g transform="translate(418,858) scale(3.7766666666667)"><path d="M3,5.5H0v-5h3c1.4,0,2.5,1.1,2.5,2.5v0C5.5,4.4,4.4,5.5,3,5.5z"/></g>
<g transform="translate(462,858) scale(3.7766666666667)"><circle cx="3" cy="3" r="2.5"/></g>
<g transform="translate(572,858) scale(3.7766666666667)"><path d="M6,5.5H3C1.6,5.5,0.5,4.4,0.5,3v0c0-1.4,1.1-2.5,2.5-2.5h3V5.5z"/></g>
<g transform="translate(594,858) scale(3.7766666666667)"><path d="M3,5.5H0v-5h3c1.4,0,2.5,1.1,2.5,2.5v0C5.5,4.4,4.4,5.5,3,5.5z"/></g>
<g transform="translate(660,858) scale(3.7766666666667)"><circle cx="3" cy="3" r="2.5"/></g>
<g transform="translate(748,858) scale(3.7766666666667)"><path d="M6,5.5H3C1.6,5.5,0.5,4.4,0.5,3v0c0-1.4,1.1-2.5,2.5-2.5h3V5.5z"/></g>
<g transform="translate(770,858) scale(3.7766666666667)"><path d="M3,5.5H0v-5h3c1.4,0,2.5,1.1,2.5,2.5v0C5.5,4.4,4.4,5.5,3,5.5z"/></g>
<g transform="translate(814,858) scale(3.7766666666667)"><circle cx="3" cy="3" r="2.5"/></g>
<g transform="translate(858,858) scale(3.7766666666667)"><circle cx="3" cy="3" r="2.5"/></g>
<g transform="translate(902,858) scale(3.7766666666667)"><path d="M6,5.5H3C1.6,5.5,0.5,4.4,0.5,3v0c0-1.4,1.1-2.5,2.5-2.5h3V5.5z"/></g>
<g transform="translate(924,858) scale(3.7766666666667)"><path d="M3,5.5H0v-5h3c1.4,0,2.5,1.1,2.5,2.5v0C5.5,4.4,4.4,5.5,3,5.5z"/></g>
<g transform="translate(220,880) scale(3.7766666666667)"><path d="M6,5.5H3C1.6,5.5,0.5,4.4,0.5,3v0c0-1.4,1.1-2.5,2.5-2.5h3V5.5z"/></g>
<g transform="translate(242,880) scale(3.7766666666667)"><rect y="0.5" width="6" height="5"/></g>
<g transform="translate(264,880) scale(3.7766666666667)"><rect y="0.5" width="6" height="5"/></g>
<g transform="translate(286,880) scale(3.7766666666667)"><rect y="0.5" width="6" height="5"/></g>
<g transform="translate(308,880) scale(3.7766666666667)"><path d="M3,5.5H0v-5h3c1.4,0,2.5,1.1,2.5,2.5v0C5.5,4.4,4.4,5.5,3,5.5z"/></g>
<g transform="translate(352,880) scale(3.7766666666667)"><path d="M6,5.5H3C1.6,5.5,0.5,4.4,0.5,3v0c0-1.4,1.1-2.5,2.5-2.5h3V5.5z"/></g>
<g transform="translate(374,880) scale(3.7766666666667)"><path d="M3,5.5H0v-5h3c1.4,0,2.5,1.1,2.5,2.5v0C5.5,4.4,4.4,5.5,3,5.5z"/></g>
<g transform="translate(418,880) scale(3.7766666666667)"><path d="M6,5.5H3C1.6,5.5,0.5,4.4,0.5,3v0c0-1.4,1.1-2.5,2.5-2.5h3V5.5z"/></g>
<g transform="translate(440,880) scale(3.7766666666667)"><path d="M3,5.5H0v-5h3c1.4,0,2.5,1.1,2.5,2.5v0C5.5,4.4,4.4,5.5,3,5.5z"/></g>
<g transform="translate(506,880) scale(3.7766666666667)"><path d="M6,5.5H3C1.6,5.5,0.5,4.4,0.5,3v0c0-1.4,1.1-2.5,2.5-2.5h3V5.5z"/></g>
<g transform="translate(528,880) scale(3.7766666666667)"><path d="M3,5.5H0v-5h3c1.4,0,2.5,1.1,2.5,2.5v0C5.5,4.4,4.4,5.5,3,5.5z"/></g>
<g transform="translate(594,880) scale(3.7766666666667)"><path d="M6,5.5H3C1.6,5.5,0.5,4.4,0.5,3v0c0-1.4,1.1-2.5,2.5-2.5h3V5.5z"/></g>
<g transform="translate(616,880) scale(3.7766666666667)"><rect y="0.5" width="6" height="5"/></g>
<g transform="translate(638,880) scale(3.7766666666667)"><rect y="0.5" width="6" height="5"/></g>
<g transform="translate(660,880) scale(3.7766666666667)"><path d="M3,5.5H0v-5h3c1.4,0,2.5,1.1,2.5,2.5v0C5.5,4.4,4.4,5.5,3,5.5z"/></g>
<g transform="translate(704,880) scale(3.7766666666667)"><circle cx="3" cy="3" r="2.5"/></g>
<g transform="translate(770,880) scale(3.7766666666667)"><path d="M6,5.5H3C1.6,5.5,0.5,4.4,0.5,3v0c0-1.4,1.1-2.5,2.5-2.5h3V5.5z"/></g>
<g transform="translate(792,880) scale(3.7766666666667)"><rect y="0.5" width="6" height="5"/></g>
<g transform="translate(814,880) scale(3.7766666666667)"><rect y="0.5" width="6" height="5"/></g>
<g transform="translate(836,880) scale(3.7766666666667)"><rect y="0.5" width="6" height="5"/></g>
<g transform="translate(858,880) scale(3.7766666666667)"><rect y="0.5" width="6" height="5"/></g>
<g transform="translate(880,880) scale(3.7766666666667)"><rect y="0.5" width="6" height="5"/></g>
<g transform="translate(902,880) scale(3.7766666666667)"><path d="M3,5.5H0v-5h3c1.4,0,2.5,1.1,2.5,2.5v0C5.5,4.4,4.4,5.5,3,5.5z"/></g>
<g transform="translate(242,902) scale(3.7766666666667)"><circle cx="3" cy="3" r="2.5"/></g>
<g transform="translate(286,902) scale(3.7766666666667)"><path d="M6,5.5H3C1.6,5.5,0.5,4.4,0.5,3v0c0-1.4,1.1-2.5,2.5-2.5h3V5.5z"/></g>
<g transform="translate(308,902) scale(3.7766666666667)"><rect y="0.5" width="6" height="5"/></g>
<g transform="translate(330,902) scale(3.7766666666667)"><rect y="0.5" width="6" height="5"/></g>
<g transform="translate(352,902) scale(3.7766666666667)"><rect y="0.5" width="6" height="5"/></g>
<g transform="translate(374,902) scale(3.7766666666667)"><path d="M3,5.5H0v-5h3c1.4,0,2.5,1.1,2.5,2.5v0C5.5,4.4,4.4,5.5,3,5.5z"/></g>
<g transform="translate(418,902) scale(3.7766666666667)"><path d="M6,5.5H3C1.6,5.5,0.5,4.4,0.5,3v0c0-1.4,1.1-2.5,2.5-2.5h3V5.5z"/></g>
<g transform="translate(440,902) scale(3.7766666666667)"><path d="M3,5.5H0v-5h3c1.4,0,2.5,1.1,2.5,2.5v0C5.5,4.4,4.4,5.5,3,5.5z"/></g>
<g transform="translate(506,902) scale(3.7766666666667)"><path d="M6,5.5H3C1.6,5.5,0.5,4.4,0.5,3v0c0-1.4,1.1-2.5,2.5-2.5h3V5.5z"/></g>
<g transform="translate(528,902) scale(3.7766666666667)"><path d="M3,5.5H0v-5h3c1.4,0,2.5,1.1,2.5,2.5v0C5.5,4.4,4.4,5.5,3,5.5z"/></g>
<g transform="translate(572,902) scale(3.7766666666667)"><circle cx="3" cy="3" r="2.5"/></g>
<g transform="translate(638,902) scale(3.7766666666667)"><circle cx="3" cy="3" r="2.5"/></g>
<g transform="translate(726,902) scale(3.7766666666667)"><path d="M6,5.5H3C1.6,5.5,0.5,4.4,0.5,3v0c0-1.4,1.1-2.5,2.5-2.5h3V5.5z"/></g>
<g transform="translate(748,902) scale(3.7766666666667)"><path d="M3,5.5H0v-5h3c1.4,0,2.5,1.1,2.5,2.5v0C5.5,4.4,4.4,5.5,3,5.5z"/></g>
<g transform="translate(792,902) scale(3.7766666666667)"><circle cx="3" cy="3" r="2.5"/></g>
<g transform="translate(836,902) scale(3.7766666666667)"><circle cx="3" cy="3" r="2.5"/></g>
<g transform="translate(902,902) scale(3.7766666666667)"><circle cx="3" cy="3" r="2.5"/></g>
<g transform="translate(242,924) scale(3.7766666666667)"><path d="M6,5.5H3C1.6,5.5,0.5,4.4,0.5,3v0c0-1.4,1.1-2.5,2.5-2.5h3V5.5z"/></g>
<g transform="translate(264,924) scale(3.7766666666667)"><path d="M3,5.5H0v-5h3c1.4,0,2.5,1.1,2.5,2.5v0C5.5,4.4,4.4,5.5,3,5.5z"/></g>
<g transform="translate(330,924) scale(3.7766666666667)"><path d="M6,5.5H3C1.6,5.5,0.5,4.4,0.5,3v0c0-1.4,1.1-2.5,2.5-2.5h3V5.5z"/></g>
<g transform="translate(352,924) scale(3.7766666666667)"><path d="M3,5.5H0v-5h3c1.4,0,2.5,1.1,2.5,2.5v0C5.5,4.4,4.4,5.5,3,5.5z"/></g>
<g transform="translate(396,924) scale(3.7766666666667)"><path d="M6,5.5H3C1.6,5.5,0.5,4.4,0.5,3v0c0-1.4,1.1-2.5,2.5-2.5h3V5.5z"/></g>
<g transform="translate(418,924) scale(3.7766666666667)"><rect y="0.5" width="6" height="5"/></g>
<g transform="translate(440,924) scale(3.7766666666667)"><rect y="0.5" width="6" height="5"/></g>
<g transform="translate(462,924) scale(3.7766666666667)"><path d="M3,5.5H0v-5h3c1.4,0,2.5,1.1,2.5,2.5v0C5.5,4.4,4.4,5.5,3,5.5z"/></g>
<g transform="translate(506,924) scale(3.7766666666667)"><circle cx="3" cy="3" r="2.5"/></g>
<g transform="translate(550,924) scale(3.7766666666667)"><circle cx="3" cy="3" r="2.5"/></g>
<g transform="translate(638,924) scale(3.7766666666667)"><circle cx="3" cy="3" r="2.5"/></g>
<g transform="translate(682,924) scale(3.7766666666667)"><path d="M6,5.5H3C1.6,5.5,0.5,4.4,0.5,3v0c0-1.4,1.1-2.5,2.5-2.5h3V5.5z"/></g>
<g transform="translate(704,924) scale(3.7766666666667)"><rect y="0.5" width="6" height="5"/></g>
<g transform="translate(726,924) scale(3.7766666666667)"><path d="M3,5.5H0v-5h3c1.4,0,2.5,1.1,2.5,2.5v0C5.5,4.4,4.4,5.5,3,5.5z"/></g>
<g transform="translate(814,924) scale(3.7766666666667)"><path d="M6,5.5H3C1.6,5.5,0.5,4.4,0.5,3v0c0-1.4,1.1-2.5,2.5-2.5h3V5.5z"/></g>
<g transform="translate(836,924) scale(3.7766666666667)"><path d="M3,5.5H0v-5h3c1.4,0,2.5,1.1,2.5,2.5v0C5.5,4.4,4.4,5.5,3,5.5z"/></g>
</g></g></mask></defs>
<rect width="990" height="990" fill="#ffffff" x="0" y="0" />
<rect x="0" y="0" width="990" height="990" mask="url(#qrmask)" fill="#002553" />
<g><g transform="translate(44,44)"  fill="#002553"><g transform="scale(11)"><path d="M4.5,14h5.1C12,14,14,12,14,9.6V4.5C14,2,12,0,9.5,0H4.4C2,0,0,2,0,4.4v5.1C0,12,2,14,4.5,14z M12,4.8v4.4 c0,1.5-1.3,2.8-2.8,2.8H4.8C3.2,12,2,10.8,2,9.2V4.8C2,3.3,3.3,2,4.8,2h4.4C10.8,2,12,3.2,12,4.8z"/></g></g>
<g transform="translate(88,88)"  fill="#002553"><g transform="scale(11)"><path d="M6,1.7v2.7C6,5.2,5.2,6,4.3,6H1.7C0.7,6,0,5.3,0,4.3V1.7C0,0.8,0.8,0,1.7,0h2.7C5.3,0,6,0.7,6,1.7z"/></g></g>
<g transform="translate(792,44)"  fill="#002553"><g transform="scale(11)"><path d="M4.5,14h5.1C12,14,14,12,14,9.6V4.5C14,2,12,0,9.5,0H4.4C2,0,0,2,0,4.4v5.1C0,12,2,14,4.5,14z M12,4.8v4.4 c0,1.5-1.3,2.8-2.8,2.8H4.8C3.2,12,2,10.8,2,9.2V4.8C2,3.3,3.3,2,4.8,2h4.4C10.8,2,12,3.2,12,4.8z"/></g></g>
<g transform="translate(836,88)"  fill="#002553"><g transform="scale(11)"><path d="M6,1.7v2.7C6,5.2,5.2,6,4.3,6H1.7C0.7,6,0,5.3,0,4.3V1.7C0,0.8,0.8,0,1.7,0h2.7C5.3,0,6,0.7,6,1.7z"/></g></g>
<g transform="translate(44,792)"  fill="#002553"><g transform="scale(11)"><path d="M4.5,14h5.1C12,14,14,12,14,9.6V4.5C14,2,12,0,9.5,0H4.4C2,0,0,2,0,4.4v5.1C0,12,2,14,4.5,14z M12,4.8v4.4 c0,1.5-1.3,2.8-2.8,2.8H4.8C3.2,12,2,10.8,2,9.2V4.8C2,3.3,3.3,2,4.8,2h4.4C10.8,2,12,3.2,12,4.8z"/></g></g>
<g transform="translate(88,836)"  fill="#002553"><g transform="scale(11)"><path d="M6,1.7v2.7C6,5.2,5.2,6,4.3,6H1.7C0.7,6,0,5.3,0,4.3V1.7C0,0.8,0.8,0,1.7,0h2.7C5.3,0,6,0.7,6,1.7z"/></g></g></g>
</svg>